Yantramanav-Medium.ufo
<glyph name="exclam" format="1">
  <advance width="697"/>
  <unicode hex="0021"/>
  <outline>
    <contour>
      <point x="444" y="440" type="line"/>
      <point x="228" y="440" type="line"/>
      <point x="228" y="1310" type="line"/>
      <point x="444" y="1310" type="line"/>
    </contour>
    <contour>
      <point x="445" y="0" type="line"/>
      <point x="228" y="0" type="line"/>
      <point x="228" y="205" type="line"/>
      <point x="445" y="205" type="line"/>
    </contour>
  </outline>
</glyph>
<glyph name="quotedbl" format="1">
  <advance width="909"/>
  <unicode hex="0022"/>
  <outline>
    <contour>
      <point x="403" y="1133" type="line"/>
      <point x="298" y="914" type="line"/>
      <point x="200" y="914" type="line"/>
      <point x="188" y="1122" type="line"/>
      <point x="188" y="1404" type="line"/>
      <point x="403" y="1404" type="line"/>
    </contour>
    <contour>
      <point x="715" y="1133" type="line"/>
      <point x="610" y="914" type="line"/>
      <point x="512" y="914" type="line"/>
      <point x="500" y="1131" type="line"/>
      <point x="500" y="1404" type="line"/>
      <point x="715" y="1404" type="line"/>
    </contour>
  </outline>
</glyph>
<glyph name="numbersign" format="1">
  <advance width="1125"/>
  <unicode hex="0023"/>
  <outline>
    <contour>
      <point x="616" y="369" type="line"/>
      <point x="411" y="369" type="line"/>
      <point x="343" y="0" type="line"/>
      <point x="194" y="0" type="line"/>
      <point x="262" y="369" type="line"/>
      <point x="54" y="369" type="line"/>
      <point x="54" y="507" type="line"/>
      <point x="289" y="507" type="line"/>
      <point x="343" y="797" type="line"/>
      <point x="122" y="797" type="line"/>
      <point x="122" y="936" type="line"/>
      <point x="369" y="936" type="line"/>
      <point x="439" y="1310" type="line"/>
      <point x="588" y="1310" type="line"/>
      <point x="518" y="936" type="line"/>
      <point x="722" y="936" type="line"/>
      <point x="792" y="1310" type="line"/>
      <point x="941" y="1310" type="line"/>
      <point x="871" y="936" type="line"/>
      <point x="1058" y="936" type="line"/>
      <point x="1058" y="797" type="line"/>
      <point x="846" y="797" type="line"/>
      <point x="791" y="507" type="line"/>
      <point x="991" y="507" type="line"/>
      <point x="991" y="369" type="line"/>
      <point x="765" y="369" type="line"/>
      <point x="697" y="0" type="line"/>
      <point x="547" y="0" type="line"/>
    </contour>
    <contour>
      <point x="437" y="507" type="line"/>
      <point x="641" y="507" type="line"/>
      <point x="696" y="797" type="line"/>
      <point x="492" y="797" type="line"/>
    </contour>
  </outline>
</glyph>
<glyph name="dollar" format="1">
  <advance width="1047"/>
  <unicode hex="0024"/>
  <outline>
    <contour>
      <point x="743" y="334" type="qcurve"/>
      <point x="743" y="421"/>
      <point x="649" y="520"/>
      <point x="525" y="569" type="qcurve"/>
      <point x="319" y="646"/>
      <point x="132" y="813"/>
      <point x="132" y="974" type="qcurve"/>
      <point x="132" y="1124"/>
      <point x="332" y="1314"/>
      <point x="499" y="1327" type="qcurve"/>
      <point x="499" y="1509" type="line"/>
      <point x="609" y="1509" type="line"/>
      <point x="609" y="1325" type="line"/>
      <point x="771" y="1307"/>
      <point x="958" y="1094"/>
      <point x="955" y="923" type="qcurve"/>
      <point x="953" y="918" type="line"/>
      <point x="744" y="918" type="line"/>
      <point x="744" y="1034"/>
      <point x="636" y="1164"/>
      <point x="541" y="1164" type="qcurve"/>
      <point x="445" y="1164"/>
      <point x="348" y="1055"/>
      <point x="348" y="974" type="qcurve"/>
      <point x="348" y="892"/>
      <point x="436" y="793"/>
      <point x="565" y="745" type="qcurve"/>
      <point x="767" y="664"/>
      <point x="957" y="495"/>
      <point x="957" y="336" type="qcurve"/>
      <point x="957" y="184"/>
      <point x="763" y="-2"/>
      <point x="601" y="-16" type="qcurve"/>
      <point x="601" y="-193" type="line"/>
      <point x="490" y="-193" type="line"/>
      <point x="490" y="-16" type="line"/>
      <point x="317" y="-3"/>
      <point x="88" y="197"/>
      <point x="91" y="397" type="qcurve"/>
      <point x="94" y="402" type="line"/>
      <point x="301" y="402" type="line"/>
      <point x="301" y="267"/>
      <point x="440" y="147"/>
      <point x="544" y="147" type="qcurve"/>
      <point x="637" y="147"/>
      <point x="743" y="254"/>
    </contour>
  </outline>
</glyph>
<glyph name="percent" format="1">
  <advance width="1354"/>
  <unicode hex="0025"/>
  <outline>
    <contour>
      <point x="90" y="1058" type="line"/>
      <point x="90" y="1174"/>
      <point x="239" y="1329"/>
      <point x="367" y="1329" type="qcurve"/>
      <point x="496" y="1329"/>
      <point x="644" y="1174"/>
      <point x="644" y="1058" type="qcurve"/>
      <point x="644" y="989" type="line"/>
      <point x="644" y="874"/>
      <point x="497" y="720"/>
      <point x="368" y="720" type="qcurve"/>
      <point x="240" y="720"/>
      <point x="90" y="874"/>
      <point x="90" y="989" type="qcurve"/>
    </contour>
    <contour>
      <point x="240" y="989" type="line"/>
      <point x="240" y="929"/>
      <point x="307" y="846"/>
      <point x="368" y="846" type="qcurve"/>
      <point x="428" y="846"/>
      <point x="494" y="929"/>
      <point x="494" y="989" type="qcurve"/>
      <point x="494" y="1058" type="line"/>
      <point x="494" y="1118"/>
      <point x="427" y="1203"/>
      <point x="367" y="1203" type="qcurve"/>
      <point x="306" y="1203"/>
      <point x="240" y="1118"/>
      <point x="240" y="1058" type="qcurve"/>
    </contour>
    <contour>
      <point x="721" y="321" type="line"/>
      <point x="721" y="436"/>
      <point x="870" y="591"/>
      <point x="998" y="591" type="qcurve"/>
      <point x="1126" y="591"/>
      <point x="1275" y="437"/>
      <point x="1275" y="321" type="qcurve"/>
      <point x="1275" y="251" type="line"/>
      <point x="1275" y="135"/>
      <point x="1127" y="-19"/>
      <point x="1000" y="-19" type="qcurve"/>
      <point x="871" y="-19"/>
      <point x="721" y="136"/>
      <point x="721" y="251" type="qcurve"/>
    </contour>
    <contour>
      <point x="871" y="251" type="line"/>
      <point x="871" y="192"/>
      <point x="940" y="108"/>
      <point x="1000" y="108" type="qcurve"/>
      <point x="1062" y="108"/>
      <point x="1125" y="189"/>
      <point x="1125" y="251" type="qcurve"/>
      <point x="1125" y="321" type="line"/>
      <point x="1125" y="381"/>
      <point x="1058" y="465"/>
      <point x="998" y="465" type="qcurve"/>
      <point x="937" y="465"/>
      <point x="871" y="381"/>
      <point x="871" y="321" type="qcurve"/>
    </contour>
    <contour>
      <point x="415" y="99" type="line"/>
      <point x="304" y="162" type="line"/>
      <point x="944" y="1186" type="line"/>
      <point x="1055" y="1123" type="line"/>
    </contour>
  </outline>
</glyph>
<glyph name="ampersand" format="1">
  <advance width="1176"/>
  <unicode hex="0026"/>
  <outline>
    <contour>
      <point x="0" y="0" type="line"/>
      <point x="1176" y="0" type="line"/>
      <point x="1176" y="20" type="line"/>
      <point x="0" y="20" type="line"/>
    </contour>
  </outline>
</glyph>
<glyph name="parenleft" format="1">
  <advance width="849"/>
  <unicode hex="0028"/>
  <outline>
    <contour>
      <point x="197" y="532" type="line"/>
      <point x="197" y="885"/>
      <point x="477" y="1383"/>
      <point x="641" y="1462" type="qcurve"/>
      <point x="647" y="1461" type="line"/>
      <point x="687" y="1346" type="line"/>
      <point x="566" y="1253"/>
      <point x="393" y="842"/>
      <point x="393" y="534" type="qcurve"/>
      <point x="393" y="517" type="line"/>
      <point x="393" y="209"/>
      <point x="565" y="-202"/>
      <point x="687" y="-301" type="qcurve"/>
      <point x="647" y="-412" type="line"/>
      <point x="641" y="-412" type="line"/>
      <point x="477" y="-332"/>
      <point x="197" y="165"/>
      <point x="197" y="519" type="qcurve"/>
    </contour>
  </outline>
</glyph>
<glyph name="parenright" format="1">
  <advance width="849"/>
  <unicode hex="0029"/>
  <outline>
    <contour>
      <point x="659" y="519" type="line"/>
      <point x="659" y="169"/>
      <point x="373" y="-332"/>
      <point x="208" y="-412" type="qcurve"/>
      <point x="203" y="-412" type="line"/>
      <point x="162" y="-301" type="line"/>
      <point x="282" y="-209"/>
      <point x="456" y="208"/>
      <point x="456" y="517" type="qcurve"/>
      <point x="456" y="534" type="line"/>
      <point x="456" y="839"/>
      <point x="277" y="1257"/>
      <point x="162" y="1351" type="qcurve"/>
      <point x="203" y="1462" type="line"/>
      <point x="208" y="1462" type="line"/>
      <point x="373" y="1384"/>
      <point x="659" y="881"/>
      <point x="659" y="532" type="qcurve"/>
    </contour>
  </outline>
</glyph>
<glyph name="asterisk" format="1">
  <advance width="805"/>
  <unicode hex="002A"/>
  <outline>
    <contour>
      <point x="294" y="937" type="line"/>
      <point x="24" y="1018" type="line"/>
      <point x="72" y="1165" type="line"/>
      <point x="339" y="1060" type="line"/>
      <point x="327" y="1370" type="line"/>
      <point x="483" y="1370" type="line"/>
      <point x="469" y="1054" type="line"/>
      <point x="732" y="1158" type="line"/>
      <point x="779" y="1009" type="line"/>
      <point x="505" y="928" type="line"/>
      <point x="682" y="686" type="line"/>
      <point x="556" y="594" type="line"/>
      <point x="396" y="854" type="line"/>
      <point x="238" y="602" type="line"/>
      <point x="111" y="691" type="line"/>
    </contour>
  </outline>
</glyph>
<glyph name="plus" format="1">
  <advance width="1028"/>
  <unicode hex="002B"/>
  <outline>
    <contour>
      <point x="616" y="716" type="line"/>
      <point x="959" y="716" type="line"/>
      <point x="959" y="526" type="line"/>
      <point x="616" y="526" type="line"/>
      <point x="616" y="131" type="line"/>
      <point x="407" y="131" type="line"/>
      <point x="407" y="526" type="line"/>
      <point x="61" y="526" type="line"/>
      <point x="61" y="716" type="line"/>
      <point x="407" y="716" type="line"/>
      <point x="407" y="1085" type="line"/>
      <point x="616" y="1085" type="line"/>
    </contour>
  </outline>
</glyph>
<glyph name="comma" format="1">
  <advance width="401"/>
  <unicode hex="002C"/>
  <outline>
    <contour>
      <point x="312" y="0" type="line"/>
      <point x="173" y="-278" type="line"/>
      <point x="45" y="-278" type="line"/>
      <point x="108" y="9" type="line"/>
      <point x="108" y="180" type="line"/>
      <point x="312" y="180" type="line"/>
    </contour>
  </outline>
</glyph>
<glyph name="hyphen" format="1">
  <advance width="602"/>
  <unicode hex="002D"/>
  <outline>
    <contour>
      <point x="535" y="526" type="line"/>
      <point x="64" y="526" type="line"/>
      <point x="64" y="694" type="line"/>
      <point x="535" y="694" type="line"/>
    </contour>
  </outline>
</glyph>
<glyph name="slash" format="1">
  <advance width="730"/>
  <unicode hex="002F"/>
  <outline>
    <contour>
      <point x="173" y="-113" type="line"/>
      <point x="2" y="-113" type="line"/>
      <point x="520" y="1310" type="line"/>
      <point x="690" y="1310" type="line"/>
    </contour>
  </outline>
</glyph>
<glyph name="zero" format="1">
  <advance width="1047"/>
  <unicode hex="0030"/>
  <outline>
    <contour>
      <point x="952" y="502" type="line"/>
      <point x="952" y="247"/>
      <point x="723" y="-21"/>
      <point x="525" y="-21" type="qcurve" smooth="yes"/>
      <point x="326" y="-21"/>
      <point x="95" y="248"/>
      <point x="95" y="502" type="qcurve" smooth="yes"/>
      <point x="95" y="803" type="line"/>
      <point x="95" y="1057"/>
      <point x="325" y="1327"/>
      <point x="523" y="1327" type="qcurve" smooth="yes"/>
      <point x="721" y="1327"/>
      <point x="952" y="1057"/>
      <point x="952" y="803" type="qcurve" smooth="yes"/>
    </contour>
    <contour>
      <point x="737" y="836" type="line"/>
      <point x="737" y="1000"/>
      <point x="627" y="1160"/>
      <point x="523" y="1160" type="qcurve" smooth="yes"/>
      <point x="418" y="1160"/>
      <point x="310" y="1000"/>
      <point x="310" y="836" type="qcurve" smooth="yes"/>
      <point x="310" y="472" type="line"/>
      <point x="310" y="307"/>
      <point x="420" y="147"/>
      <point x="525" y="147" type="qcurve" smooth="yes"/>
      <point x="629" y="147"/>
      <point x="737" y="306"/>
      <point x="737" y="472" type="qcurve" smooth="yes"/>
    </contour>
  </outline>
</glyph>
<glyph name="one" format="1">
  <advance width="1047"/>
  <unicode hex="0031"/>
  <outline>
    <contour>
      <point x="647" y="0" type="line"/>
      <point x="432" y="0" type="line"/>
      <point x="432" y="1098" type="line"/>
      <point x="156" y="1095" type="line"/>
      <point x="156" y="1249" type="line"/>
      <point x="647" y="1310" type="line"/>
    </contour>
  </outline>
</glyph>
<glyph name="two" format="1">
  <advance width="1047"/>
  <unicode hex="0032"/>
  <outline>
    <contour>
      <point x="968" y="0" type="line"/>
      <point x="98" y="0" type="line"/>
      <point x="98" y="144" type="line"/>
      <point x="525" y="611" type="line"/>
      <point x="630" y="729"/>
      <point x="710" y="878"/>
      <point x="710" y="950" type="qcurve"/>
      <point x="710" y="1041"/>
      <point x="607" y="1162"/>
      <point x="518" y="1162" type="qcurve"/>
      <point x="402" y="1162"/>
      <point x="288" y="1029"/>
      <point x="288" y="914" type="qcurve"/>
      <point x="80" y="914" type="line"/>
      <point x="78" y="920" type="line"/>
      <point x="74" y="1092"/>
      <point x="312" y="1329"/>
      <point x="518" y="1329" type="qcurve"/>
      <point x="706" y="1329"/>
      <point x="926" y="1121"/>
      <point x="926" y="954" type="qcurve"/>
      <point x="926" y="842"/>
      <point x="798" y="635"/>
      <point x="667" y="491" type="qcurve"/>
      <point x="372" y="172" type="line"/>
      <point x="374" y="168" type="line"/>
      <point x="968" y="168" type="line"/>
    </contour>
  </outline>
</glyph>
<glyph name="three" format="1">
  <advance width="1047"/>
  <unicode hex="0033"/>
  <outline>
    <contour>
      <point x="351" y="751" type="line"/>
      <point x="503" y="751" type="line"/>
      <point x="610" y="751"/>
      <point x="705" y="860"/>
      <point x="705" y="957" type="qcurve"/>
      <point x="705" y="1054"/>
      <point x="603" y="1162"/>
      <point x="504" y="1162" type="qcurve"/>
      <point x="414" y="1162"/>
      <point x="300" y="1056"/>
      <point x="300" y="969" type="qcurve"/>
      <point x="92" y="969" type="line"/>
      <point x="90" y="975" type="line"/>
      <point x="85" y="1125"/>
      <point x="320" y="1329"/>
      <point x="501" y="1329" type="qcurve"/>
      <point x="692" y="1329"/>
      <point x="920" y="1135"/>
      <point x="920" y="956" type="qcurve"/>
      <point x="920" y="873"/>
      <point x="818" y="715"/>
      <point x="722" y="672" type="qcurve"/>
      <point x="836" y="634"/>
      <point x="940" y="471"/>
      <point x="940" y="366" type="qcurve"/>
      <point x="940" y="186"/>
      <point x="693" y="-19"/>
      <point x="501" y="-19" type="qcurve"/>
      <point x="320" y="-19"/>
      <point x="73" y="175"/>
      <point x="78" y="345" type="qcurve"/>
      <point x="80" y="351" type="line"/>
      <point x="288" y="351" type="line"/>
      <point x="288" y="260"/>
      <point x="406" y="149"/>
      <point x="504" y="149" type="qcurve"/>
      <point x="607" y="149"/>
      <point x="725" y="261"/>
      <point x="725" y="365" type="qcurve"/>
      <point x="725" y="479"/>
      <point x="616" y="585"/>
      <point x="503" y="585" type="qcurve"/>
      <point x="351" y="585" type="line"/>
    </contour>
  </outline>
</glyph>
<glyph name="four" format="1">
  <advance width="1047"/>
  <unicode hex="0034"/>
  <outline>
    <contour>
      <point x="831" y="452" type="line"/>
      <point x="998" y="452" type="line"/>
      <point x="998" y="286" type="line"/>
      <point x="831" y="286" type="line"/>
      <point x="831" y="0" type="line"/>
      <point x="617" y="0" type="line"/>
      <point x="617" y="286" type="line"/>
      <point x="42" y="286" type="line"/>
      <point x="42" y="407" type="line"/>
      <point x="605" y="1310" type="line"/>
      <point x="831" y="1310" type="line"/>
    </contour>
    <contour>
      <point x="265" y="452" type="line"/>
      <point x="617" y="452" type="line"/>
      <point x="617" y="1000" type="line"/>
      <point x="612" y="1001" type="line"/>
      <point x="611" y="977" type="line"/>
    </contour>
  </outline>
</glyph>
<glyph name="five" format="1">
  <advance width="1047"/>
  <unicode hex="0035"/>
  <outline>
    <contour>
      <point x="142" y="585" type="line"/>
      <point x="217" y="1308" type="line"/>
      <point x="907" y="1308" type="line"/>
      <point x="907" y="1128" type="line"/>
      <point x="397" y="1128" type="line"/>
      <point x="356" y="788" type="line"/>
      <point x="396" y="817"/>
      <point x="497" y="855"/>
      <point x="563" y="857" type="qcurve" smooth="yes"/>
      <point x="747" y="859"/>
      <point x="955" y="622"/>
      <point x="955" y="417" type="qcurve" smooth="yes"/>
      <point x="955" y="223"/>
      <point x="736" y="-21"/>
      <point x="528" y="-21" type="qcurve" smooth="yes"/>
      <point x="355" y="-21"/>
      <point x="118" y="169"/>
      <point x="122" y="343" type="qcurve"/>
      <point x="124" y="349" type="line"/>
      <point x="325" y="354" type="line"/>
      <point x="325" y="256"/>
      <point x="438" y="147"/>
      <point x="528" y="147" type="qcurve" smooth="yes"/>
      <point x="632" y="147"/>
      <point x="739" y="292"/>
      <point x="739" y="415" type="qcurve" smooth="yes"/>
      <point x="739" y="536"/>
      <point x="628" y="686"/>
      <point x="526" y="686" type="qcurve" smooth="yes"/>
      <point x="434" y="686"/>
      <point x="347" y="627"/>
      <point x="327" y="570" type="qcurve"/>
    </contour>
  </outline>
</glyph>
<glyph name="six" format="1">
  <advance width="1047"/>
  <unicode hex="0036"/>
  <outline>
    <contour>
      <point x="611" y="1327" type="qcurve" smooth="yes"/>
      <point x="682" y="1327"/>
      <point x="810" y="1298"/>
      <point x="863" y="1273" type="qcurve"/>
      <point x="821" y="1111" type="line"/>
      <point x="771" y="1133"/>
      <point x="675" y="1158"/>
      <point x="612" y="1158" type="qcurve" smooth="yes"/>
      <point x="481" y="1158"/>
      <point x="321" y="955"/>
      <point x="322" y="785" type="qcurve" smooth="yes"/>
      <point x="323" y="769" type="line"/>
      <point x="376" y="818"/>
      <point x="518" y="872"/>
      <point x="604" y="872" type="qcurve" smooth="yes"/>
      <point x="779" y="872"/>
      <point x="984" y="626"/>
      <point x="984" y="437" type="qcurve" smooth="yes"/>
      <point x="984" y="236"/>
      <point x="751" y="-21"/>
      <point x="560" y="-21" type="qcurve" smooth="yes"/>
      <point x="361" y="-21"/>
      <point x="106" y="259"/>
      <point x="106" y="511" type="qcurve" smooth="yes"/>
      <point x="106" y="765" type="line"/>
      <point x="106" y="1019"/>
      <point x="394" y="1327"/>
    </contour>
    <contour>
      <point x="551" y="710" type="qcurve" smooth="yes"/>
      <point x="468" y="710"/>
      <point x="352" y="648"/>
      <point x="320" y="596" type="qcurve"/>
      <point x="320" y="499" type="line"/>
      <point x="320" y="329"/>
      <point x="455" y="147"/>
      <point x="560" y="147" type="qcurve" smooth="yes"/>
      <point x="657" y="147"/>
      <point x="769" y="314"/>
      <point x="769" y="437" type="qcurve" smooth="yes"/>
      <point x="769" y="558"/>
      <point x="652" y="710"/>
    </contour>
  </outline>
</glyph>
<glyph name="seven" format="1">
  <advance width="1047"/>
  <unicode hex="0037"/>
  <outline>
    <contour>
      <point x="967" y="1143" type="line"/>
      <point x="741" y="877"/>
      <point x="580" y="444"/>
      <point x="545" y="137" type="qcurve"/>
      <point x="531" y="0" type="line"/>
      <point x="316" y="0" type="line"/>
      <point x="329" y="137" type="line"/>
      <point x="364" y="438"/>
      <point x="574" y="924"/>
      <point x="757" y="1143" type="qcurve"/>
      <point x="62" y="1143" type="line"/>
      <point x="62" y="1310" type="line"/>
      <point x="967" y="1310" type="line"/>
    </contour>
  </outline>
</glyph>
<glyph name="eight" format="1">
  <advance width="1047"/>
  <unicode hex="0038"/>
  <outline>
    <contour>
      <point x="925" y="964" type="qcurve" smooth="yes"/>
      <point x="925" y="863"/>
      <point x="815" y="711"/>
      <point x="720" y="671" type="qcurve"/>
      <point x="829" y="629"/>
      <point x="959" y="463"/>
      <point x="959" y="355" type="qcurve" smooth="yes"/>
      <point x="959" y="172"/>
      <point x="717" y="-21"/>
      <point x="524" y="-21" type="qcurve" smooth="yes"/>
      <point x="328" y="-21"/>
      <point x="88" y="173"/>
      <point x="88" y="355" type="qcurve" smooth="yes"/>
      <point x="88" y="463"/>
      <point x="215" y="629"/>
      <point x="324" y="671" type="qcurve"/>
      <point x="229" y="711"/>
      <point x="122" y="863"/>
      <point x="122" y="964" type="qcurve" smooth="yes"/>
      <point x="122" y="1138"/>
      <point x="341" y="1327"/>
      <point x="523" y="1327" type="qcurve" smooth="yes"/>
      <point x="701" y="1327"/>
      <point x="925" y="1138"/>
    </contour>
    <contour>
      <point x="744" y="364" type="qcurve" smooth="yes"/>
      <point x="744" y="463"/>
      <point x="619" y="587"/>
      <point x="523" y="587" type="qcurve" smooth="yes"/>
      <point x="424" y="587"/>
      <point x="303" y="463"/>
      <point x="303" y="364" type="qcurve" smooth="yes"/>
      <point x="303" y="263"/>
      <point x="423" y="147"/>
      <point x="524" y="147" type="qcurve" smooth="yes"/>
      <point x="622" y="147"/>
      <point x="744" y="263"/>
    </contour>
    <contour>
      <point x="710" y="957" type="qcurve" smooth="yes"/>
      <point x="710" y="1046"/>
      <point x="606" y="1160"/>
      <point x="523" y="1160" type="qcurve" smooth="yes"/>
      <point x="438" y="1160"/>
      <point x="337" y="1049"/>
      <point x="337" y="957" type="qcurve" smooth="yes"/>
      <point x="337" y="865"/>
      <point x="439" y="755"/>
      <point x="524" y="755" type="qcurve" smooth="yes"/>
      <point x="608" y="755"/>
      <point x="710" y="865"/>
    </contour>
  </outline>
</glyph>
<glyph name="nine" format="1">
  <advance width="1047"/>
  <unicode hex="0039"/>
  <outline>
    <contour>
      <point x="464" y="147" type="qcurve" smooth="yes"/>
      <point x="582" y="147"/>
      <point x="726" y="323"/>
      <point x="726" y="493" type="qcurve" smooth="yes"/>
      <point x="726" y="552" type="line"/>
      <point x="682" y="491"/>
      <point x="554" y="428"/>
      <point x="478" y="428" type="qcurve" smooth="yes"/>
      <point x="291" y="428"/>
      <point x="74" y="665"/>
      <point x="74" y="872" type="qcurve" smooth="yes"/>
      <point x="74" y="1069"/>
      <point x="316" y="1327"/>
      <point x="496" y="1327" type="qcurve" smooth="yes"/>
      <point x="699" y="1327"/>
      <point x="942" y="1062"/>
      <point x="942" y="812" type="qcurve" smooth="yes"/>
      <point x="942" y="500" type="line"/>
      <point x="942" y="253"/>
      <point x="674" y="-21"/>
      <point x="464" y="-21" type="qcurve" smooth="yes"/>
      <point x="395" y="-21"/>
      <point x="251" y="6"/>
      <point x="192" y="33" type="qcurve"/>
      <point x="220" y="194" type="line"/>
      <point x="276" y="168"/>
      <point x="390" y="147"/>
    </contour>
    <contour>
      <point x="498" y="591" type="qcurve" smooth="yes"/>
      <point x="582" y="591"/>
      <point x="697" y="661"/>
      <point x="726" y="716" type="qcurve"/>
      <point x="726" y="836" type="line"/>
      <point x="726" y="995"/>
      <point x="608" y="1160"/>
      <point x="499" y="1160" type="qcurve" smooth="yes"/>
      <point x="410" y="1160"/>
      <point x="290" y="995"/>
      <point x="290" y="872" type="qcurve" smooth="yes"/>
      <point x="290" y="745"/>
      <point x="400" y="591"/>
    </contour>
  </outline>
</glyph>
<glyph name="less" format="1">
  <advance width="932"/>
  <unicode hex="003C"/>
  <outline>
    <contour>
      <point x="314" y="506" type="line"/>
      <point x="247" y="495" type="line"/>
      <point x="247" y="489" type="line"/>
      <point x="314" y="476" type="line"/>
      <point x="789" y="292" type="line"/>
      <point x="789" y="72" type="line"/>
      <point x="61" y="413" type="line"/>
      <point x="61" y="574" type="line"/>
      <point x="789" y="914" type="line"/>
      <point x="789" y="696" type="line"/>
    </contour>
  </outline>
</glyph>
<glyph name="equal" format="1">
  <advance width="1049"/>
  <unicode hex="003D"/>
  <outline>
    <contour>
      <point x="906" y="716" type="line"/>
      <point x="130" y="716" type="line"/>
      <point x="130" y="890" type="line"/>
      <point x="906" y="890" type="line"/>
    </contour>
    <contour>
      <point x="906" y="335" type="line"/>
      <point x="130" y="335" type="line"/>
      <point x="130" y="509" type="line"/>
      <point x="906" y="509" type="line"/>
    </contour>
  </outline>
</glyph>
<glyph name="greater" format="1">
  <advance width="970"/>
  <unicode hex="003E"/>
  <outline>
    <contour>
      <point x="128" y="694" type="line"/>
      <point x="128" y="907" type="line"/>
      <point x="904" y="566" type="line"/>
      <point x="904" y="406" type="line"/>
      <point x="128" y="65" type="line"/>
      <point x="128" y="279" type="line"/>
      <point x="650" y="474" type="line"/>
      <point x="717" y="484" type="line"/>
      <point x="717" y="490" type="line"/>
      <point x="650" y="503" type="line"/>
    </contour>
  </outline>
</glyph>
<glyph name="question" format="1">
  <advance width="1159"/>
  <unicode hex="003F"/>
  <outline>
    <contour>
      <point x="451" y="371" type="line"/>
      <point x="452" y="499"/>
      <point x="509" y="608"/>
      <point x="608" y="690" type="qcurve"/>
      <point x="689" y="775"/>
      <point x="763" y="889"/>
      <point x="763" y="966" type="qcurve"/>
      <point x="763" y="1055"/>
      <point x="667" y="1155"/>
      <point x="579" y="1155" type="qcurve"/>
      <point x="503" y="1155"/>
      <point x="398" y="1070"/>
      <point x="398" y="988" type="qcurve"/>
      <point x="191" y="988" type="line"/>
      <point x="188" y="993" type="line"/>
      <point x="185" y="1151"/>
      <point x="405" y="1329"/>
      <point x="579" y="1329" type="qcurve"/>
      <point x="767" y="1329"/>
      <point x="978" y="1138"/>
      <point x="978" y="969" type="qcurve"/>
      <point x="978" y="854"/>
      <point x="849" y="663"/>
      <point x="745" y="576" type="qcurve"/>
      <point x="693" y="530"/>
      <point x="667" y="450"/>
      <point x="667" y="371" type="qcurve"/>
    </contour>
    <contour>
      <point x="671" y="0" type="line"/>
      <point x="451" y="0" type="line"/>
      <point x="451" y="204" type="line"/>
      <point x="671" y="204" type="line"/>
    </contour>
  </outline>
</glyph>
<glyph name="at" format="1">
  <advance width="1643"/>
  <unicode hex="0040"/>
  <outline>
    <contour>
      <point x="0" y="0" type="line"/>
      <point x="1643" y="0" type="line"/>
      <point x="1643" y="20" type="line"/>
      <point x="0" y="20" type="line"/>
    </contour>
  </outline>
</glyph>
<glyph name="A" format="1">
  <advance width="1186"/>
  <unicode hex="0041"/>
  <outline>
    <contour>
      <point x="850" y="313" type="line"/>
      <point x="342" y="313" type="line"/>
      <point x="233" y="0" type="line"/>
      <point x="14" y="0" type="line"/>
      <point x="496" y="1310" type="line"/>
      <point x="701" y="1310" type="line"/>
      <point x="1177" y="0" type="line"/>
      <point x="959" y="0" type="line"/>
    </contour>
    <contour>
      <point x="401" y="487" type="line"/>
      <point x="793" y="487" type="line"/>
      <point x="601" y="1046" type="line"/>
      <point x="596" y="1046" type="line"/>
    </contour>
  </outline>
</glyph>
<glyph name="B" format="1">
  <advance width="1180"/>
  <unicode hex="0042"/>
  <outline>
    <contour>
      <point x="144" y="0" type="line"/>
      <point x="144" y="1310" type="line"/>
      <point x="578" y="1310" type="line"/>
      <point x="795" y="1310"/>
      <point x="1040" y="1132"/>
      <point x="1040" y="954" type="qcurve"/>
      <point x="1040" y="865"/>
      <point x="935" y="725"/>
      <point x="844" y="690" type="qcurve"/>
      <point x="962" y="665"/>
      <point x="1090" y="490"/>
      <point x="1090" y="375" type="qcurve"/>
      <point x="1090" y="192"/>
      <point x="850" y="0"/>
      <point x="637" y="0" type="qcurve"/>
    </contour>
    <contour>
      <point x="360" y="599" type="line"/>
      <point x="360" y="168" type="line"/>
      <point x="637" y="168" type="line"/>
      <point x="751" y="168"/>
      <point x="875" y="274"/>
      <point x="875" y="375" type="qcurve"/>
      <point x="875" y="481"/>
      <point x="771" y="599"/>
      <point x="661" y="599" type="qcurve"/>
    </contour>
    <contour>
      <point x="360" y="756" type="line"/>
      <point x="606" y="756" type="line"/>
      <point x="706" y="757"/>
      <point x="825" y="856"/>
      <point x="825" y="946" type="qcurve"/>
      <point x="825" y="1046"/>
      <point x="699" y="1143"/>
      <point x="578" y="1143" type="qcurve"/>
      <point x="360" y="1143" type="line"/>
    </contour>
  </outline>
</glyph>
<glyph name="C" format="1">
  <advance width="1172"/>
  <unicode hex="0043"/>
  <outline>
    <contour>
      <point x="1099" y="429" type="line"/>
      <point x="1101" y="424" type="line"/>
      <point x="1101" y="226"/>
      <point x="837" y="-21"/>
      <point x="611" y="-21" type="qcurve" smooth="yes"/>
      <point x="383" y="-21"/>
      <point x="96" y="289"/>
      <point x="96" y="530" type="qcurve" smooth="yes"/>
      <point x="96" y="775" type="line"/>
      <point x="96" y="1016"/>
      <point x="380" y="1327"/>
      <point x="605" y="1327" type="qcurve" smooth="yes"/>
      <point x="836" y="1327"/>
      <point x="1099" y="1087"/>
      <point x="1101" y="881" type="qcurve"/>
      <point x="1099" y="875" type="line"/>
      <point x="891" y="875" type="line"/>
      <point x="890" y="1010"/>
      <point x="746" y="1160"/>
      <point x="605" y="1160" type="qcurve" smooth="yes"/>
      <point x="471" y="1160"/>
      <point x="312" y="942"/>
      <point x="312" y="777" type="qcurve" smooth="yes"/>
      <point x="312" y="530" type="line"/>
      <point x="312" y="364"/>
      <point x="474" y="147"/>
      <point x="611" y="147" type="qcurve" smooth="yes"/>
      <point x="748" y="147"/>
      <point x="889" y="293"/>
      <point x="891" y="429" type="qcurve"/>
    </contour>
  </outline>
</glyph>
<glyph name="D" format="1">
  <advance width="1211"/>
  <unicode hex="0044"/>
  <outline>
    <contour>
      <point x="144" y="0" type="line"/>
      <point x="144" y="1310" type="line"/>
      <point x="568" y="1310" type="line"/>
      <point x="818" y="1310"/>
      <point x="1129" y="999"/>
      <point x="1129" y="753" type="qcurve" smooth="yes"/>
      <point x="1129" y="557" type="line"/>
      <point x="1129" y="310"/>
      <point x="818" y="0"/>
      <point x="568" y="0" type="qcurve" smooth="yes"/>
    </contour>
    <contour>
      <point x="360" y="1143" type="line"/>
      <point x="360" y="168" type="line"/>
      <point x="561" y="168" type="line"/>
      <point x="725" y="168"/>
      <point x="913" y="385"/>
      <point x="913" y="557" type="qcurve" smooth="yes"/>
      <point x="913" y="755" type="line"/>
      <point x="913" y="926"/>
      <point x="725" y="1143"/>
      <point x="561" y="1143" type="qcurve" smooth="yes"/>
    </contour>
  </outline>
</glyph>
<glyph name="E" format="1">
  <advance width="1068"/>
  <unicode hex="0045"/>
  <outline>
    <contour>
      <point x="935" y="593" type="line"/>
      <point x="360" y="593" type="line"/>
      <point x="360" y="168" type="line"/>
      <point x="1026" y="168" type="line"/>
      <point x="1026" y="0" type="line"/>
      <point x="144" y="0" type="line"/>
      <point x="144" y="1310" type="line"/>
      <point x="1019" y="1310" type="line"/>
      <point x="1019" y="1143" type="line"/>
      <point x="360" y="1143" type="line"/>
      <point x="360" y="761" type="line"/>
      <point x="935" y="761" type="line"/>
    </contour>
  </outline>
</glyph>
<glyph name="F" format="1">
  <advance width="1070"/>
  <unicode hex="0046"/>
  <outline>
    <contour>
      <point x="936" y="564" type="line"/>
      <point x="360" y="564" type="line"/>
      <point x="360" y="0" type="line"/>
      <point x="144" y="0" type="line"/>
      <point x="144" y="1310" type="line"/>
      <point x="1028" y="1310" type="line"/>
      <point x="1028" y="1143" type="line"/>
      <point x="360" y="1143" type="line"/>
      <point x="360" y="732" type="line"/>
      <point x="936" y="732" type="line"/>
    </contour>
  </outline>
</glyph>
<glyph name="G" format="1">
  <advance width="1245"/>
  <unicode hex="0047"/>
  <outline>
    <contour>
      <point x="1120" y="174" type="line"/>
      <point x="1067" y="100"/>
      <point x="828" y="-21"/>
      <point x="643" y="-21" type="qcurve" smooth="yes"/>
      <point x="405" y="-21"/>
      <point x="99" y="279"/>
      <point x="99" y="517" type="qcurve" smooth="yes"/>
      <point x="99" y="789" type="line"/>
      <point x="99" y="1027"/>
      <point x="388" y="1327"/>
      <point x="616" y="1327" type="qcurve" smooth="yes"/>
      <point x="850" y="1327"/>
      <point x="1106" y="1102"/>
      <point x="1113" y="919" type="qcurve"/>
      <point x="1111" y="914" type="line"/>
      <point x="907" y="914" type="line"/>
      <point x="897" y="1025"/>
      <point x="756" y="1160"/>
      <point x="619" y="1160" type="qcurve" smooth="yes"/>
      <point x="483" y="1160"/>
      <point x="315" y="952"/>
      <point x="315" y="791" type="qcurve" smooth="yes"/>
      <point x="315" y="517" type="line"/>
      <point x="315" y="355"/>
      <point x="497" y="147"/>
      <point x="643" y="147" type="qcurve" smooth="yes"/>
      <point x="745" y="147"/>
      <point x="874" y="196"/>
      <point x="904" y="229" type="qcurve"/>
      <point x="904" y="500" type="line"/>
      <point x="641" y="500" type="line"/>
      <point x="641" y="658" type="line"/>
      <point x="1120" y="658" type="line"/>
    </contour>
  </outline>
</glyph>
<glyph name="H" format="1">
  <advance width="1311"/>
  <unicode hex="0048"/>
  <outline>
    <contour>
      <point x="1166" y="0" type="line"/>
      <point x="951" y="0" type="line"/>
      <point x="951" y="563" type="line"/>
      <point x="360" y="563" type="line"/>
      <point x="360" y="0" type="line"/>
      <point x="144" y="0" type="line"/>
      <point x="144" y="1310" type="line"/>
      <point x="360" y="1310" type="line"/>
      <point x="360" y="731" type="line"/>
      <point x="951" y="731" type="line"/>
      <point x="951" y="1310" type="line"/>
      <point x="1166" y="1310" type="line"/>
    </contour>
  </outline>
</glyph>
<glyph name="I" format="1">
  <advance width="530"/>
  <unicode hex="0049"/>
  <outline>
    <contour>
      <point x="372" y="0" type="line"/>
      <point x="157" y="0" type="line"/>
      <point x="157" y="1310" type="line"/>
      <point x="372" y="1310" type="line"/>
    </contour>
  </outline>
</glyph>
<glyph name="J" format="1">
  <advance width="1033"/>
  <unicode hex="004A"/>
  <outline>
    <contour>
      <point x="681" y="1310" type="line"/>
      <point x="897" y="1310" type="line"/>
      <point x="897" y="377" type="line"/>
      <point x="897" y="195"/>
      <point x="663" y="-19"/>
      <point x="480" y="-19" type="qcurve"/>
      <point x="284" y="-19"/>
      <point x="54" y="177"/>
      <point x="58" y="365" type="qcurve"/>
      <point x="60" y="370" type="line"/>
      <point x="268" y="370" type="line"/>
      <point x="268" y="256"/>
      <point x="381" y="149"/>
      <point x="480" y="149" type="qcurve"/>
      <point x="567" y="149"/>
      <point x="681" y="272"/>
      <point x="681" y="377" type="qcurve"/>
    </contour>
  </outline>
</glyph>
<glyph name="K" format="1">
  <advance width="1190"/>
  <unicode hex="004B"/>
  <outline>
    <contour>
      <point x="511" y="576" type="line"/>
      <point x="372" y="576" type="line"/>
      <point x="372" y="0" type="line"/>
      <point x="157" y="0" type="line"/>
      <point x="157" y="1310" type="line"/>
      <point x="372" y="1310" type="line"/>
      <point x="372" y="744" type="line"/>
      <point x="486" y="744" type="line"/>
      <point x="929" y="1310" type="line"/>
      <point x="1166" y="1310" type="line"/>
      <point x="1170" y="1306" type="line"/>
      <point x="681" y="683" type="line"/>
      <point x="1205" y="5" type="line"/>
      <point x="1202" y="0" type="line"/>
      <point x="945" y="0" type="line"/>
    </contour>
  </outline>
</glyph>
<glyph name="L" format="1">
  <advance width="996"/>
  <unicode hex="004C"/>
  <outline>
    <contour>
      <point x="360" y="168" type="line"/>
      <point x="963" y="168" type="line"/>
      <point x="963" y="0" type="line"/>
      <point x="144" y="0" type="line"/>
      <point x="144" y="1310" type="line"/>
      <point x="360" y="1310" type="line"/>
    </contour>
  </outline>
</glyph>
<glyph name="M" format="1">
  <advance width="1614"/>
  <unicode hex="004D"/>
  <outline>
    <contour>
      <point x="423" y="1310" type="line"/>
      <point x="803" y="290" type="line"/>
      <point x="809" y="290" type="line"/>
      <point x="1190" y="1310" type="line"/>
      <point x="1469" y="1310" type="line"/>
      <point x="1469" y="0" type="line"/>
      <point x="1254" y="0" type="line"/>
      <point x="1254" y="460" type="line"/>
      <point x="1275" y="1013" type="line"/>
      <point x="1270" y="1014" type="line"/>
      <point x="878" y="0" type="line"/>
      <point x="734" y="0" type="line"/>
      <point x="344" y="1009" type="line"/>
      <point x="339" y="1009" type="line"/>
      <point x="360" y="460" type="line"/>
      <point x="360" y="0" type="line"/>
      <point x="144" y="0" type="line"/>
      <point x="144" y="1310" type="line"/>
    </contour>
  </outline>
</glyph>
<glyph name="N" format="1">
  <advance width="1311"/>
  <unicode hex="004E"/>
  <outline>
    <contour>
      <point x="1166" y="0" type="line"/>
      <point x="951" y="0" type="line"/>
      <point x="365" y="960" type="line"/>
      <point x="360" y="958" type="line"/>
      <point x="360" y="0" type="line"/>
      <point x="144" y="0" type="line"/>
      <point x="144" y="1310" type="line"/>
      <point x="360" y="1310" type="line"/>
      <point x="945" y="352" type="line"/>
      <point x="951" y="354" type="line"/>
      <point x="951" y="1310" type="line"/>
      <point x="1166" y="1310" type="line"/>
    </contour>
  </outline>
</glyph>
<glyph name="O" format="1">
  <advance width="1257"/>
  <unicode hex="004F"/>
  <outline>
    <contour>
      <point x="1164" y="538" type="line"/>
      <point x="1164" y="297"/>
      <point x="863" y="-19"/>
      <point x="622" y="-19" type="qcurve"/>
      <point x="387" y="-19"/>
      <point x="93" y="297"/>
      <point x="93" y="538" type="qcurve"/>
      <point x="93" y="772" type="line"/>
      <point x="93" y="1012"/>
      <point x="387" y="1329"/>
      <point x="622" y="1329" type="qcurve"/>
      <point x="862" y="1329"/>
      <point x="1164" y="1013"/>
      <point x="1164" y="772" type="qcurve"/>
    </contour>
    <contour>
      <point x="948" y="774" type="line"/>
      <point x="948" y="942"/>
      <point x="773" y="1157"/>
      <point x="622" y="1157" type="qcurve"/>
      <point x="476" y="1157"/>
      <point x="308" y="942"/>
      <point x="308" y="774" type="qcurve"/>
      <point x="308" y="538" type="line"/>
      <point x="308" y="368"/>
      <point x="477" y="153"/>
      <point x="622" y="153" type="qcurve"/>
      <point x="773" y="153"/>
      <point x="948" y="367"/>
      <point x="948" y="538" type="qcurve"/>
    </contour>
  </outline>
</glyph>
<glyph name="P" format="1">
  <advance width="1190"/>
  <unicode hex="0050"/>
  <outline>
    <contour>
      <point x="360" y="503" type="line"/>
      <point x="360" y="0" type="line"/>
      <point x="144" y="0" type="line"/>
      <point x="144" y="1310" type="line"/>
      <point x="654" y="1310" type="line"/>
      <point x="872" y="1310"/>
      <point x="1116" y="1087"/>
      <point x="1116" y="906" type="qcurve"/>
      <point x="1116" y="723"/>
      <point x="872" y="503"/>
      <point x="654" y="503" type="qcurve"/>
    </contour>
    <contour>
      <point x="360" y="670" type="line"/>
      <point x="654" y="670" type="line"/>
      <point x="777" y="670"/>
      <point x="901" y="803"/>
      <point x="901" y="904" type="qcurve"/>
      <point x="901" y="1007"/>
      <point x="777" y="1143"/>
      <point x="654" y="1143" type="qcurve"/>
      <point x="360" y="1143" type="line"/>
    </contour>
  </outline>
</glyph>
<glyph name="Q" format="1">
  <advance width="1271"/>
  <unicode hex="0051"/>
  <outline>
    <contour>
      <point x="1166" y="538" type="line"/>
      <point x="1166" y="414"/>
      <point x="1081" y="203"/>
      <point x="1004" y="127" type="qcurve"/>
      <point x="1225" y="-83" type="line"/>
      <point x="1085" y="-210" type="line"/>
      <point x="840" y="21" type="line"/>
      <point x="790" y="1"/>
      <point x="682" y="-19"/>
      <point x="624" y="-19" type="qcurve"/>
      <point x="389" y="-19"/>
      <point x="95" y="297"/>
      <point x="95" y="538" type="qcurve"/>
      <point x="95" y="772" type="line"/>
      <point x="95" y="1012"/>
      <point x="389" y="1329"/>
      <point x="624" y="1329" type="qcurve"/>
      <point x="864" y="1329"/>
      <point x="1166" y="1013"/>
      <point x="1166" y="772" type="qcurve"/>
    </contour>
    <contour>
      <point x="950" y="774" type="line"/>
      <point x="950" y="942"/>
      <point x="775" y="1157"/>
      <point x="624" y="1157" type="qcurve"/>
      <point x="478" y="1157"/>
      <point x="310" y="942"/>
      <point x="310" y="774" type="qcurve"/>
      <point x="310" y="538" type="line"/>
      <point x="310" y="368"/>
      <point x="479" y="153"/>
      <point x="624" y="153" type="qcurve"/>
      <point x="776" y="153"/>
      <point x="950" y="367"/>
      <point x="950" y="538" type="qcurve"/>
    </contour>
  </outline>
</glyph>
<glyph name="R" format="1">
  <advance width="1220"/>
  <unicode hex="0052"/>
  <outline>
    <contour>
      <point x="360" y="548" type="line"/>
      <point x="360" y="0" type="line"/>
      <point x="144" y="0" type="line"/>
      <point x="144" y="1310" type="line"/>
      <point x="627" y="1310" type="line"/>
      <point x="846" y="1310"/>
      <point x="1085" y="1113"/>
      <point x="1085" y="931" type="qcurve" smooth="yes"/>
      <point x="1085" y="830"/>
      <point x="979" y="682"/>
      <point x="877" y="637" type="qcurve"/>
      <point x="989" y="603"/>
      <point x="1087" y="444"/>
      <point x="1087" y="327" type="qcurve" smooth="yes"/>
      <point x="1087" y="216" type="line"/>
      <point x="1087" y="157"/>
      <point x="1115" y="50"/>
      <point x="1150" y="21" type="qcurve"/>
      <point x="1150" y="0" type="line"/>
      <point x="927" y="0" type="line"/>
      <point x="892" y="30"/>
      <point x="872" y="155"/>
      <point x="872" y="217" type="qcurve" smooth="yes"/>
      <point x="872" y="325" type="line"/>
      <point x="872" y="428"/>
      <point x="755" y="548"/>
      <point x="653" y="548" type="qcurve" smooth="yes"/>
    </contour>
    <contour>
      <point x="360" y="716" type="line"/>
      <point x="615" y="716" type="line"/>
      <point x="748" y="716"/>
      <point x="870" y="821"/>
      <point x="870" y="927" type="qcurve" smooth="yes"/>
      <point x="870" y="1028"/>
      <point x="750" y="1143"/>
      <point x="627" y="1143" type="qcurve" smooth="yes"/>
      <point x="360" y="1143" type="line"/>
    </contour>
  </outline>
</glyph>
<glyph name="S" format="1">
  <advance width="1154"/>
  <unicode hex="0053"/>
  <outline>
    <contour>
      <point x="853" y="335" type="qcurve"/>
      <point x="853" y="419"/>
      <point x="731" y="527"/>
      <point x="575" y="569" type="qcurve"/>
      <point x="354" y="627"/>
      <point x="120" y="815"/>
      <point x="120" y="968" type="qcurve"/>
      <point x="120" y="1125"/>
      <point x="381" y="1329"/>
      <point x="587" y="1329" type="qcurve"/>
      <point x="803" y="1329"/>
      <point x="1064" y="1097"/>
      <point x="1060" y="935" type="qcurve"/>
      <point x="1058" y="929" type="line"/>
      <point x="851" y="929" type="line"/>
      <point x="851" y="1034"/>
      <point x="713" y="1163"/>
      <point x="585" y="1163" type="qcurve"/>
      <point x="465" y="1163"/>
      <point x="334" y="1055"/>
      <point x="334" y="970" type="qcurve"/>
      <point x="334" y="892"/>
      <point x="473" y="791"/>
      <point x="637" y="746" type="qcurve"/>
      <point x="849" y="690"/>
      <point x="1068" y="492"/>
      <point x="1068" y="337" type="qcurve"/>
      <point x="1068" y="175"/>
      <point x="806" y="-19"/>
      <point x="593" y="-19" type="qcurve"/>
      <point x="389" y="-19"/>
      <point x="80" y="197"/>
      <point x="85" y="385" type="qcurve"/>
      <point x="86" y="390" type="line"/>
      <point x="293" y="390" type="line"/>
      <point x="293" y="268"/>
      <point x="460" y="147"/>
      <point x="593" y="147" type="qcurve"/>
      <point x="715" y="147"/>
      <point x="853" y="249"/>
    </contour>
  </outline>
</glyph>
<glyph name="T" format="1">
  <advance width="1067"/>
  <unicode hex="0054"/>
  <outline>
    <contour>
      <point x="1039" y="1143" type="line"/>
      <point x="641" y="1143" type="line"/>
      <point x="641" y="0" type="line"/>
      <point x="426" y="0" type="line"/>
      <point x="426" y="1143" type="line"/>
      <point x="29" y="1143" type="line"/>
      <point x="29" y="1310" type="line"/>
      <point x="1039" y="1310" type="line"/>
    </contour>
  </outline>
</glyph>
<glyph name="U" format="1">
  <advance width="1255"/>
  <unicode hex="0055"/>
  <outline>
    <contour>
      <point x="1137" y="1310" type="line"/>
      <point x="1137" y="431" type="line"/>
      <point x="1137" y="214"/>
      <point x="853" y="-19"/>
      <point x="624" y="-19" type="qcurve"/>
      <point x="399" y="-19"/>
      <point x="121" y="215"/>
      <point x="121" y="431" type="qcurve"/>
      <point x="121" y="1310" type="line"/>
      <point x="337" y="1310" type="line"/>
      <point x="337" y="431" type="line"/>
      <point x="337" y="291"/>
      <point x="493" y="149"/>
      <point x="624" y="149" type="qcurve"/>
      <point x="759" y="149"/>
      <point x="921" y="291"/>
      <point x="921" y="431" type="qcurve"/>
      <point x="921" y="1310" type="line"/>
    </contour>
  </outline>
</glyph>
<glyph name="V" format="1">
  <advance width="1169"/>
  <unicode hex="0056"/>
  <outline>
    <contour>
      <point x="558" y="335" type="line"/>
      <point x="581" y="248" type="line"/>
      <point x="587" y="248" type="line"/>
      <point x="610" y="334" type="line"/>
      <point x="925" y="1310" type="line"/>
      <point x="1155" y="1310" type="line"/>
      <point x="687" y="0" type="line"/>
      <point x="482" y="0" type="line"/>
      <point x="14" y="1310" type="line"/>
      <point x="244" y="1310" type="line"/>
    </contour>
  </outline>
</glyph>
<glyph name="W" format="1">
  <advance width="1616"/>
  <unicode hex="0057"/>
  <outline>
    <contour>
      <point x="438" y="501" type="line"/>
      <point x="453" y="350" type="line"/>
      <point x="457" y="348" type="line"/>
      <point x="487" y="501" type="line"/>
      <point x="706" y="1310" type="line"/>
      <point x="893" y="1310" type="line"/>
      <point x="1116" y="501" type="line"/>
      <point x="1146" y="343" type="line"/>
      <point x="1151" y="343" type="line"/>
      <point x="1168" y="501" type="line"/>
      <point x="1340" y="1310" type="line"/>
      <point x="1556" y="1310" type="line"/>
      <point x="1251" y="0" type="line"/>
      <point x="1060" y="0" type="line"/>
      <point x="823" y="854" type="line"/>
      <point x="806" y="968" type="line"/>
      <point x="800" y="968" type="line"/>
      <point x="783" y="854" type="line"/>
      <point x="540" y="0" type="line"/>
      <point x="351" y="0" type="line"/>
      <point x="47" y="1310" type="line"/>
      <point x="260" y="1310" type="line"/>
    </contour>
  </outline>
</glyph>
<glyph name="X" format="1">
  <advance width="1169"/>
  <unicode hex="0058"/>
  <outline>
    <contour>
      <point x="584" y="820" type="line"/>
      <point x="863" y="1310" type="line"/>
      <point x="1119" y="1310" type="line"/>
      <point x="715" y="661" type="line"/>
      <point x="1134" y="0" type="line"/>
      <point x="875" y="0" type="line"/>
      <point x="588" y="499" type="line"/>
      <point x="301" y="0" type="line"/>
      <point x="45" y="0" type="line"/>
      <point x="458" y="661" type="line"/>
      <point x="55" y="1310" type="line"/>
      <point x="308" y="1310" type="line"/>
    </contour>
  </outline>
</glyph>
<glyph name="Y" format="1">
  <advance width="1141"/>
  <unicode hex="0059"/>
  <outline>
    <contour>
      <point x="0" y="0" type="line"/>
      <point x="1141" y="0" type="line"/>
      <point x="1141" y="20" type="line"/>
      <point x="0" y="20" type="line"/>
    </contour>
  </outline>
</glyph>
<glyph name="Z" format="1">
  <advance width="1095"/>
  <unicode hex="005A"/>
  <outline>
    <contour>
      <point x="331" y="168" type="line"/>
      <point x="1023" y="168" type="line"/>
      <point x="1023" y="0" type="line"/>
      <point x="79" y="0" type="line"/>
      <point x="79" y="133" type="line"/>
      <point x="745" y="1143" type="line"/>
      <point x="85" y="1143" type="line"/>
      <point x="85" y="1310" type="line"/>
      <point x="1000" y="1310" type="line"/>
      <point x="1000" y="1183" type="line"/>
    </contour>
  </outline>
</glyph>
<glyph name="bracketleft" format="1">
  <advance width="722"/>
  <unicode hex="005B"/>
  <outline>
    <contour>
      <point x="567" y="1345" type="line"/>
      <point x="416" y="1345" type="line"/>
      <point x="416" y="-127" type="line"/>
      <point x="567" y="-127" type="line"/>
      <point x="567" y="-291" type="line"/>
      <point x="201" y="-291" type="line"/>
      <point x="201" y="1509" type="line"/>
      <point x="567" y="1509" type="line"/>
    </contour>
  </outline>
</glyph>
<glyph name="backslash" format="1">
  <advance width="768"/>
  <unicode hex="005C"/>
  <outline>
    <contour>
      <point x="20" y="1298" type="line"/>
      <point x="229" y="1298" type="line"/>
      <point x="776" y="-125" type="line"/>
      <point x="567" y="-125" type="line"/>
    </contour>
  </outline>
</glyph>
<glyph name="bracketright" format="1">
  <advance width="723"/>
  <unicode hex="005D"/>
  <outline>
    <contour>
      <point x="156" y="1509" type="line"/>
      <point x="522" y="1509" type="line"/>
      <point x="522" y="-291" type="line"/>
      <point x="156" y="-291" type="line"/>
      <point x="156" y="-127" type="line"/>
      <point x="307" y="-127" type="line"/>
      <point x="307" y="1345" type="line"/>
      <point x="156" y="1345" type="line"/>
    </contour>
  </outline>
</glyph>
<glyph name="asciicircum" format="1">
  <advance width="786"/>
  <unicode hex="005E"/>
  <outline>
    <contour>
      <point x="232" y="729" type="line"/>
      <point x="48" y="729" type="line"/>
      <point x="317" y="1383" type="line"/>
      <point x="469" y="1383" type="line"/>
      <point x="738" y="729" type="line"/>
      <point x="555" y="729" type="line"/>
      <point x="406" y="1105" type="line"/>
      <point x="395" y="1153" type="line"/>
      <point x="390" y="1153" type="line"/>
      <point x="378" y="1105" type="line"/>
    </contour>
  </outline>
</glyph>
<glyph name="underscore" format="1">
  <advance width="831"/>
  <unicode hex="005F"/>
  <outline>
    <contour>
      <point x="828" y="-183" type="line"/>
      <point x="3" y="-183" type="line"/>
      <point x="3" y="-18" type="line"/>
      <point x="828" y="-18" type="line"/>
    </contour>
  </outline>
</glyph>
<glyph name="grave" format="1">
  <advance width="592"/>
  <unicode hex="0060"/>
  <outline>
    <contour>
      <point x="479" y="1211" type="line"/>
      <point x="305" y="1211" type="line"/>
      <point x="72" y="1445" type="line"/>
      <point x="74" y="1450" type="line"/>
      <point x="313" y="1450" type="line"/>
    </contour>
  </outline>
</glyph>
<glyph name="a" format="1">
  <advance width="1002"/>
  <unicode hex="0061"/>
  <outline>
    <contour>
      <point x="703" y="0" type="line"/>
      <point x="693" y="38"/>
      <point x="680" y="103"/>
      <point x="677" y="136" type="qcurve"/>
      <point x="629" y="69"/>
      <point x="481" y="-19"/>
      <point x="391" y="-19" type="qcurve"/>
      <point x="243" y="-19"/>
      <point x="79" y="138"/>
      <point x="79" y="274" type="qcurve"/>
      <point x="79" y="415"/>
      <point x="302" y="573"/>
      <point x="504" y="573" type="qcurve"/>
      <point x="672" y="573" type="line"/>
      <point x="672" y="661" type="line"/>
      <point x="672" y="739"/>
      <point x="581" y="829"/>
      <point x="497" y="829" type="qcurve"/>
      <point x="421" y="829"/>
      <point x="330" y="753"/>
      <point x="330" y="695" type="qcurve"/>
      <point x="124" y="695" type="line"/>
      <point x="122" y="700" type="line"/>
      <point x="117" y="814"/>
      <point x="334" y="992"/>
      <point x="509" y="992" type="qcurve"/>
      <point x="679" y="992"/>
      <point x="888" y="820"/>
      <point x="888" y="659" type="qcurve"/>
      <point x="888" y="220" type="line"/>
      <point x="888" y="161"/>
      <point x="903" y="53"/>
      <point x="921" y="0" type="qcurve"/>
    </contour>
    <contour>
      <point x="437" y="150" type="qcurve"/>
      <point x="517" y="150"/>
      <point x="649" y="231"/>
      <point x="672" y="283" type="qcurve"/>
      <point x="672" y="440" type="line"/>
      <point x="500" y="440" type="line"/>
      <point x="403" y="440"/>
      <point x="294" y="344"/>
      <point x="294" y="276" type="qcurve"/>
      <point x="294" y="218"/>
      <point x="368" y="150"/>
    </contour>
  </outline>
</glyph>
<glyph name="b" format="1">
  <advance width="1044"/>
  <unicode hex="0062"/>
  <outline>
    <contour>
      <point x="968" y="453" type="line"/>
      <point x="968" y="239"/>
      <point x="770" y="-21"/>
      <point x="590" y="-21" type="qcurve" smooth="yes"/>
      <point x="498" y="-21"/>
      <point x="363" y="52"/>
      <point x="318" y="123" type="qcurve"/>
      <point x="297" y="-2" type="line"/>
      <point x="116" y="-2" type="line"/>
      <point x="116" y="1402" type="line"/>
      <point x="332" y="1402" type="line"/>
      <point x="332" y="863" type="line"/>
      <point x="376" y="924"/>
      <point x="503" y="990"/>
      <point x="588" y="990" type="qcurve" smooth="yes"/>
      <point x="770" y="990"/>
      <point x="968" y="706"/>
      <point x="968" y="472" type="qcurve" smooth="yes"/>
    </contour>
    <contour>
      <point x="754" y="472" type="line"/>
      <point x="754" y="628"/>
      <point x="648" y="819"/>
      <point x="533" y="819" type="qcurve" smooth="yes"/>
      <point x="461" y="819"/>
      <point x="361" y="752"/>
      <point x="332" y="694" type="qcurve"/>
      <point x="332" y="276" type="line"/>
      <point x="362" y="216"/>
      <point x="460" y="150"/>
      <point x="535" y="150" type="qcurve" smooth="yes"/>
      <point x="650" y="150"/>
      <point x="754" y="312"/>
      <point x="754" y="453" type="qcurve" smooth="yes"/>
    </contour>
  </outline>
</glyph>
<glyph name="c" format="1">
  <advance width="967"/>
  <unicode hex="0063"/>
  <outline>
    <contour>
      <point x="518" y="147" type="qcurve" smooth="yes"/>
      <point x="598" y="147"/>
      <point x="710" y="243"/>
      <point x="710" y="317" type="qcurve"/>
      <point x="905" y="317" type="line"/>
      <point x="907" y="312" type="line"/>
      <point x="911" y="176"/>
      <point x="680" y="-21"/>
      <point x="518" y="-21" type="qcurve" smooth="yes"/>
      <point x="303" y="-21"/>
      <point x="73" y="255"/>
      <point x="73" y="468" type="qcurve" smooth="yes"/>
      <point x="73" y="501" type="line"/>
      <point x="73" y="712"/>
      <point x="303" y="990"/>
      <point x="518" y="990" type="qcurve" smooth="yes"/>
      <point x="693" y="990"/>
      <point x="911" y="787"/>
      <point x="907" y="630" type="qcurve"/>
      <point x="905" y="625" type="line"/>
      <point x="710" y="625" type="line"/>
      <point x="710" y="708"/>
      <point x="603" y="822"/>
      <point x="518" y="822" type="qcurve" smooth="yes"/>
      <point x="393" y="822"/>
      <point x="289" y="639"/>
      <point x="289" y="501" type="qcurve" smooth="yes"/>
      <point x="289" y="468" type="line"/>
      <point x="289" y="328"/>
      <point x="393" y="147"/>
    </contour>
  </outline>
</glyph>
<glyph name="d" format="1">
  <advance width="1044"/>
  <unicode hex="0064"/>
  <outline>
    <contour>
      <point x="75" y="472" type="line"/>
      <point x="75" y="705"/>
      <point x="276" y="990"/>
      <point x="457" y="990" type="qcurve" smooth="yes"/>
      <point x="536" y="990"/>
      <point x="662" y="927"/>
      <point x="707" y="867" type="qcurve"/>
      <point x="707" y="1402" type="line"/>
      <point x="923" y="1402" type="line"/>
      <point x="923" y="-2" type="line"/>
      <point x="743" y="-2" type="line"/>
      <point x="721" y="118" type="line"/>
      <point x="674" y="49"/>
      <point x="542" y="-21"/>
      <point x="455" y="-21" type="qcurve" smooth="yes"/>
      <point x="276" y="-21"/>
      <point x="75" y="239"/>
      <point x="75" y="453" type="qcurve" smooth="yes"/>
    </contour>
    <contour>
      <point x="291" y="453" type="line"/>
      <point x="291" y="314"/>
      <point x="396" y="150"/>
      <point x="509" y="150" type="qcurve" smooth="yes"/>
      <point x="579" y="150"/>
      <point x="677" y="211"/>
      <point x="707" y="267" type="qcurve"/>
      <point x="707" y="703" type="line"/>
      <point x="677" y="757"/>
      <point x="579" y="819"/>
      <point x="511" y="819" type="qcurve" smooth="yes"/>
      <point x="398" y="819"/>
      <point x="291" y="626"/>
      <point x="291" y="472" type="qcurve" smooth="yes"/>
    </contour>
  </outline>
</glyph>
<glyph name="e" format="1">
  <advance width="975"/>
  <unicode hex="0065"/>
  <outline>
    <contour>
      <point x="532" y="-19" type="qcurve"/>
      <point x="325" y="-19"/>
      <point x="80" y="252"/>
      <point x="80" y="464" type="qcurve"/>
      <point x="80" y="502" type="line"/>
      <point x="80" y="714"/>
      <point x="324" y="992"/>
      <point x="507" y="992" type="qcurve"/>
      <point x="704" y="992"/>
      <point x="912" y="754"/>
      <point x="912" y="555" type="qcurve"/>
      <point x="912" y="429" type="line"/>
      <point x="304" y="429" type="line"/>
      <point x="301" y="425" type="line"/>
      <point x="306" y="304"/>
      <point x="432" y="149"/>
      <point x="545" y="149" type="qcurve"/>
      <point x="634" y="149"/>
      <point x="760" y="192"/>
      <point x="818" y="234" type="qcurve"/>
      <point x="888" y="98" type="line"/>
      <point x="833" y="47"/>
      <point x="652" y="-19"/>
    </contour>
    <contour>
      <point x="507" y="824" type="qcurve"/>
      <point x="425" y="824"/>
      <point x="317" y="691"/>
      <point x="305" y="588" type="qcurve"/>
      <point x="307" y="583" type="line"/>
      <point x="699" y="583" type="line"/>
      <point x="699" y="606" type="line"/>
      <point x="699" y="702"/>
      <point x="603" y="824"/>
    </contour>
  </outline>
</glyph>
<glyph name="f" format="1">
  <advance width="646"/>
  <unicode hex="0066"/>
  <outline>
    <contour>
      <point x="187" y="0" type="line"/>
      <point x="187" y="818" type="line"/>
      <point x="38" y="818" type="line"/>
      <point x="38" y="974" type="line"/>
      <point x="187" y="974" type="line"/>
      <point x="187" y="1090" type="line"/>
      <point x="187" y="1250"/>
      <point x="361" y="1423"/>
      <point x="519" y="1423" type="qcurve" smooth="yes"/>
      <point x="551" y="1423"/>
      <point x="616" y="1413"/>
      <point x="656" y="1404" type="qcurve"/>
      <point x="634" y="1242" type="line"/>
      <point x="615" y="1246"/>
      <point x="571" y="1251"/>
      <point x="545" y="1251" type="qcurve" smooth="yes"/>
      <point x="474" y="1251"/>
      <point x="403" y="1169"/>
      <point x="403" y="1090" type="qcurve" smooth="yes"/>
      <point x="403" y="974" type="line"/>
      <point x="601" y="974" type="line"/>
      <point x="601" y="818" type="line"/>
      <point x="403" y="818" type="line"/>
      <point x="403" y="0" type="line"/>
    </contour>
  </outline>
</glyph>
<glyph name="g" format="1">
  <advance width="1044"/>
  <unicode hex="0067"/>
  <outline>
    <contour>
      <point x="77" y="474" type="line"/>
      <point x="77" y="707"/>
      <point x="280" y="992"/>
      <point x="461" y="992" type="qcurve"/>
      <point x="549" y="992"/>
      <point x="682" y="918"/>
      <point x="728" y="848" type="qcurve"/>
      <point x="749" y="974" type="line"/>
      <point x="928" y="974" type="line"/>
      <point x="928" y="8" type="line"/>
      <point x="928" y="-183"/>
      <point x="695" y="-393"/>
      <point x="483" y="-393" type="qcurve"/>
      <point x="412" y="-393"/>
      <point x="248" y="-354"/>
      <point x="182" y="-320" type="qcurve"/>
      <point x="228" y="-156" type="line"/>
      <point x="281" y="-184"/>
      <point x="412" y="-216"/>
      <point x="481" y="-216" type="qcurve"/>
      <point x="600" y="-216"/>
      <point x="713" y="-103"/>
      <point x="713" y="9" type="qcurve"/>
      <point x="713" y="100" type="line"/>
      <point x="667" y="41"/>
      <point x="541" y="-19"/>
      <point x="459" y="-19" type="qcurve"/>
      <point x="279" y="-19"/>
      <point x="77" y="242"/>
      <point x="77" y="455" type="qcurve"/>
    </contour>
    <contour>
      <point x="292" y="455" type="line"/>
      <point x="292" y="316"/>
      <point x="399" y="152"/>
      <point x="513" y="152" type="qcurve"/>
      <point x="584" y="152"/>
      <point x="681" y="212"/>
      <point x="713" y="269" type="qcurve"/>
      <point x="713" y="705" type="line"/>
      <point x="682" y="759"/>
      <point x="584" y="821"/>
      <point x="515" y="821" type="qcurve"/>
      <point x="401" y="821"/>
      <point x="292" y="627"/>
      <point x="292" y="474" type="qcurve"/>
    </contour>
  </outline>
</glyph>
<glyph name="h" format="1">
  <advance width="1044"/>
  <unicode hex="0068"/>
  <outline>
    <contour>
      <point x="329" y="846" type="line"/>
      <point x="377" y="916"/>
      <point x="518" y="992"/>
      <point x="603" y="992" type="qcurve" smooth="yes"/>
      <point x="758" y="992"/>
      <point x="931" y="798"/>
      <point x="931" y="595" type="qcurve" smooth="yes"/>
      <point x="931" y="0" type="line"/>
      <point x="716" y="0" type="line"/>
      <point x="716" y="597" type="line"/>
      <point x="716" y="715"/>
      <point x="623" y="821"/>
      <point x="530" y="821" type="qcurve" smooth="yes"/>
      <point x="465" y="821"/>
      <point x="362" y="765"/>
      <point x="329" y="716" type="qcurve"/>
      <point x="329" y="0" type="line"/>
      <point x="113" y="0" type="line"/>
      <point x="113" y="1404" type="line"/>
      <point x="329" y="1404" type="line"/>
    </contour>
  </outline>
</glyph>
<glyph name="j" format="1">
  <advance width="482"/>
  <unicode hex="006A"/>
  <outline>
    <contour>
      <point x="356" y="930" type="line"/>
      <point x="356" y="-104" type="line"/>
      <point x="356" y="-264"/>
      <point x="189" y="-437"/>
      <point x="41" y="-437" type="qcurve" smooth="yes"/>
      <point x="9" y="-437"/>
      <point x="-43" y="-429"/>
      <point x="-73" y="-421" type="qcurve"/>
      <point x="-60" y="-254" type="line"/>
      <point x="-43" y="-260"/>
      <point x="1" y="-265"/>
      <point x="20" y="-265" type="qcurve" smooth="yes"/>
      <point x="75" y="-265"/>
      <point x="140" y="-188"/>
      <point x="140" y="-104" type="qcurve" smooth="yes"/>
      <point x="140" y="930" type="line"/>
    </contour>
    <contour>
      <point x="351" y="1175" type="line"/>
      <point x="134" y="1175" type="line"/>
      <point x="134" y="1360" type="line"/>
      <point x="351" y="1360" type="line"/>
    </contour>
  </outline>
</glyph>
<glyph name="k" format="1">
  <advance width="964"/>
  <unicode hex="006B"/>
  <outline>
    <contour>
      <point x="428" y="430" type="line"/>
      <point x="332" y="430" type="line"/>
      <point x="332" y="0" type="line"/>
      <point x="117" y="0" type="line"/>
      <point x="117" y="1404" type="line"/>
      <point x="332" y="1404" type="line"/>
      <point x="332" y="598" type="line"/>
      <point x="423" y="598" type="line"/>
      <point x="673" y="974" type="line"/>
      <point x="925" y="974" type="line"/>
      <point x="602" y="532" type="line"/>
      <point x="973" y="0" type="line"/>
      <point x="723" y="0" type="line"/>
    </contour>
  </outline>
</glyph>
<glyph name="m" format="1">
  <advance width="1610"/>
  <unicode hex="006D"/>
  <outline>
    <contour>
      <point x="308" y="974" type="line"/>
      <point x="317" y="820" type="line"/>
      <point x="362" y="902"/>
      <point x="511" y="992"/>
      <point x="611" y="992" type="qcurve" smooth="yes"/>
      <point x="714" y="992"/>
      <point x="855" y="896"/>
      <point x="886" y="796" type="qcurve"/>
      <point x="929" y="889"/>
      <point x="1083" y="992"/>
      <point x="1190" y="992" type="qcurve" smooth="yes"/>
      <point x="1339" y="992"/>
      <point x="1503" y="792"/>
      <point x="1503" y="580" type="qcurve" smooth="yes"/>
      <point x="1503" y="0" type="line"/>
      <point x="1288" y="0" type="line"/>
      <point x="1288" y="581" type="line"/>
      <point x="1288" y="717"/>
      <point x="1197" y="823"/>
      <point x="1115" y="823" type="qcurve" smooth="yes"/>
      <point x="1032" y="823"/>
      <point x="933" y="737"/>
      <point x="910" y="667" type="qcurve"/>
      <point x="910" y="651"/>
      <point x="912" y="628"/>
      <point x="912" y="616" type="qcurve" smooth="yes"/>
      <point x="912" y="0" type="line"/>
      <point x="697" y="0" type="line"/>
      <point x="697" y="580" type="line"/>
      <point x="697" y="717"/>
      <point x="607" y="823"/>
      <point x="523" y="823" type="qcurve" smooth="yes"/>
      <point x="444" y="823"/>
      <point x="345" y="740"/>
      <point x="322" y="672" type="qcurve"/>
      <point x="322" y="0" type="line"/>
      <point x="107" y="0" type="line"/>
      <point x="107" y="974" type="line"/>
    </contour>
  </outline>
</glyph>
<glyph name="n" format="1">
  <advance width="1044"/>
  <unicode hex="006E"/>
  <outline>
    <contour>
      <point x="311" y="974" type="line"/>
      <point x="323" y="831" type="line"/>
      <point x="371" y="907"/>
      <point x="516" y="992"/>
      <point x="608" y="992" type="qcurve"/>
      <point x="761" y="992"/>
      <point x="930" y="807"/>
      <point x="930" y="612" type="qcurve"/>
      <point x="930" y="0" type="line"/>
      <point x="715" y="0" type="line"/>
      <point x="715" y="609" type="line"/>
      <point x="715" y="724"/>
      <point x="623" y="821"/>
      <point x="529" y="821" type="qcurve"/>
      <point x="463" y="821"/>
      <point x="361" y="760"/>
      <point x="329" y="707" type="qcurve"/>
      <point x="329" y="0" type="line"/>
      <point x="115" y="0" type="line"/>
      <point x="115" y="974" type="line"/>
    </contour>
  </outline>
</glyph>
<glyph name="o" format="1">
  <advance width="1044"/>
  <unicode hex="006F"/>
  <outline>
    <contour>
      <point x="75" y="496" type="line"/>
      <point x="75" y="713"/>
      <point x="313" y="992"/>
      <point x="521" y="992" type="qcurve"/>
      <point x="729" y="992"/>
      <point x="968" y="714"/>
      <point x="968" y="496" type="qcurve"/>
      <point x="968" y="476" type="line"/>
      <point x="968" y="257"/>
      <point x="730" y="-19"/>
      <point x="522" y="-19" type="qcurve"/>
      <point x="314" y="-19"/>
      <point x="75" y="258"/>
      <point x="75" y="476" type="qcurve"/>
    </contour>
    <contour>
      <point x="291" y="476" type="line"/>
      <point x="291" y="331"/>
      <point x="405" y="149"/>
      <point x="522" y="149" type="qcurve"/>
      <point x="638" y="149"/>
      <point x="753" y="331"/>
      <point x="753" y="476" type="qcurve"/>
      <point x="753" y="496" type="line"/>
      <point x="753" y="639"/>
      <point x="637" y="824"/>
      <point x="521" y="824" type="qcurve"/>
      <point x="405" y="824"/>
      <point x="291" y="639"/>
      <point x="291" y="496" type="qcurve"/>
    </contour>
  </outline>
</glyph>
<glyph name="p" format="1">
  <advance width="1044"/>
  <unicode hex="0070"/>
  <outline>
    <contour>
      <point x="968" y="413" type="line"/>
      <point x="968" y="200"/>
      <point x="767" y="-60"/>
      <point x="589" y="-60" type="qcurve" smooth="yes"/>
      <point x="505" y="-60"/>
      <point x="377" y="-2"/>
      <point x="332" y="56" type="qcurve"/>
      <point x="332" y="-416" type="line"/>
      <point x="116" y="-416" type="line"/>
      <point x="116" y="932" type="line"/>
      <point x="297" y="932" type="line"/>
      <point x="320" y="812" type="line"/>
      <point x="365" y="879"/>
      <point x="498" y="950"/>
      <point x="586" y="950" type="qcurve" smooth="yes"/>
      <point x="767" y="950"/>
      <point x="968" y="665"/>
      <point x="968" y="432" type="qcurve" smooth="yes"/>
    </contour>
    <contour>
      <point x="752" y="432" type="line"/>
      <point x="752" y="585"/>
      <point x="640" y="779"/>
      <point x="527" y="779" type="qcurve" smooth="yes"/>
      <point x="458" y="779"/>
      <point x="361" y="719"/>
      <point x="332" y="667" type="qcurve"/>
      <point x="332" y="215" type="line"/>
      <point x="361" y="163"/>
      <point x="458" y="107"/>
      <point x="529" y="107" type="qcurve" smooth="yes"/>
      <point x="641" y="107"/>
      <point x="752" y="276"/>
      <point x="752" y="413" type="qcurve" smooth="yes"/>
    </contour>
  </outline>
</glyph>
<glyph name="q" format="1">
  <advance width="1044"/>
  <unicode hex="0071"/>
  <outline>
    <contour>
      <point x="75" y="474" type="line"/>
      <point x="75" y="707"/>
      <point x="276" y="992"/>
      <point x="457" y="992" type="qcurve"/>
      <point x="542" y="992"/>
      <point x="672" y="923"/>
      <point x="717" y="857" type="qcurve"/>
      <point x="743" y="974" type="line"/>
      <point x="916" y="974" type="line"/>
      <point x="916" y="-374" type="line"/>
      <point x="701" y="-374" type="line"/>
      <point x="701" y="91" type="line"/>
      <point x="656" y="37"/>
      <point x="533" y="-19"/>
      <point x="455" y="-19" type="qcurve"/>
      <point x="276" y="-19"/>
      <point x="75" y="241"/>
      <point x="75" y="455" type="qcurve"/>
    </contour>
    <contour>
      <point x="291" y="455" type="line"/>
      <point x="291" y="316"/>
      <point x="397" y="149"/>
      <point x="509" y="149" type="qcurve"/>
      <point x="576" y="149"/>
      <point x="670" y="203"/>
      <point x="701" y="254" type="qcurve"/>
      <point x="701" y="719" type="line"/>
      <point x="670" y="768"/>
      <point x="576" y="824"/>
      <point x="511" y="824" type="qcurve"/>
      <point x="398" y="824"/>
      <point x="291" y="628"/>
      <point x="291" y="474" type="qcurve"/>
    </contour>
  </outline>
</glyph>
<glyph name="r" format="1">
  <advance width="647"/>
  <unicode hex="0072"/>
  <outline>
    <contour>
      <point x="604" y="784" type="line"/>
      <point x="507" y="788" type="line"/>
      <point x="442" y="788"/>
      <point x="355" y="731"/>
      <point x="332" y="679" type="qcurve"/>
      <point x="332" y="0" type="line"/>
      <point x="116" y="0" type="line"/>
      <point x="116" y="974" type="line"/>
      <point x="313" y="974" type="line"/>
      <point x="328" y="832" type="line"/>
      <point x="366" y="907"/>
      <point x="481" y="992"/>
      <point x="557" y="992" type="qcurve" smooth="yes"/>
      <point x="577" y="992"/>
      <point x="616" y="986"/>
      <point x="630" y="982" type="qcurve"/>
    </contour>
  </outline>
</glyph>
<glyph name="s" format="1">
  <advance width="958"/>
  <unicode hex="0073"/>
  <outline>
    <contour>
      <point x="665" y="261" type="qcurve" smooth="yes"/>
      <point x="665" y="313"/>
      <point x="578" y="382"/>
      <point x="459" y="409" type="qcurve" smooth="yes"/>
      <point x="283" y="446"/>
      <point x="106" y="580"/>
      <point x="106" y="697" type="qcurve" smooth="yes"/>
      <point x="106" y="819"/>
      <point x="312" y="990"/>
      <point x="481" y="990" type="qcurve" smooth="yes"/>
      <point x="658" y="990"/>
      <point x="868" y="815"/>
      <point x="863" y="686" type="qcurve"/>
      <point x="861" y="681" type="line"/>
      <point x="654" y="681" type="line"/>
      <point x="654" y="744"/>
      <point x="562" y="832"/>
      <point x="481" y="832" type="qcurve" smooth="yes"/>
      <point x="400" y="832"/>
      <point x="316" y="758"/>
      <point x="316" y="705" type="qcurve" smooth="yes"/>
      <point x="316" y="653"/>
      <point x="395" y="591"/>
      <point x="516" y="566" type="qcurve" smooth="yes"/>
      <point x="699" y="528"/>
      <point x="877" y="391"/>
      <point x="877" y="273" type="qcurve" smooth="yes"/>
      <point x="877" y="142"/>
      <point x="659" y="-21"/>
      <point x="484" y="-21" type="qcurve" smooth="yes"/>
      <point x="294" y="-21"/>
      <point x="75" y="172"/>
      <point x="80" y="297" type="qcurve"/>
      <point x="82" y="302" type="line"/>
      <point x="283" y="302" type="line"/>
      <point x="287" y="216"/>
      <point x="402" y="137"/>
      <point x="486" y="137" type="qcurve" smooth="yes"/>
      <point x="571" y="137"/>
      <point x="665" y="204"/>
    </contour>
  </outline>
</glyph>
<glyph name="t" format="1">
  <advance width="646"/>
  <unicode hex="0074"/>
  <outline>
    <contour>
      <point x="388" y="1209" type="line"/>
      <point x="388" y="972" type="line"/>
      <point x="566" y="972" type="line"/>
      <point x="566" y="816" type="line"/>
      <point x="388" y="816" type="line"/>
      <point x="388" y="269" type="line"/>
      <point x="388" y="206"/>
      <point x="440" y="153"/>
      <point x="484" y="153" type="qcurve" smooth="yes"/>
      <point x="504" y="153"/>
      <point x="539" y="158"/>
      <point x="557" y="164" type="qcurve"/>
      <point x="580" y="11" type="line"/>
      <point x="550" y="-3"/>
      <point x="473" y="-21"/>
      <point x="429" y="-21" type="qcurve" smooth="yes"/>
      <point x="309" y="-21"/>
      <point x="172" y="119"/>
      <point x="172" y="268" type="qcurve" smooth="yes"/>
      <point x="172" y="816" type="line"/>
      <point x="24" y="816" type="line"/>
      <point x="24" y="972" type="line"/>
      <point x="172" y="972" type="line"/>
      <point x="172" y="1209" type="line"/>
    </contour>
  </outline>
</glyph>
<glyph name="u" format="1">
  <advance width="1044"/>
  <unicode hex="0075"/>
  <outline>
    <contour>
      <point x="724" y="135" type="line"/>
      <point x="678" y="61"/>
      <point x="536" y="-19"/>
      <point x="445" y="-19" type="qcurve"/>
      <point x="287" y="-19"/>
      <point x="111" y="181"/>
      <point x="111" y="394" type="qcurve"/>
      <point x="111" y="974" type="line"/>
      <point x="326" y="974" type="line"/>
      <point x="326" y="392" type="line"/>
      <point x="326" y="258"/>
      <point x="409" y="152"/>
      <point x="494" y="152" type="qcurve"/>
      <point x="576" y="152"/>
      <point x="684" y="214"/>
      <point x="714" y="271" type="qcurve"/>
      <point x="714" y="974" type="line"/>
      <point x="929" y="974" type="line"/>
      <point x="929" y="0" type="line"/>
      <point x="738" y="0" type="line"/>
    </contour>
  </outline>
</glyph>
<glyph name="v" format="1">
  <advance width="933"/>
  <unicode hex="0076"/>
  <outline>
    <contour>
      <point x="453" y="321" type="line"/>
      <point x="469" y="243" type="line"/>
      <point x="474" y="242" type="line"/>
      <point x="492" y="321" type="line"/>
      <point x="688" y="974" type="line"/>
      <point x="910" y="974" type="line"/>
      <point x="564" y="0" type="line"/>
      <point x="378" y="0" type="line"/>
      <point x="29" y="974" type="line"/>
      <point x="252" y="974" type="line"/>
    </contour>
  </outline>
</glyph>
<glyph name="w" format="1">
  <advance width="1395"/>
  <unicode hex="0077"/>
  <outline>
    <contour>
      <point x="393" y="377" type="line"/>
      <point x="405" y="284" type="line"/>
      <point x="410" y="284" type="line"/>
      <point x="423" y="377" type="line"/>
      <point x="611" y="974" type="line"/>
      <point x="781" y="974" type="line"/>
      <point x="969" y="377" type="line"/>
      <point x="986" y="266" type="line"/>
      <point x="992" y="265" type="line"/>
      <point x="1011" y="377" type="line"/>
      <point x="1150" y="974" type="line"/>
      <point x="1362" y="974" type="line"/>
      <point x="1079" y="0" type="line"/>
      <point x="908" y="0" type="line"/>
      <point x="735" y="551" type="line"/>
      <point x="696" y="718" type="line"/>
      <point x="690" y="717" type="line"/>
      <point x="655" y="551" type="line"/>
      <point x="484" y="0" type="line"/>
      <point x="313" y="0" type="line"/>
      <point x="31" y="974" type="line"/>
      <point x="243" y="974" type="line"/>
    </contour>
  </outline>
</glyph>
<glyph name="x" format="1">
  <advance width="941"/>
  <unicode hex="0078"/>
  <outline>
    <contour>
      <point x="465" y="637" type="line"/>
      <point x="641" y="974" type="line"/>
      <point x="891" y="974" type="line"/>
      <point x="583" y="490" type="line"/>
      <point x="898" y="0" type="line"/>
      <point x="652" y="0" type="line"/>
      <point x="470" y="341" type="line"/>
      <point x="288" y="0" type="line"/>
      <point x="38" y="0" type="line"/>
      <point x="353" y="490" type="line"/>
      <point x="45" y="974" type="line"/>
      <point x="293" y="974" type="line"/>
    </contour>
  </outline>
</glyph>
<glyph name="y" format="1">
  <advance width="933"/>
  <unicode hex="0079"/>
  <outline>
    <contour>
      <point x="438" y="338" type="line"/>
      <point x="460" y="250" type="line"/>
      <point x="466" y="250" type="line"/>
      <point x="681" y="930" type="line"/>
      <point x="917" y="930" type="line"/>
      <point x="514" y="-192" type="line"/>
      <point x="474" y="-293"/>
      <point x="335" y="-437"/>
      <point x="207" y="-437" type="qcurve" smooth="yes"/>
      <point x="179" y="-437"/>
      <point x="118" y="-427"/>
      <point x="89" y="-420" type="qcurve"/>
      <point x="113" y="-257" type="line"/>
      <point x="113" y="-257"/>
      <point x="169" y="-262"/>
      <point x="179" y="-262" type="qcurve" smooth="yes"/>
      <point x="240" y="-262"/>
      <point x="311" y="-179"/>
      <point x="333" y="-123" type="qcurve" smooth="yes"/>
      <point x="369" y="-33" type="line"/>
      <point x="15" y="930" type="line"/>
      <point x="250" y="930" type="line"/>
    </contour>
  </outline>
</glyph>
<glyph name="z" format="1">
  <advance width="933"/>
  <unicode hex="007A"/>
  <outline>
    <contour>
      <point x="340" y="168" type="line"/>
      <point x="867" y="168" type="line"/>
      <point x="867" y="0" type="line"/>
      <point x="77" y="0" type="line"/>
      <point x="77" y="138" type="line"/>
      <point x="575" y="805" type="line"/>
      <point x="87" y="805" type="line"/>
      <point x="87" y="974" type="line"/>
      <point x="843" y="974" type="line"/>
      <point x="843" y="840" type="line"/>
    </contour>
  </outline>
</glyph>
<glyph name="braceleft" format="1">
  <advance width="841"/>
  <unicode hex="007B"/>
  <outline>
    <contour>
      <point x="630" y="-327" type="line"/>
      <point x="454" y="-277"/>
      <point x="307" y="-61"/>
      <point x="307" y="92" type="qcurve"/>
      <point x="307" y="276" type="line"/>
      <point x="307" y="372"/>
      <point x="220" y="479"/>
      <point x="132" y="479" type="qcurve"/>
      <point x="132" y="632" type="line"/>
      <point x="220" y="632"/>
      <point x="307" y="738"/>
      <point x="307" y="834" type="qcurve"/>
      <point x="307" y="1019" type="line"/>
      <point x="307" y="1173"/>
      <point x="454" y="1388"/>
      <point x="630" y="1437" type="qcurve"/>
      <point x="672" y="1316" type="line"/>
      <point x="584" y="1286"/>
      <point x="510" y="1133"/>
      <point x="510" y="1019" type="qcurve"/>
      <point x="510" y="834" type="line"/>
      <point x="510" y="740"/>
      <point x="432" y="596"/>
      <point x="353" y="555" type="qcurve"/>
      <point x="432" y="514"/>
      <point x="510" y="369"/>
      <point x="510" y="276" type="qcurve"/>
      <point x="510" y="92" type="line"/>
      <point x="510" y="-21"/>
      <point x="584" y="-174"/>
      <point x="672" y="-204" type="qcurve"/>
    </contour>
  </outline>
</glyph>
<glyph name="asciitilde" format="1">
  <advance width="1226"/>
  <unicode hex="007E"/>
  <outline>
    <contour>
      <point x="1120" y="713" type="line"/>
      <point x="1120" y="579"/>
      <point x="962" y="391"/>
      <point x="843" y="391" type="qcurve" smooth="yes"/>
      <point x="764" y="391"/>
      <point x="633" y="449"/>
      <point x="559" y="514" type="qcurve" smooth="yes"/>
      <point x="509" y="556"/>
      <point x="430" y="596"/>
      <point x="387" y="596" type="qcurve" smooth="yes"/>
      <point x="334" y="596"/>
      <point x="257" y="502"/>
      <point x="257" y="436" type="qcurve"/>
      <point x="106" y="455" type="line"/>
      <point x="106" y="588"/>
      <point x="261" y="771"/>
      <point x="381" y="771" type="qcurve" smooth="yes"/>
      <point x="459" y="771"/>
      <point x="594" y="710"/>
      <point x="667" y="649" type="qcurve" smooth="yes"/>
      <point x="715" y="605"/>
      <point x="793" y="566"/>
      <point x="837" y="566" type="qcurve" smooth="yes"/>
      <point x="890" y="566"/>
      <point x="968" y="665"/>
      <point x="968" y="733" type="qcurve"/>
    </contour>
  </outline>
</glyph>
<glyph name="exclamdown" format="1">
  <advance width="481"/>
  <unicode hex="00A1"/>
  <outline>
    <contour>
      <point x="153" y="563" type="line"/>
      <point x="333" y="563" type="line"/>
      <point x="353" y="-364" type="line"/>
      <point x="133" y="-364" type="line"/>
    </contour>
    <contour>
      <point x="360" y="843" type="qcurve" smooth="yes"/>
      <point x="360" y="795"/>
      <point x="296" y="730"/>
      <point x="241" y="730" type="qcurve" smooth="yes" name="inserted"/>
      <point x="185" y="730"/>
      <point x="121" y="795"/>
      <point x="121" y="843" type="qcurve" smooth="yes" name="inserted"/>
      <point x="121" y="891"/>
      <point x="185" y="955"/>
      <point x="241" y="955" type="qcurve" smooth="yes" name="inserted"/>
      <point x="296" y="955"/>
      <point x="360" y="891"/>
    </contour>
  </outline>
</glyph>
<glyph name="cent" format="1">
  <advance width="1011"/>
  <unicode hex="00A2"/>
  <outline>
    <contour>
      <point x="530" y="119" type="qcurve" smooth="yes"/>
      <point x="607" y="119"/>
      <point x="729" y="219"/>
      <point x="736" y="285" type="qcurve"/>
      <point x="926" y="285" type="line"/>
      <point x="921" y="179"/>
      <point x="747" y="-5"/>
      <point x="619" y="-33" type="qcurve"/>
      <point x="619" y="-245" type="line"/>
      <point x="419" y="-245" type="line"/>
      <point x="419" y="-32" type="line"/>
      <point x="261" y="5"/>
      <point x="87" y="259"/>
      <point x="87" y="450" type="qcurve" smooth="yes"/>
      <point x="87" y="481" type="line"/>
      <point x="87" y="665"/>
      <point x="262" y="921"/>
      <point x="419" y="956" type="qcurve"/>
      <point x="419" y="1162" type="line"/>
      <point x="619" y="1162" type="line"/>
      <point x="619" y="960" type="line"/>
      <point x="751" y="935"/>
      <point x="921" y="743"/>
      <point x="926" y="611" type="qcurve"/>
      <point x="736" y="611" type="line"/>
      <point x="729" y="694"/>
      <point x="613" y="805"/>
      <point x="530" y="805" type="qcurve" smooth="yes"/>
      <point x="415" y="805"/>
      <point x="289" y="637"/>
      <point x="289" y="475" type="qcurve" smooth="yes"/>
      <point x="289" y="444" type="line"/>
      <point x="289" y="286"/>
      <point x="415" y="119"/>
    </contour>
  </outline>
</glyph>
<glyph name="sterling" format="1">
  <advance width="1082"/>
  <unicode hex="00A3"/>
  <outline>
    <contour>
      <point x="451" y="544" type="line"/>
      <point x="457" y="375" type="line"/>
      <point x="457" y="311" name="inserted"/>
      <point x="429" y="209"/>
      <point x="402" y="172" type="qcurve"/>
      <point x="1028" y="172" type="line"/>
      <point x="1027" y="0" type="line"/>
      <point x="89" y="0" type="line"/>
      <point x="89" y="172" type="line"/>
      <point x="165" y="172" type="line"/>
      <point x="198" y="179"/>
      <point x="238" y="276"/>
      <point x="239" y="349" type="qcurve" smooth="yes"/>
      <point x="240" y="368" type="line"/>
      <point x="233" y="544" type="line"/>
      <point x="85" y="544" type="line"/>
      <point x="85" y="713" type="line"/>
      <point x="228" y="713" type="line"/>
      <point x="220" y="935" type="line"/>
      <point x="220" y="1116"/>
      <point x="440" y="1328"/>
      <point x="623" y="1328" type="qcurve" smooth="yes"/>
      <point x="803" y="1328"/>
      <point x="1011" y="1133"/>
      <point x="1011" y="968" type="qcurve"/>
      <point x="801" y="968" type="line"/>
      <point x="801" y="1057"/>
      <point x="703" y="1156"/>
      <point x="615" y="1156" type="qcurve" smooth="yes"/>
      <point x="535" y="1156"/>
      <point x="437" y="1037"/>
      <point x="437" y="935" type="qcurve" smooth="yes"/>
      <point x="445" y="713" type="line"/>
      <point x="728" y="713" type="line"/>
      <point x="728" y="544" type="line"/>
    </contour>
  </outline>
</glyph>
<glyph name="currency" format="1">
  <advance width="1303"/>
  <unicode hex="00A4"/>
  <outline>
    <contour>
      <point x="978" y="86" type="line"/>
      <point x="906" y="32"/>
      <point x="749" y="-21"/>
      <point x="659" y="-21" type="qcurve" smooth="yes" name="inserted"/>
      <point x="570" y="-21"/>
      <point x="414" y="31"/>
      <point x="343" y="84" type="qcurve"/>
      <point x="234" y="-26" type="line"/>
      <point x="93" y="121" type="line"/>
      <point x="207" y="237" type="line"/>
      <point x="165" y="305" name="inserted"/>
      <point x="124" y="459"/>
      <point x="124" y="545" type="qcurve" smooth="yes"/>
      <point x="124" y="632" name="inserted"/>
      <point x="168" y="790"/>
      <point x="213" y="862" type="qcurve"/>
      <point x="93" y="987" type="line"/>
      <point x="234" y="1135" type="line"/>
      <point x="355" y="1011" type="line"/>
      <point x="424" y="1060" name="inserted"/>
      <point x="576" y="1108"/>
      <point x="659" y="1108" type="qcurve" smooth="yes"/>
      <point x="742" y="1108"/>
      <point x="893" y="1060"/>
      <point x="965" y="1011" type="qcurve"/>
      <point x="1088" y="1136" type="line"/>
      <point x="1232" y="987" type="line"/>
      <point x="1107" y="859" type="line"/>
      <point x="1151" y="788" name="inserted"/>
      <point x="1195" y="631"/>
      <point x="1195" y="545" type="qcurve" smooth="yes"/>
      <point x="1195" y="461" name="inserted"/>
      <point x="1154" y="310"/>
      <point x="1113" y="240" type="qcurve"/>
      <point x="1232" y="121" type="line"/>
      <point x="1088" y="-27" type="line"/>
    </contour>
    <contour>
      <point x="309" y="545" type="qcurve" smooth="yes"/>
      <point x="309" y="442"/>
      <point x="403" y="266"/>
      <point x="485" y="216" type="qcurve" smooth="yes" name="inserted"/>
      <point x="583" y="155" name="inserted"/>
      <point x="810" y="165"/>
      <point x="905" y="238" type="qcurve" smooth="yes"/>
      <point x="982" y="309"/>
      <point x="1046" y="515"/>
      <point x="1026" y="623" type="qcurve" smooth="yes" name="inserted"/>
      <point x="1016" y="746" name="inserted"/>
      <point x="875" y="955"/>
      <point x="759" y="1005" type="qcurve" smooth="yes"/>
      <point x="702" y="999"/>
      <point x="618" y="963"/>
      <point x="587" y="942" type="qcurve" smooth="yes" name="inserted"/>
      <point x="488" y="921"/>
      <point x="336" y="781"/>
      <point x="303" y="678" type="qcurve" smooth="yes" name="inserted"/>
      <point x="304" y="636"/>
      <point x="309" y="574"/>
    </contour>
  </outline>
</glyph>
<glyph name="yen" format="1">
  <advance width="1121"/>
  <unicode hex="00A5"/>
  <outline>
    <contour>
      <point x="558" y="730" type="line"/>
      <point x="851" y="1310" type="line"/>
      <point x="1091" y="1310" type="line"/>
      <point x="730" y="664" type="line"/>
      <point x="982" y="664" type="line"/>
      <point x="982" y="534" type="line"/>
      <point x="662" y="534" type="line"/>
      <point x="662" y="403" type="line"/>
      <point x="982" y="403" type="line"/>
      <point x="982" y="274" type="line"/>
      <point x="662" y="274" type="line"/>
      <point x="662" y="0" type="line"/>
      <point x="447" y="0" type="line"/>
      <point x="447" y="274" type="line"/>
      <point x="122" y="274" type="line"/>
      <point x="122" y="403" type="line"/>
      <point x="447" y="403" type="line"/>
      <point x="447" y="534" type="line"/>
      <point x="122" y="534" type="line"/>
      <point x="122" y="664" type="line"/>
      <point x="385" y="664" type="line"/>
      <point x="24" y="1310" type="line"/>
      <point x="265" y="1310" type="line"/>
    </contour>
  </outline>
</glyph>
<glyph name="brokenbar" format="1">
  <advance width="451"/>
  <unicode hex="00A6"/>
  <outline>
    <contour>
      <point x="125" y="-270" type="line"/>
      <point x="125" y="443" type="line"/>
      <point x="321" y="443" type="line"/>
      <point x="321" y="-270" type="line"/>
    </contour>
    <contour>
      <point x="321" y="601" type="line"/>
      <point x="125" y="601" type="line"/>
      <point x="125" y="1283" type="line"/>
      <point x="321" y="1283" type="line"/>
    </contour>
  </outline>
</glyph>
<glyph name="section" format="1">
  <advance width="1142"/>
  <unicode hex="00A7"/>
  <outline>
    <contour>
      <point x="0" y="0" type="line"/>
      <point x="1142" y="0" type="line"/>
      <point x="1142" y="20" type="line"/>
      <point x="0" y="20" type="line"/>
    </contour>
  </outline>
</glyph>
<glyph name="dieresis" format="1">
  <advance width="813"/>
  <unicode hex="00A8"/>
  <outline>
    <contour>
      <point x="130" y="1393" type="qcurve" smooth="yes"/>
      <point x="147" y="1422"/>
      <point x="205" y="1440"/>
      <point x="240" y="1425" type="qcurve" smooth="yes" name="inserted"/>
      <point x="274" y="1410"/>
      <point x="285" y="1350"/>
      <point x="268" y="1322" type="qcurve" smooth="yes" name="inserted"/>
      <point x="251" y="1294"/>
      <point x="193" y="1277"/>
      <point x="158" y="1292" type="qcurve" smooth="yes" name="inserted"/>
      <point x="124" y="1307"/>
      <point x="113" y="1365"/>
    </contour>
    <contour>
      <point x="541" y="1393" type="qcurve" smooth="yes"/>
      <point x="558" y="1421"/>
      <point x="616" y="1439"/>
      <point x="651" y="1424" type="qcurve" smooth="yes" name="inserted"/>
      <point x="685" y="1409"/>
      <point x="696" y="1349"/>
      <point x="679" y="1321" type="qcurve" smooth="yes" name="inserted"/>
      <point x="662" y="1292"/>
      <point x="604" y="1275"/>
      <point x="569" y="1290" type="qcurve" smooth="yes" name="inserted"/>
      <point x="535" y="1305"/>
      <point x="524" y="1364"/>
    </contour>
  </outline>
</glyph>
<glyph name="copyright" format="1">
  <advance width="1445"/>
  <unicode hex="00A9"/>
  <outline>
    <contour>
      <point x="999" y="536" type="line"/>
      <point x="1001" y="531" type="line"/>
      <point x="1004" y="395"/>
      <point x="846" y="254"/>
      <point x="705" y="254" type="qcurve"/>
      <point x="561" y="254"/>
      <point x="391" y="445"/>
      <point x="391" y="602" type="qcurve"/>
      <point x="391" y="709" type="line"/>
      <point x="391" y="865"/>
      <point x="561" y="1057"/>
      <point x="705" y="1057" type="qcurve"/>
      <point x="846" y="1057"/>
      <point x="1005" y="915"/>
      <point x="1002" y="781" type="qcurve"/>
      <point x="1000" y="776" type="line"/>
      <point x="868" y="776" type="line"/>
      <point x="868" y="860"/>
      <point x="786" y="939"/>
      <point x="705" y="939" type="qcurve"/>
      <point x="620" y="939"/>
      <point x="529" y="813"/>
      <point x="529" y="710" type="qcurve"/>
      <point x="529" y="602" type="line"/>
      <point x="529" y="498"/>
      <point x="620" y="372"/>
      <point x="705" y="372" type="qcurve"/>
      <point x="786" y="372"/>
      <point x="867" y="449"/>
      <point x="867" y="536" type="qcurve"/>
    </contour>
    <contour>
      <point x="187" y="656" type="qcurve"/>
      <point x="187" y="418"/>
      <point x="496" y="91"/>
      <point x="717" y="91" type="qcurve"/>
      <point x="938" y="91"/>
      <point x="1247" y="418"/>
      <point x="1247" y="656" type="qcurve"/>
      <point x="1247" y="893"/>
      <point x="938" y="1218"/>
      <point x="717" y="1218" type="qcurve"/>
      <point x="496" y="1218"/>
      <point x="187" y="893"/>
    </contour>
    <contour>
      <point x="78" y="656" type="qcurve"/>
      <point x="78" y="940"/>
      <point x="451" y="1328"/>
      <point x="717" y="1328" type="qcurve"/>
      <point x="983" y="1328"/>
      <point x="1355" y="940"/>
      <point x="1355" y="656" type="qcurve"/>
      <point x="1355" y="372"/>
      <point x="982" y="-19"/>
      <point x="717" y="-19" type="qcurve"/>
      <point x="451" y="-19"/>
      <point x="78" y="372"/>
    </contour>
  </outline>
</glyph>
<glyph name="ordfeminine" format="1">
  <advance width="821"/>
  <unicode hex="00AA"/>
  <outline>
    <contour>
      <point x="551" y="704" type="line"/>
      <point x="547" y="718" name="inserted"/>
      <point x="539" y="750"/>
      <point x="536" y="767" type="qcurve"/>
      <point x="501" y="729"/>
      <point x="410" y="691"/>
      <point x="352" y="691" type="qcurve" smooth="yes"/>
      <point x="246" y="691"/>
      <point x="128" y="803"/>
      <point x="128" y="895" type="qcurve" smooth="yes"/>
      <point x="128" y="995"/>
      <point x="279" y="1103"/>
      <point x="434" y="1103" type="qcurve" smooth="yes"/>
      <point x="530" y="1103" type="line"/>
      <point x="530" y="1150" type="line"/>
      <point x="530" y="1210"/>
      <point x="475" y="1270"/>
      <point x="420" y="1270" type="qcurve" smooth="yes"/>
      <point x="360" y="1270"/>
      <point x="290" y="1222"/>
      <point x="290" y="1176" type="qcurve"/>
      <point x="142" y="1188" type="line"/>
      <point x="142" y="1281"/>
      <point x="298" y="1398"/>
      <point x="420" y="1398" type="qcurve" smooth="yes"/>
      <point x="541" y="1398"/>
      <point x="680" y="1269"/>
      <point x="680" y="1148" type="qcurve" smooth="yes"/>
      <point x="680" y="864" type="line"/>
      <point x="680" y="820" name="inserted"/>
      <point x="692" y="740"/>
      <point x="703" y="704" type="qcurve"/>
    </contour>
    <contour>
      <point x="389" y="816" type="qcurve" smooth="yes"/>
      <point x="427" y="816"/>
      <point x="505" y="851"/>
      <point x="530" y="875" type="qcurve"/>
      <point x="530" y="1001" type="line"/>
      <point x="431" y="1001" type="line"/>
      <point x="358" y="1001" name="inserted"/>
      <point x="278" y="945"/>
      <point x="278" y="899" type="qcurve" smooth="yes"/>
      <point x="278" y="858" name="inserted"/>
      <point x="334" y="816"/>
    </contour>
  </outline>
</glyph>
<glyph name="logicalnot" format="1">
  <advance width="1018"/>
  <unicode hex="00AC"/>
  <outline>
    <contour>
      <point x="863" y="375" type="line"/>
      <point x="692" y="375" type="line"/>
      <point x="692" y="612" type="line"/>
      <point x="114" y="612" type="line"/>
      <point x="114" y="759" type="line"/>
      <point x="863" y="759" type="line"/>
    </contour>
  </outline>
</glyph>
<glyph name="macron" format="1">
  <advance width="879"/>
  <unicode hex="00AF"/>
  <outline>
    <contour>
      <point x="768" y="1305" type="line"/>
      <point x="119" y="1305" type="line"/>
      <point x="119" y="1442" type="line"/>
      <point x="768" y="1442" type="line"/>
    </contour>
  </outline>
</glyph>
<glyph name="degree" format="1">
  <advance width="702"/>
  <unicode hex="00B0"/>
  <outline>
    <contour>
      <point x="116" y="1183" type="qcurve" smooth="yes"/>
      <point x="116" y="1281"/>
      <point x="255" y="1423"/>
      <point x="352" y="1423" type="qcurve" smooth="yes"/>
      <point x="448" y="1423"/>
      <point x="584" y="1281"/>
      <point x="584" y="1183" type="qcurve" smooth="yes"/>
      <point x="584" y="1085"/>
      <point x="448" y="947"/>
      <point x="352" y="947" type="qcurve" smooth="yes"/>
      <point x="255" y="947"/>
      <point x="116" y="1085"/>
    </contour>
    <contour>
      <point x="352" y="1069" type="qcurve" smooth="yes"/>
      <point x="400" y="1069"/>
      <point x="466" y="1134"/>
      <point x="466" y="1183" type="qcurve" smooth="yes"/>
      <point x="466" y="1234"/>
      <point x="400" y="1302"/>
      <point x="352" y="1302" type="qcurve" smooth="yes"/>
      <point x="303" y="1302"/>
      <point x="237" y="1232"/>
      <point x="237" y="1183" type="qcurve" smooth="yes"/>
      <point x="237" y="1135"/>
      <point x="304" y="1069"/>
    </contour>
  </outline>
</glyph>
<glyph name="plusminus" format="1">
  <advance width="987"/>
  <unicode hex="00B1"/>
  <outline>
    <contour>
      <point x="595" y="801" type="line"/>
      <point x="908" y="801" type="line"/>
      <point x="908" y="633" type="line"/>
      <point x="595" y="633" type="line"/>
      <point x="595" y="278" type="line"/>
      <point x="410" y="278" type="line"/>
      <point x="410" y="633" type="line"/>
      <point x="84" y="633" type="line"/>
      <point x="84" y="801" type="line"/>
      <point x="410" y="801" type="line"/>
      <point x="410" y="1147" type="line"/>
      <point x="595" y="1147" type="line"/>
    </contour>
    <contour>
      <point x="875" y="0" type="line"/>
      <point x="112" y="0" type="line"/>
      <point x="112" y="168" type="line"/>
      <point x="875" y="168" type="line"/>
    </contour>
  </outline>
</glyph>
<glyph name="acute" format="1">
  <advance width="591"/>
  <unicode hex="00B4"/>
  <outline>
    <contour>
      <point x="276" y="1505" type="line"/>
      <point x="514" y="1505" type="line"/>
      <point x="270" y="1235" type="line"/>
      <point x="102" y="1235" type="line"/>
    </contour>
  </outline>
</glyph>
<glyph name="uni00B5" format="1">
  <advance width="1085"/>
  <unicode hex="00B5"/>
  <outline>
    <contour>
      <point x="340" y="932" type="line"/>
      <point x="340" y="363" type="line"/>
      <point x="341" y="231"/>
      <point x="426" y="106"/>
      <point x="523" y="106" type="qcurve" smooth="yes"/>
      <point x="603" y="106"/>
      <point x="710" y="166"/>
      <point x="737" y="226" type="qcurve"/>
      <point x="737" y="932" type="line"/>
      <point x="944" y="932" type="line"/>
      <point x="944" y="-42" type="line"/>
      <point x="754" y="-42" type="line"/>
      <point x="747" y="45" type="line"/>
      <point x="705" y="-7" name="inserted"/>
      <point x="595" y="-60"/>
      <point x="524" y="-60" type="qcurve" smooth="yes"/>
      <point x="467" y="-60"/>
      <point x="375" y="-32"/>
      <point x="340" y="-5" type="qcurve"/>
      <point x="340" y="-416" type="line"/>
      <point x="133" y="-416" type="line"/>
      <point x="133" y="932" type="line"/>
    </contour>
  </outline>
</glyph>
<glyph name="periodcentered" format="1">
  <advance width="514"/>
  <unicode hex="00B7"/>
  <outline>
    <contour>
      <point x="180" y="749" type="qcurve" smooth="yes"/>
      <point x="202" y="779"/>
      <point x="267" y="794"/>
      <point x="302" y="774" type="qcurve" smooth="yes" name="inserted"/>
      <point x="338" y="754"/>
      <point x="347" y="688"/>
      <point x="325" y="657" type="qcurve" smooth="yes" name="inserted"/>
      <point x="303" y="628"/>
      <point x="237" y="614"/>
      <point x="202" y="634" type="qcurve" smooth="yes" name="inserted"/>
      <point x="166" y="654"/>
      <point x="158" y="719"/>
    </contour>
  </outline>
</glyph>
<glyph name="cedilla" format="1">
  <advance width="473"/>
  <unicode hex="00B8"/>
  <outline>
    <contour>
      <point x="281" y="-42" type="line"/>
      <point x="270" y="-91" type="line"/>
      <point x="339" y="-103" name="inserted"/>
      <point x="407" y="-181"/>
      <point x="407" y="-247" type="qcurve" smooth="yes"/>
      <point x="407" y="-339"/>
      <point x="253" y="-446"/>
      <point x="115" y="-446" type="qcurve"/>
      <point x="109" y="-329" type="line"/>
      <point x="171" y="-329"/>
      <point x="237" y="-285"/>
      <point x="237" y="-246" type="qcurve" smooth="yes"/>
      <point x="237" y="-207"/>
      <point x="180" y="-173"/>
      <point x="99" y="-166" type="qcurve"/>
      <point x="127" y="-42" type="line"/>
    </contour>
  </outline>
</glyph>
<glyph name="ordmasculine" format="1">
  <advance width="840"/>
  <unicode hex="00BA"/>
  <outline>
    <contour>
      <point x="109" y="1079" type="line"/>
      <point x="109" y="1222"/>
      <point x="278" y="1397"/>
      <point x="418" y="1397" type="qcurve" smooth="yes" name="inserted"/>
      <point x="557" y="1397"/>
      <point x="727" y="1224"/>
      <point x="727" y="1074" type="qcurve" smooth="yes"/>
      <point x="727" y="1008" type="line"/>
      <point x="727" y="865"/>
      <point x="559" y="690"/>
      <point x="419" y="690" type="qcurve" smooth="yes"/>
      <point x="280" y="690"/>
      <point x="109" y="865"/>
      <point x="109" y="1013" type="qcurve" smooth="yes"/>
    </contour>
    <contour>
      <point x="259" y="1008" type="line"/>
      <point x="259" y="919"/>
      <point x="345" y="817"/>
      <point x="419" y="817" type="qcurve" smooth="yes"/>
      <point x="493" y="817"/>
      <point x="577" y="919"/>
      <point x="578" y="1009" type="qcurve" smooth="yes"/>
      <point x="578" y="1079" type="line"/>
      <point x="578" y="1168"/>
      <point x="491" y="1269"/>
      <point x="418" y="1269" type="qcurve" smooth="yes"/>
      <point x="346" y="1269"/>
      <point x="260" y="1170"/>
      <point x="259" y="1082" type="qcurve" smooth="yes"/>
    </contour>
  </outline>
</glyph>
<glyph name="questiondown" format="1">
  <advance width="892"/>
  <unicode hex="00BF"/>
  <outline>
    <contour>
      <point x="0" y="0" type="line"/>
      <point x="892" y="0" type="line"/>
      <point x="892" y="20" type="line"/>
      <point x="0" y="20" type="line"/>
    </contour>
  </outline>
</glyph>
<glyph name="AE" format="1">
  <advance width="1726"/>
  <unicode hex="00C6"/>
  <outline>
    <contour>
      <point x="1684" y="0" type="line"/>
      <point x="885" y="0" type="line"/>
      <point x="872" y="311" type="line"/>
      <point x="413" y="311" type="line"/>
      <point x="243" y="0" type="line"/>
      <point x="-5" y="0" type="line"/>
      <point x="748" y="1310" type="line"/>
      <point x="1628" y="1310" type="line"/>
      <point x="1628" y="1144" type="line"/>
      <point x="1044" y="1144" type="line"/>
      <point x="1060" y="761" type="line"/>
      <point x="1555" y="761" type="line"/>
      <point x="1555" y="595" type="line"/>
      <point x="1068" y="595" type="line"/>
      <point x="1086" y="167" type="line"/>
      <point x="1684" y="167" type="line"/>
    </contour>
    <contour>
      <point x="511" y="494" type="line"/>
      <point x="865" y="494" type="line"/>
      <point x="839" y="1087" type="line"/>
    </contour>
  </outline>
</glyph>
<glyph name="Eth" format="1">
  <advance width="1231"/>
  <unicode hex="00D0"/>
  <outline>
    <contour>
      <point x="163" y="0" type="line"/>
      <point x="163" y="591" type="line"/>
      <point x="15" y="591" type="line"/>
      <point x="15" y="737" type="line"/>
      <point x="163" y="737" type="line"/>
      <point x="163" y="1310" type="line"/>
      <point x="549" y="1310" type="line"/>
      <point x="721" y="1310"/>
      <point x="988" y="1157"/>
      <point x="1061" y="1017" type="qcurve" smooth="yes" name="inserted"/>
      <point x="1098" y="946" name="inserted"/>
      <point x="1135" y="786"/>
      <point x="1136" y="696" type="qcurve" smooth="yes"/>
      <point x="1136" y="619" type="line"/>
      <point x="1136" y="435"/>
      <point x="990" y="154"/>
      <point x="855" y="78" type="qcurve" smooth="yes" name="inserted"/>
      <point x="788" y="40" name="inserted"/>
      <point x="634" y="1"/>
      <point x="547" y="0" type="qcurve" smooth="yes"/>
    </contour>
    <contour>
      <point x="613" y="591" type="line"/>
      <point x="379" y="591" type="line"/>
      <point x="379" y="172" type="line"/>
      <point x="539" y="172" type="line"/>
      <point x="720" y="172"/>
      <point x="918" y="403"/>
      <point x="919" y="617" type="qcurve" smooth="yes"/>
      <point x="919" y="692" type="line"/>
      <point x="919" y="906"/>
      <point x="729" y="1136"/>
      <point x="552" y="1138" type="qcurve" smooth="yes"/>
      <point x="379" y="1138" type="line"/>
      <point x="379" y="737" type="line"/>
      <point x="613" y="737" type="line"/>
    </contour>
  </outline>
</glyph>
<glyph name="multiply" format="1">
  <advance width="983"/>
  <unicode hex="00D7"/>
  <outline>
    <contour>
      <point x="70" y="346" type="line"/>
      <point x="357" y="638" type="line"/>
      <point x="70" y="932" type="line"/>
      <point x="201" y="1060" type="line"/>
      <point x="486" y="770" type="line"/>
      <point x="771" y="1060" type="line"/>
      <point x="903" y="932" type="line"/>
      <point x="615" y="638" type="line"/>
      <point x="903" y="346" type="line"/>
      <point x="771" y="217" type="line"/>
      <point x="486" y="507" type="line"/>
      <point x="201" y="217" type="line"/>
    </contour>
  </outline>
</glyph>
<glyph name="Oslash" format="1">
  <advance width="1267"/>
  <unicode hex="00D8"/>
  <outline>
    <contour>
      <point x="1178" y="609" type="line"/>
      <point x="1178" y="416"/>
      <point x="1045" y="126"/>
      <point x="922" y="49" type="qcurve" smooth="yes" name="inserted"/>
      <point x="860" y="11" name="inserted"/>
      <point x="719" y="-27"/>
      <point x="639" y="-27" type="qcurve" smooth="yes"/>
      <point x="563" y="-27" name="inserted"/>
      <point x="428" y="8"/>
      <point x="369" y="42" type="qcurve"/>
      <point x="286" y="-94" type="line"/>
      <point x="141" y="-94" type="line"/>
      <point x="270" y="118" type="line"/>
      <point x="183" y="205" name="inserted"/>
      <point x="96" y="455"/>
      <point x="96" y="616" type="qcurve" smooth="yes"/>
      <point x="96" y="682" type="line"/>
      <point x="96" y="872"/>
      <point x="231" y="1163"/>
      <point x="354" y="1241" type="qcurve" smooth="yes" name="inserted"/>
      <point x="416" y="1280" name="inserted"/>
      <point x="557" y="1319"/>
      <point x="637" y="1319" type="qcurve" smooth="yes"/>
      <point x="725" y="1319" name="inserted"/>
      <point x="878" y="1271"/>
      <point x="943" y="1223" type="qcurve"/>
      <point x="1023" y="1356" type="line"/>
      <point x="1168" y="1356" type="line"/>
      <point x="1036" y="1138" type="line"/>
      <point x="1106" y="1052" name="inserted"/>
      <point x="1177" y="825"/>
      <point x="1178" y="685" type="qcurve" smooth="yes"/>
    </contour>
    <contour>
      <point x="464" y="625" type="line"/>
      <point x="464" y="566" name="inserted"/>
      <point x="491" y="476"/>
      <point x="518" y="444" type="qcurve"/>
      <point x="766" y="828" type="line"/>
      <point x="742" y="856" name="inserted"/>
      <point x="677" y="885"/>
      <point x="637" y="885" type="qcurve" smooth="yes"/>
      <point x="559" y="885"/>
      <point x="466" y="772"/>
      <point x="464" y="674" type="qcurve" smooth="yes"/>
    </contour>
    <contour>
      <point x="810" y="667" type="line"/>
      <point x="810" y="707" name="inserted"/>
      <point x="796" y="775"/>
      <point x="782" y="803" type="qcurve"/>
      <point x="542" y="434" type="line"/>
      <point x="563" y="419" name="inserted"/>
      <point x="611" y="405"/>
      <point x="638" y="405" type="qcurve" smooth="yes"/>
      <point x="717" y="405"/>
      <point x="808" y="516"/>
      <point x="810" y="617" type="qcurve" smooth="yes"/>
    </contour>
  </outline>
</glyph>
<glyph name="Thorn" format="1">
  <advance width="1104"/>
  <unicode hex="00DE"/>
  <outline>
    <contour>
      <point x="345" y="1310" type="line"/>
      <point x="345" y="1056" type="line"/>
      <point x="576" y="1056" type="line"/>
      <point x="714" y="1056"/>
      <point x="921" y="959"/>
      <point x="976" y="870" type="qcurve" smooth="yes" name="inserted"/>
      <point x="1004" y="825" name="inserted"/>
      <point x="1031" y="723"/>
      <point x="1031" y="664" type="qcurve" smooth="yes"/>
      <point x="1031" y="486"/>
      <point x="785" y="273"/>
      <point x="572" y="272" type="qcurve" smooth="yes"/>
      <point x="345" y="272" type="line"/>
      <point x="345" y="0" type="line"/>
      <point x="136" y="0" type="line"/>
      <point x="136" y="1310" type="line"/>
    </contour>
    <contour>
      <point x="345" y="890" type="line"/>
      <point x="345" y="439" type="line"/>
      <point x="573" y="439" type="line"/>
      <point x="690" y="439"/>
      <point x="823" y="561"/>
      <point x="823" y="662" type="qcurve" smooth="yes"/>
      <point x="823" y="766"/>
      <point x="690" y="890"/>
      <point x="577" y="890" type="qcurve" smooth="yes"/>
    </contour>
  </outline>
</glyph>
<glyph name="germandbls" format="1">
  <advance width="1126"/>
  <unicode hex="00DF"/>
  <outline>
    <contour>
      <point x="332" y="-2" type="line"/>
      <point x="124" y="-2" type="line"/>
      <point x="124" y="995" type="line"/>
      <point x="124" y="1185"/>
      <point x="326" y="1399"/>
      <point x="510" y="1399" type="qcurve" smooth="yes"/>
      <point x="677" y="1399"/>
      <point x="867" y="1230"/>
      <point x="867" y="1083" type="qcurve" smooth="yes"/>
      <point x="867" y="976"/>
      <point x="761" y="806"/>
      <point x="761" y="740" type="qcurve" smooth="yes"/>
      <point x="761" y="699"/>
      <point x="821" y="621"/>
      <point x="903" y="554" type="qcurve" smooth="yes" name="inserted"/>
      <point x="982" y="490"/>
      <point x="1055" y="365"/>
      <point x="1055" y="297" type="qcurve" smooth="yes"/>
      <point x="1055" y="146"/>
      <point x="860" y="-20"/>
      <point x="684" y="-20" type="qcurve" smooth="yes"/>
      <point x="613" y="-20"/>
      <point x="458" y="15"/>
      <point x="423" y="39" type="qcurve"/>
      <point x="465" y="205" type="line"/>
      <point x="508" y="179"/>
      <point x="622" y="145"/>
      <point x="672" y="145" type="qcurve" smooth="yes"/>
      <point x="755" y="145"/>
      <point x="848" y="223"/>
      <point x="848" y="290" type="qcurve" smooth="yes"/>
      <point x="848" y="334"/>
      <point x="788" y="414"/>
      <point x="707" y="479" type="qcurve" smooth="yes" name="inserted"/>
      <point x="626" y="544"/>
      <point x="553" y="665"/>
      <point x="553" y="736" type="qcurve" smooth="yes"/>
      <point x="553" y="820"/>
      <point x="666" y="995"/>
      <point x="666" y="1070" type="qcurve" smooth="yes"/>
      <point x="666" y="1145"/>
      <point x="578" y="1233"/>
      <point x="507" y="1233" type="qcurve" smooth="yes"/>
      <point x="418" y="1233" name="inserted"/>
      <point x="332" y="1112"/>
      <point x="332" y="992" type="qcurve" smooth="yes"/>
    </contour>
  </outline>
</glyph>
<glyph name="ae" format="1">
  <advance width="1556"/>
  <unicode hex="00E6"/>
  <outline>
    <contour>
      <point x="1129" y="-20" type="qcurve" smooth="yes"/>
      <point x="1014" y="-20" name="inserted"/>
      <point x="839" y="55"/>
      <point x="777" y="130" type="qcurve"/>
      <point x="718" y="58"/>
      <point x="523" y="-20"/>
      <point x="404" y="-20" type="qcurve" smooth="yes"/>
      <point x="244" y="-20"/>
      <point x="66" y="139"/>
      <point x="66" y="277" type="qcurve" smooth="yes"/>
      <point x="66" y="419"/>
      <point x="279" y="575"/>
      <point x="487" y="575" type="qcurve" smooth="yes"/>
      <point x="665" y="575" type="line"/>
      <point x="665" y="641" type="line"/>
      <point x="665" y="726"/>
      <point x="578" y="824"/>
      <point x="495" y="824" type="qcurve" smooth="yes"/>
      <point x="409" y="824"/>
      <point x="300" y="739"/>
      <point x="300" y="676" type="qcurve"/>
      <point x="93" y="693" type="line"/>
      <point x="93" y="824"/>
      <point x="318" y="990"/>
      <point x="496" y="990" type="qcurve" smooth="yes"/>
      <point x="596" y="990"/>
      <point x="749" y="925"/>
      <point x="796" y="860" type="qcurve"/>
      <point x="853" y="923"/>
      <point x="1007" y="990"/>
      <point x="1098" y="990" type="qcurve" smooth="yes"/>
      <point x="1288" y="990"/>
      <point x="1501" y="756"/>
      <point x="1501" y="548" type="qcurve" smooth="yes"/>
      <point x="1501" y="429" type="line"/>
      <point x="870" y="429" type="line"/>
      <point x="878" y="291"/>
      <point x="1021" y="145"/>
      <point x="1142" y="145" type="qcurve" smooth="yes"/>
      <point x="1205" y="145" name="inserted"/>
      <point x="1320" y="174"/>
      <point x="1371" y="203" type="qcurve" smooth="yes"/>
      <point x="1418" y="230" type="line"/>
      <point x="1480" y="89" type="line"/>
      <point x="1412" y="36" name="inserted"/>
      <point x="1231" y="-20"/>
    </contour>
    <contour>
      <point x="443" y="137" type="qcurve" smooth="yes"/>
      <point x="501" y="137"/>
      <point x="623" y="193"/>
      <point x="665" y="235" type="qcurve"/>
      <point x="665" y="432" type="line"/>
      <point x="484" y="432" type="line"/>
      <point x="390" y="430"/>
      <point x="274" y="342"/>
      <point x="274" y="273" type="qcurve" smooth="yes"/>
      <point x="274" y="210"/>
      <point x="361" y="137"/>
    </contour>
    <contour>
      <point x="1098" y="824" type="qcurve" smooth="yes"/>
      <point x="1004" y="824"/>
      <point x="887" y="690"/>
      <point x="873" y="576" type="qcurve"/>
      <point x="1296" y="576" type="line"/>
      <point x="1296" y="602" type="line"/>
      <point x="1296" y="708"/>
      <point x="1193" y="824"/>
    </contour>
  </outline>
</glyph>
<glyph name="divide" format="1">
  <advance width="1052"/>
  <unicode hex="00F7"/>
  <outline>
    <contour>
      <point x="971" y="528" type="line"/>
      <point x="61" y="528" type="line"/>
      <point x="61" y="712" type="line"/>
      <point x="971" y="712" type="line"/>
    </contour>
    <contour>
      <point x="625" y="889" type="line"/>
      <point x="409" y="889" type="line"/>
      <point x="409" y="1083" type="line"/>
      <point x="625" y="1083" type="line"/>
    </contour>
    <contour>
      <point x="625" y="156" type="line"/>
      <point x="409" y="156" type="line"/>
      <point x="409" y="351" type="line"/>
      <point x="625" y="351" type="line"/>
    </contour>
  </outline>
</glyph>
<glyph name="oslash" format="1">
  <advance width="1042"/>
  <unicode hex="00F8"/>
  <outline>
    <contour>
      <point x="0" y="0" type="line"/>
      <point x="1042" y="0" type="line"/>
      <point x="1042" y="20" type="line"/>
      <point x="0" y="20" type="line"/>
    </contour>
  </outline>
</glyph>
<glyph name="thorn" format="1">
  <advance width="1078"/>
  <unicode hex="00FE"/>
  <outline>
    <contour>
      <point x="974" y="435" type="line"/>
      <point x="974" y="213"/>
      <point x="768" y="-60"/>
      <point x="594" y="-60" type="qcurve" smooth="yes"/>
      <point x="511" y="-60"/>
      <point x="381" y="-13"/>
      <point x="331" y="36" type="qcurve"/>
      <point x="331" y="-416" type="line"/>
      <point x="128" y="-416" type="line"/>
      <point x="128" y="1341" type="line"/>
      <point x="331" y="1341" type="line"/>
      <point x="331" y="853" type="line"/>
      <point x="381" y="903"/>
      <point x="510" y="950"/>
      <point x="591" y="950" type="qcurve" smooth="yes"/>
      <point x="767" y="950"/>
      <point x="974" y="685"/>
      <point x="974" y="449" type="qcurve" smooth="yes"/>
    </contour>
    <contour>
      <point x="772" y="452" type="qcurve" smooth="yes"/>
      <point x="772" y="604"/>
      <point x="640" y="781"/>
      <point x="525" y="781" type="qcurve" smooth="yes"/>
      <point x="465" y="781"/>
      <point x="368" y="732"/>
      <point x="331" y="681" type="qcurve"/>
      <point x="331" y="213" type="line"/>
      <point x="368" y="156"/>
      <point x="464" y="102"/>
      <point x="527" y="102" type="qcurve" smooth="yes"/>
      <point x="639" y="102"/>
      <point x="772" y="278"/>
    </contour>
  </outline>
</glyph>
<glyph name="Aogonek" format="1">
  <advance width="1218"/>
  <unicode hex="0104"/>
  <outline>
    <contour>
      <point x="0" y="0" type="line"/>
      <point x="1218" y="0" type="line"/>
      <point x="1218" y="20" type="line"/>
      <point x="0" y="20" type="line"/>
    </contour>
  </outline>
</glyph>
<glyph name="aogonek" format="1">
  <advance width="996"/>
  <unicode hex="0105"/>
  <outline>
    <contour>
      <point x="0" y="0" type="line"/>
      <point x="996" y="0" type="line"/>
      <point x="996" y="20" type="line"/>
      <point x="0" y="20" type="line"/>
    </contour>
  </outline>
</glyph>
<glyph name="dcroat" format="1">
  <advance width="1076"/>
  <unicode hex="0111"/>
  <outline>
    <contour>
      <point x="1099" y="1096" type="line"/>
      <point x="922" y="1096" type="line"/>
      <point x="922" y="-2" type="line"/>
      <point x="738" y="-2" type="line"/>
      <point x="728" y="86" type="line"/>
      <point x="677" y="32"/>
      <point x="549" y="-20"/>
      <point x="466" y="-20" type="qcurve" smooth="yes"/>
      <point x="297" y="-20"/>
      <point x="79" y="260"/>
      <point x="79" y="479" type="qcurve" smooth="yes"/>
      <point x="79" y="492" type="line"/>
      <point x="79" y="714"/>
      <point x="296" y="990"/>
      <point x="468" y="990" type="qcurve" smooth="yes"/>
      <point x="545" y="990"/>
      <point x="672" y="943"/>
      <point x="721" y="897" type="qcurve"/>
      <point x="721" y="1096" type="line"/>
      <point x="514" y="1096" type="line"/>
      <point x="514" y="1259" type="line"/>
      <point x="721" y="1259" type="line"/>
      <point x="721" y="1380" type="line"/>
      <point x="922" y="1380" type="line"/>
      <point x="922" y="1259" type="line"/>
      <point x="1099" y="1259" type="line"/>
    </contour>
    <contour>
      <point x="280" y="473" type="qcurve" smooth="yes"/>
      <point x="280" y="321"/>
      <point x="409" y="149"/>
      <point x="520" y="149" type="qcurve" smooth="yes"/>
      <point x="587" y="149"/>
      <point x="685" y="209"/>
      <point x="721" y="272" type="qcurve"/>
      <point x="721" y="716" type="line"/>
      <point x="684" y="769" name="inserted"/>
      <point x="586" y="821"/>
      <point x="522" y="821" type="qcurve" smooth="yes"/>
      <point x="408" y="821"/>
      <point x="280" y="647"/>
    </contour>
  </outline>
</glyph>
<glyph name="Eogonek" format="1">
  <advance width="1037"/>
  <unicode hex="0118"/>
  <outline>
    <contour>
      <point x="903" y="548" type="line"/>
      <point x="350" y="548" type="line"/>
      <point x="350" y="134" type="line"/>
      <point x="993" y="134" type="line"/>
      <point x="993" y="-41" type="line"/>
      <point x="860" y="-41" type="line"/>
      <point x="780" y="-91"/>
      <point x="717" y="-167"/>
      <point x="717" y="-213" type="qcurve" smooth="yes"/>
      <point x="717" y="-246" name="inserted"/>
      <point x="749" y="-278"/>
      <point x="781" y="-278" type="qcurve" smooth="yes"/>
      <point x="798" y="-278" name="inserted"/>
      <point x="836" y="-267"/>
      <point x="856" y="-256" type="qcurve"/>
      <point x="883" y="-369" type="line"/>
      <point x="853" y="-389" name="inserted"/>
      <point x="784" y="-409"/>
      <point x="747" y="-409" type="qcurve" smooth="yes"/>
      <point x="661" y="-409"/>
      <point x="558" y="-319"/>
      <point x="558" y="-237" type="qcurve" smooth="yes"/>
      <point x="558" y="-184" name="inserted"/>
      <point x="614" y="-85"/>
      <point x="671" y="-41" type="qcurve"/>
      <point x="127" y="-41" type="line"/>
      <point x="127" y="1270" type="line"/>
      <point x="995" y="1270" type="line"/>
      <point x="995" y="1094" type="line"/>
      <point x="350" y="1094" type="line"/>
      <point x="350" y="718" type="line"/>
      <point x="903" y="718" type="line"/>
    </contour>
  </outline>
</glyph>
<glyph name="dotlessi" format="1">
  <advance width="476"/>
  <unicode hex="0131"/>
  <outline>
    <contour>
      <point x="340" y="0" type="line"/>
      <point x="131" y="0" type="line"/>
      <point x="131" y="974" type="line"/>
      <point x="340" y="974" type="line"/>
    </contour>
  </outline>
</glyph>
<glyph name="Lslash" format="1">
  <advance width="1008"/>
  <unicode hex="0141"/>
  <outline>
    <contour>
      <point x="366" y="778" type="line"/>
      <point x="584" y="845" type="line"/>
      <point x="584" y="718" type="line"/>
      <point x="366" y="651" type="line"/>
      <point x="366" y="172" type="line"/>
      <point x="966" y="172" type="line"/>
      <point x="966" y="0" type="line"/>
      <point x="149" y="0" type="line"/>
      <point x="149" y="586" type="line"/>
      <point x="29" y="550" type="line"/>
      <point x="29" y="677" type="line"/>
      <point x="149" y="713" type="line"/>
      <point x="149" y="1310" type="line"/>
      <point x="366" y="1310" type="line"/>
    </contour>
  </outline>
</glyph>
<glyph name="lslash" format="1">
  <advance width="527"/>
  <unicode hex="0142"/>
  <outline>
    <contour>
      <point x="363" y="797" type="line"/>
      <point x="499" y="847" type="line"/>
      <point x="499" y="721" type="line"/>
      <point x="363" y="671" type="line"/>
      <point x="363" y="0" type="line"/>
      <point x="154" y="0" type="line"/>
      <point x="154" y="598" type="line"/>
      <point x="29" y="553" type="line"/>
      <point x="29" y="679" type="line"/>
      <point x="154" y="724" type="line"/>
      <point x="154" y="1382" type="line"/>
      <point x="363" y="1382" type="line"/>
    </contour>
  </outline>
</glyph>
<glyph name="OE" format="1">
  <advance width="1769"/>
  <unicode hex="0152"/>
  <outline>
    <contour>
      <point x="1653" y="-2" type="line"/>
      <point x="873" y="-2" type="line"/>
      <point x="795" y="-12" name="inserted"/>
      <point x="663" y="-21"/>
      <point x="612" y="-21" type="qcurve" smooth="yes"/>
      <point x="460" y="-21"/>
      <point x="223" y="114"/>
      <point x="157" y="237" type="qcurve" smooth="yes" name="inserted"/>
      <point x="124" y="298" name="inserted"/>
      <point x="91" y="436"/>
      <point x="91" y="513" type="qcurve" smooth="yes"/>
      <point x="91" y="790" type="line"/>
      <point x="91" y="945"/>
      <point x="221" y="1191"/>
      <point x="340" y="1258" type="qcurve" smooth="yes" name="inserted"/>
      <point x="399" y="1292" name="inserted"/>
      <point x="534" y="1326"/>
      <point x="610" y="1326" type="qcurve" smooth="yes"/>
      <point x="665" y="1326" name="inserted"/>
      <point x="797" y="1317"/>
      <point x="873" y="1308" type="qcurve"/>
      <point x="1647" y="1308" type="line"/>
      <point x="1647" y="1136" type="line"/>
      <point x="1014" y="1136" type="line"/>
      <point x="1014" y="758" type="line"/>
      <point x="1561" y="758" type="line"/>
      <point x="1561" y="589" type="line"/>
      <point x="1014" y="589" type="line"/>
      <point x="1014" y="170" type="line"/>
      <point x="1653" y="170" type="line"/>
    </contour>
    <contour>
      <point x="612" y="145" type="qcurve" smooth="yes"/>
      <point x="661" y="145" name="inserted"/>
      <point x="755" y="150"/>
      <point x="799" y="157" type="qcurve"/>
      <point x="799" y="1148" type="line"/>
      <point x="751" y="1155" name="inserted"/>
      <point x="656" y="1161"/>
      <point x="610" y="1161" type="qcurve" smooth="yes"/>
      <point x="464" y="1161"/>
      <point x="300" y="972"/>
      <point x="299" y="796" type="qcurve"/>
      <point x="299" y="516" type="line"/>
      <point x="299" y="338"/>
      <point x="464" y="145"/>
    </contour>
  </outline>
</glyph>
<glyph name="oe" format="1">
  <advance width="1670"/>
  <unicode hex="0153"/>
  <outline>
    <contour>
      <point x="0" y="0" type="line"/>
      <point x="1670" y="0" type="line"/>
      <point x="1670" y="20" type="line"/>
      <point x="0" y="20" type="line"/>
    </contour>
  </outline>
</glyph>
<glyph name="Uogonek" format="1">
  <advance width="1204"/>
  <unicode hex="0172"/>
  <outline>
    <contour>
      <point x="0" y="0" type="line"/>
      <point x="1204" y="0" type="line"/>
      <point x="1204" y="20" type="line"/>
      <point x="0" y="20" type="line"/>
    </contour>
  </outline>
</glyph>
<glyph name="uogonek" format="1">
  <advance width="1029"/>
  <unicode hex="0173"/>
  <outline>
    <contour>
      <point x="898" y="-41" type="line"/>
      <point x="817" y="-91"/>
      <point x="753" y="-167"/>
      <point x="753" y="-213" type="qcurve" smooth="yes"/>
      <point x="753" y="-246" name="inserted"/>
      <point x="786" y="-278"/>
      <point x="817" y="-278" type="qcurve" smooth="yes"/>
      <point x="836" y="-278" name="inserted"/>
      <point x="873" y="-267"/>
      <point x="892" y="-256" type="qcurve"/>
      <point x="920" y="-369" type="line"/>
      <point x="890" y="-389" name="inserted"/>
      <point x="822" y="-409"/>
      <point x="783" y="-409" type="qcurve" smooth="yes"/>
      <point x="698" y="-409"/>
      <point x="595" y="-319"/>
      <point x="595" y="-237" type="qcurve" smooth="yes"/>
      <point x="595" y="-181" name="inserted"/>
      <point x="657" y="-79"/>
      <point x="720" y="-32" type="qcurve"/>
      <point x="715" y="83" type="line"/>
      <point x="668" y="14"/>
      <point x="526" y="-59"/>
      <point x="428" y="-59" type="qcurve" smooth="yes"/>
      <point x="268" y="-59"/>
      <point x="106" y="128"/>
      <point x="105" y="303" type="qcurve" smooth="yes"/>
      <point x="105" y="933" type="line"/>
      <point x="319" y="933" type="line"/>
      <point x="319" y="301" type="line"/>
      <point x="320" y="207"/>
      <point x="407" y="110"/>
      <point x="493" y="110" type="qcurve" smooth="yes"/>
      <point x="575" y="110"/>
      <point x="685" y="181"/>
      <point x="707" y="249" type="qcurve"/>
      <point x="707" y="933" type="line"/>
      <point x="923" y="933" type="line"/>
      <point x="923" y="-41" type="line"/>
    </contour>
  </outline>
</glyph>
<glyph name="florin" format="1">
  <advance width="644"/>
  <unicode hex="0192"/>
  <outline>
    <contour>
      <point x="577" y="777" type="line"/>
      <point x="392" y="777" type="line"/>
      <point x="392" y="-109" type="line"/>
      <point x="391" y="-265"/>
      <point x="231" y="-437"/>
      <point x="84" y="-437" type="qcurve" smooth="yes"/>
      <point x="53" y="-437" name="inserted"/>
      <point x="-4" y="-429"/>
      <point x="-29" y="-421" type="qcurve"/>
      <point x="-16" y="-260" type="line"/>
      <point x="-2" y="-265" name="inserted"/>
      <point x="41" y="-271"/>
      <point x="69" y="-271" type="qcurve" smooth="yes"/>
      <point x="125" y="-271"/>
      <point x="183" y="-189"/>
      <point x="183" y="-110" type="qcurve" smooth="yes"/>
      <point x="183" y="777" type="line"/>
      <point x="33" y="777" type="line"/>
      <point x="33" y="930" type="line"/>
      <point x="183" y="930" type="line"/>
      <point x="183" y="1029" type="line"/>
      <point x="184" y="1184"/>
      <point x="354" y="1358"/>
      <point x="512" y="1358" type="qcurve" smooth="yes"/>
      <point x="540" y="1358" name="inserted"/>
      <point x="607" y="1348"/>
      <point x="647" y="1339" type="qcurve"/>
      <point x="626" y="1179" type="line"/>
      <point x="608" y="1183" name="inserted"/>
      <point x="564" y="1188"/>
      <point x="537" y="1188" type="qcurve" smooth="yes"/>
      <point x="466" y="1188"/>
      <point x="393" y="1109"/>
      <point x="392" y="1030" type="qcurve" smooth="yes"/>
      <point x="392" y="930" type="line"/>
      <point x="577" y="930" type="line"/>
    </contour>
  </outline>
</glyph>
<glyph name="circumflex" format="1">
  <advance width="887"/>
  <unicode hex="02C6"/>
  <outline>
    <contour>
      <point x="742" y="1259" type="line"/>
      <point x="742" y="1249" type="line"/>
      <point x="574" y="1249" type="line"/>
      <point x="436" y="1393" type="line"/>
      <point x="299" y="1249" type="line"/>
      <point x="133" y="1249" type="line"/>
      <point x="133" y="1261" type="line"/>
      <point x="375" y="1508" type="line"/>
      <point x="497" y="1508" type="line"/>
    </contour>
  </outline>
</glyph>
<glyph name="caron" format="1">
  <advance width="839"/>
  <unicode hex="02C7"/>
  <outline>
    <contour>
      <point x="415" y="1364" type="line"/>
      <point x="549" y="1507" type="line"/>
      <point x="727" y="1507" type="line"/>
      <point x="727" y="1498" type="line"/>
      <point x="480" y="1249" type="line"/>
      <point x="350" y="1249" type="line"/>
      <point x="103" y="1499" type="line"/>
      <point x="103" y="1507" type="line"/>
      <point x="280" y="1507" type="line"/>
    </contour>
  </outline>
</glyph>
<glyph name="breve" format="1">
  <advance width="801"/>
  <unicode hex="02D8"/>
  <outline>
    <contour>
      <point x="684" y="1480" type="line"/>
      <point x="684" y="1367"/>
      <point x="526" y="1228"/>
      <point x="396" y="1228" type="qcurve" smooth="yes"/>
      <point x="266" y="1228"/>
      <point x="107" y="1367"/>
      <point x="107" y="1480" type="qcurve"/>
      <point x="264" y="1480" type="line"/>
      <point x="264" y="1419"/>
      <point x="331" y="1352"/>
      <point x="396" y="1352" type="qcurve" smooth="yes"/>
      <point x="457" y="1352"/>
      <point x="527" y="1418"/>
      <point x="527" y="1480" type="qcurve"/>
    </contour>
  </outline>
</glyph>
<glyph name="ring" format="1">
  <advance width="614"/>
  <unicode hex="02DA"/>
  <outline>
    <contour>
      <point x="379" y="1354" type="qcurve" smooth="yes"/>
      <point x="379" y="1322"/>
      <point x="336" y="1280"/>
      <point x="304" y="1280" type="qcurve" smooth="yes" name="inserted"/>
      <point x="272" y="1280"/>
      <point x="229" y="1323"/>
      <point x="229" y="1354" type="qcurve" smooth="yes"/>
      <point x="229" y="1385"/>
      <point x="272" y="1431"/>
      <point x="304" y="1431" type="qcurve" smooth="yes" name="inserted"/>
      <point x="336" y="1431"/>
      <point x="379" y="1385"/>
    </contour>
    <contour>
      <point x="231" y="1326" type="qcurve" smooth="yes"/>
      <point x="244" y="1296"/>
      <point x="301" y="1269"/>
      <point x="332" y="1281" type="qcurve" smooth="yes" name="inserted"/>
      <point x="363" y="1293"/>
      <point x="391" y="1352"/>
      <point x="378" y="1383" type="qcurve" smooth="yes"/>
      <point x="364" y="1413"/>
      <point x="307" y="1440"/>
      <point x="276" y="1428" type="qcurve" smooth="yes" name="inserted"/>
      <point x="244" y="1416"/>
      <point x="218" y="1356"/>
    </contour>
  </outline>
</glyph>
<glyph name="ogonek" format="1">
  <advance width="526"/>
  <unicode hex="02DB"/>
  <outline>
    <contour>
      <point x="340" y="-41" type="line"/>
      <point x="259" y="-88"/>
      <point x="196" y="-163"/>
      <point x="196" y="-209" type="qcurve" smooth="yes"/>
      <point x="196" y="-243" name="inserted"/>
      <point x="227" y="-275"/>
      <point x="260" y="-275" type="qcurve" smooth="yes"/>
      <point x="278" y="-275" name="inserted"/>
      <point x="315" y="-264"/>
      <point x="335" y="-253" type="qcurve"/>
      <point x="363" y="-366" type="line"/>
      <point x="332" y="-386" name="inserted"/>
      <point x="264" y="-406"/>
      <point x="225" y="-406" type="qcurve" smooth="yes"/>
      <point x="140" y="-406"/>
      <point x="37" y="-315"/>
      <point x="37" y="-233" type="qcurve" smooth="yes"/>
      <point x="37" y="-165" name="inserted"/>
      <point x="127" y="-47"/>
      <point x="217" y="0" type="qcurve"/>
    </contour>
  </outline>
</glyph>
<glyph name="hungarumlaut" format="1">
  <advance width="720"/>
  <unicode hex="02DD"/>
  <outline>
    <contour>
      <point x="558" y="1505" type="line"/>
      <point x="763" y="1505" type="line"/>
      <point x="522" y="1233" type="line"/>
      <point x="352" y="1233" type="line"/>
    </contour>
    <contour>
      <point x="232" y="1505" type="line"/>
      <point x="431" y="1505" type="line"/>
      <point x="230" y="1233" type="line"/>
      <point x="70" y="1233" type="line"/>
    </contour>
  </outline>
</glyph>
<glyph name="pi" format="1">
  <advance width="1139"/>
  <unicode hex="03C0"/>
  <outline>
    <contour>
      <point x="1072" y="811" type="line"/>
      <point x="924" y="811" type="line"/>
      <point x="924" y="270" type="line"/>
      <point x="924" y="213"/>
      <point x="970" y="159"/>
      <point x="1029" y="159" type="qcurve" smooth="yes"/>
      <point x="1051" y="159" name="inserted"/>
      <point x="1089" y="164"/>
      <point x="1106" y="168" type="qcurve"/>
      <point x="1107" y="8" type="line"/>
      <point x="1073" y="-2" name="inserted"/>
      <point x="1002" y="-12"/>
      <point x="966" y="-12" type="qcurve" smooth="yes"/>
      <point x="840" y="-12"/>
      <point x="716" y="125"/>
      <point x="716" y="263" type="qcurve" smooth="yes"/>
      <point x="716" y="811" type="line"/>
      <point x="406" y="811" type="line"/>
      <point x="406" y="-1" type="line"/>
      <point x="198" y="-1" type="line"/>
      <point x="198" y="811" type="line"/>
      <point x="42" y="811" type="line"/>
      <point x="42" y="973" type="line"/>
      <point x="1072" y="973" type="line"/>
    </contour>
  </outline>
</glyph>
<glyph name="adeva" format="1">
  <advance width="1450"/>
  <unicode hex="0905"/>
  <outline>
    <contour>
      <point x="220" y="614" type="qcurve"/>
      <point x="220" y="783" type="line"/>
      <point x="396" y="783"/>
      <point x="534" y="900"/>
      <point x="534" y="977" type="qcurve" smooth="yes"/>
      <point x="534" y="1039"/>
      <point x="450" y="1123"/>
      <point x="369" y="1123" type="qcurve" smooth="yes"/>
      <point x="322" y="1123"/>
      <point x="238" y="1097"/>
      <point x="172" y="1067" type="qcurve"/>
      <point x="144" y="1231" type="line"/>
      <point x="201" y="1261"/>
      <point x="320" y="1291"/>
      <point x="388" y="1291" type="qcurve" smooth="yes"/>
      <point x="551" y="1291"/>
      <point x="749" y="1126"/>
      <point x="749" y="981" type="qcurve" smooth="yes"/>
      <point x="749" y="816"/>
      <point x="468" y="614"/>
    </contour>
    <contour>
      <point x="384" y="783" type="line"/>
      <point x="534" y="783"/>
      <point x="778" y="595"/>
      <point x="778" y="432" type="qcurve" smooth="yes"/>
      <point x="778" y="267"/>
      <point x="574" y="80"/>
      <point x="411" y="80" type="qcurve" smooth="yes"/>
      <point x="326" y="80"/>
      <point x="179" y="112"/>
      <point x="84" y="152" type="qcurve"/>
      <point x="114" y="321" type="line"/>
      <point x="197" y="287"/>
      <point x="309" y="254"/>
      <point x="373" y="254" type="qcurve" smooth="yes"/>
      <point x="462" y="254"/>
      <point x="563" y="358"/>
      <point x="563" y="442" type="qcurve" smooth="yes"/>
      <point x="563" y="518"/>
      <point x="459" y="631"/>
      <point x="355" y="633" type="qcurve"/>
    </contour>
    <contour>
      <point x="1026" y="1170" type="line"/>
      <point x="1241" y="1170" type="line"/>
      <point x="1241" y="0" type="line"/>
      <point x="1026" y="0" type="line"/>
    </contour>
    <contour>
      <point x="1480" y="1119" type="line"/>
      <point x="835" y="1119" type="line"/>
      <point x="835" y="1283" type="line"/>
      <point x="1480" y="1283" type="line"/>
    </contour>
    <contour>
      <point x="609" y="675" type="line"/>
      <point x="1077" y="675" type="line"/>
      <point x="1077" y="506" type="line"/>
      <point x="629" y="506" type="line"/>
    </contour>
  </outline>
</glyph>
<glyph name="udeva" format="1">
  <advance width="968"/>
  <unicode hex="0909"/>
  <outline>
    <contour>
      <point x="-30" y="1119" type="line"/>
      <point x="-30" y="1283" type="line"/>
      <point x="998" y="1283" type="line"/>
      <point x="998" y="1119" type="line"/>
    </contour>
    <contour>
      <point x="222" y="600" type="line"/>
      <point x="222" y="773" type="line"/>
      <point x="248" y="773" type="line"/>
      <point x="421" y="773"/>
      <point x="543" y="880"/>
      <point x="543" y="965" type="qcurve" smooth="yes"/>
      <point x="543" y="1031"/>
      <point x="450" y="1120"/>
      <point x="362" y="1120" type="qcurve" smooth="yes"/>
      <point x="167" y="1120" type="line"/>
      <point x="147" y="1260" type="line"/>
      <point x="372" y="1260" type="line"/>
      <point x="542" y="1260"/>
      <point x="747" y="1098"/>
      <point x="747" y="958" type="qcurve" smooth="yes"/>
      <point x="747" y="799"/>
      <point x="507" y="600"/>
      <point x="264" y="600" type="qcurve" smooth="yes"/>
    </contour>
    <contour>
      <point x="407" y="780" type="line"/>
      <point x="585" y="787"/>
      <point x="837" y="569"/>
      <point x="837" y="414" type="qcurve" smooth="yes"/>
      <point x="837" y="239"/>
      <point x="614" y="50"/>
      <point x="426" y="50" type="qcurve" smooth="yes"/>
      <point x="340" y="50"/>
      <point x="172" y="86"/>
      <point x="74" y="129" type="qcurve"/>
      <point x="102" y="301" type="line"/>
      <point x="185" y="260"/>
      <point x="315" y="226"/>
      <point x="389" y="226" type="qcurve" smooth="yes"/>
      <point x="503" y="226"/>
      <point x="629" y="329"/>
      <point x="629" y="423" type="qcurve" smooth="yes"/>
      <point x="629" y="501"/>
      <point x="495" y="621"/>
      <point x="371" y="621" type="qcurve"/>
    </contour>
    <contour>
      <point x="442" y="1290" type="move" name="top"/>
    </contour>
  </outline>
</glyph>
<glyph name="uudeva" format="1">
  <advance width="1411"/>
  <unicode hex="090A"/>
  <outline>
    <contour>
      <point x="755" y="1119" type="line"/>
      <point x="755" y="1283" type="line"/>
      <point x="1441" y="1283" type="line"/>
      <point x="1441" y="1119" type="line"/>
    </contour>
    <contour>
      <point x="580" y="708" type="line"/>
      <point x="632" y="756"/>
      <point x="824" y="827"/>
      <point x="936" y="827" type="qcurve" smooth="yes"/>
      <point x="1102" y="827"/>
      <point x="1317" y="624"/>
      <point x="1317" y="463" type="qcurve" smooth="yes"/>
      <point x="1317" y="372"/>
      <point x="1250" y="193"/>
      <point x="1189" y="117" type="qcurve"/>
      <point x="986" y="155" type="line"/>
      <point x="1044" y="236"/>
      <point x="1101" y="384"/>
      <point x="1101" y="463" type="qcurve" smooth="yes"/>
      <point x="1101" y="548"/>
      <point x="1001" y="654"/>
      <point x="918" y="654" type="qcurve" smooth="yes"/>
      <point x="848" y="654"/>
      <point x="724" y="588"/>
      <point x="672" y="530" type="qcurve"/>
    </contour>
    <component base="udeva"/>
    <contour>
      <point x="526" y="1290" type="move" name="top"/>
    </contour>
  </outline>
</glyph>
<glyph name="kadeva" format="1">
  <advance width="1554"/>
  <unicode hex="0915"/>
  <outline>
    <contour>
      <point x="-30" y="1119" type="line"/>
      <point x="-30" y="1283" type="line"/>
      <point x="1584" y="1283" type="line"/>
      <point x="1584" y="1119" type="line"/>
    </contour>
    <contour>
      <point x="664" y="1165" type="line"/>
      <point x="879" y="1165" type="line"/>
      <point x="879" y="0" type="line"/>
      <point x="664" y="0" type="line"/>
    </contour>
    <contour>
      <point x="698" y="266" type="line"/>
      <point x="669" y="233"/>
      <point x="527" y="178"/>
      <point x="431" y="178" type="qcurve" smooth="yes"/>
      <point x="266" y="178"/>
      <point x="38" y="381"/>
      <point x="38" y="561" type="qcurve" smooth="yes"/>
      <point x="38" y="724"/>
      <point x="245" y="911"/>
      <point x="414" y="911" type="qcurve" smooth="yes"/>
      <point x="508" y="911"/>
      <point x="639" y="880"/>
      <point x="706" y="846" type="qcurve"/>
      <point x="706" y="653" type="line"/>
      <point x="650" y="694"/>
      <point x="526" y="740"/>
      <point x="445" y="740" type="qcurve" smooth="yes"/>
      <point x="357" y="740"/>
      <point x="253" y="638"/>
      <point x="253" y="551" type="qcurve" smooth="yes"/>
      <point x="253" y="450"/>
      <point x="360" y="349"/>
      <point x="434" y="349" type="qcurve" smooth="yes"/>
      <point x="518" y="349"/>
      <point x="654" y="422"/>
      <point x="698" y="485" type="qcurve"/>
    </contour>
    <contour>
      <point x="823" y="812" type="line"/>
      <point x="860" y="834"/>
      <point x="985" y="873"/>
      <point x="1074" y="873" type="qcurve" smooth="yes"/>
      <point x="1240" y="873"/>
      <point x="1460" y="670"/>
      <point x="1460" y="509" type="qcurve" smooth="yes"/>
      <point x="1460" y="418"/>
      <point x="1393" y="239"/>
      <point x="1333" y="163" type="qcurve"/>
      <point x="1129" y="201" type="line"/>
      <point x="1187" y="282"/>
      <point x="1244" y="430"/>
      <point x="1244" y="509" type="qcurve" smooth="yes"/>
      <point x="1244" y="594"/>
      <point x="1144" y="700"/>
      <point x="1061" y="700" type="qcurve" smooth="yes"/>
      <point x="998" y="700"/>
      <point x="874" y="641"/>
      <point x="823" y="590" type="qcurve"/>
    </contour>
    <contour>
      <point x="663" y="-2" type="move" name="btm"/>
    </contour>
    <contour>
      <point x="681" y="1290" type="move" name="top"/>
    </contour>
  </outline>
</glyph>
<glyph name="khadeva" format="1">
  <advance width="1733"/>
  <unicode hex="0916"/>
  <outline>
    <contour>
      <point x="1325" y="325" type="line"/>
      <point x="1277" y="301"/>
      <point x="1190" y="282"/>
      <point x="1120" y="282" type="qcurve" smooth="yes"/>
      <point x="980" y="282"/>
      <point x="754" y="474"/>
      <point x="754" y="634" type="qcurve" smooth="yes"/>
      <point x="754" y="782"/>
      <point x="956" y="958"/>
      <point x="1096" y="958" type="qcurve" smooth="yes"/>
      <point x="1179" y="958"/>
      <point x="1283" y="934"/>
      <point x="1336" y="908" type="qcurve"/>
      <point x="1336" y="726" type="line"/>
      <point x="1279" y="767"/>
      <point x="1188" y="791"/>
      <point x="1130" y="791" type="qcurve" smooth="yes"/>
      <point x="1059" y="791"/>
      <point x="964" y="700"/>
      <point x="964" y="624" type="qcurve" smooth="yes"/>
      <point x="964" y="539"/>
      <point x="1071" y="452"/>
      <point x="1135" y="452" type="qcurve" smooth="yes"/>
      <point x="1190" y="452"/>
      <point x="1276" y="479"/>
      <point x="1325" y="518" type="qcurve"/>
    </contour>
    <contour>
      <point x="816" y="1119" type="line"/>
      <point x="816" y="1283" type="line"/>
      <point x="1763" y="1283" type="line"/>
      <point x="1763" y="1119" type="line"/>
    </contour>
    <contour>
      <point x="1308" y="1170" type="line"/>
      <point x="1524" y="1170" type="line"/>
      <point x="1524" y="0" type="line"/>
      <point x="1308" y="0" type="line"/>
    </contour>
    <component base="radeva"/>
    <contour>
      <point x="1331" y="1290" type="move" name="top"/>
    </contour>
  </outline>
</glyph>
<glyph name="gadeva" format="1">
  <advance width="1233"/>
  <unicode hex="0917"/>
  <outline>
    <contour>
      <point x="809" y="1170" type="line"/>
      <point x="1024" y="1170" type="line"/>
      <point x="1024" y="0" type="line"/>
      <point x="809" y="0" type="line"/>
    </contour>
    <contour>
      <point x="1263" y="1119" type="line"/>
      <point x="-30" y="1119" type="line"/>
      <point x="-30" y="1283" type="line"/>
      <point x="1263" y="1283" type="line"/>
    </contour>
    <contour>
      <point x="460" y="1172" type="line"/>
      <point x="460" y="507" type="line"/>
      <point x="460" y="441"/>
      <point x="399" y="370"/>
      <point x="339" y="370" type="qcurve" smooth="yes"/>
      <point x="245" y="370"/>
      <point x="73" y="529"/>
      <point x="73" y="621" type="qcurve" smooth="yes"/>
      <point x="73" y="670"/>
      <point x="142" y="729"/>
      <point x="205" y="729" type="qcurve" smooth="yes"/>
      <point x="274" y="729" type="line"/>
      <point x="245" y="635" type="line"/>
      <point x="245" y="1172" type="line"/>
    </contour>
    <contour>
      <point x="827" y="1290" type="move" name="top"/>
    </contour>
  </outline>
</glyph>
<glyph name="ghadeva" format="1">
  <advance width="1291"/>
  <unicode hex="0918"/>
  <outline>
    <contour>
      <point x="-30" y="1119" type="line"/>
      <point x="-30" y="1283" type="line"/>
      <point x="1321" y="1283" type="line"/>
      <point x="1321" y="1119" type="line"/>
    </contour>
    <contour>
      <point x="866" y="1165" type="line"/>
      <point x="1081" y="1165" type="line"/>
      <point x="1081" y="0" type="line"/>
      <point x="866" y="0" type="line"/>
    </contour>
    <contour>
      <point x="595" y="704" type="line"/>
      <point x="503" y="704" type="line"/>
      <point x="356" y="704"/>
      <point x="138" y="864"/>
      <point x="138" y="1004" type="qcurve" smooth="yes"/>
      <point x="138" y="1123"/>
      <point x="316" y="1279"/>
      <point x="477" y="1279" type="qcurve" smooth="yes"/>
      <point x="595" y="1279" type="line"/>
      <point x="595" y="1119" type="line"/>
      <point x="521" y="1119" type="line"/>
      <point x="438" y="1119"/>
      <point x="359" y="1046"/>
      <point x="359" y="987" type="qcurve" smooth="yes"/>
      <point x="359" y="923"/>
      <point x="444" y="847"/>
      <point x="521" y="847" type="qcurve" smooth="yes"/>
      <point x="595" y="847" type="line"/>
    </contour>
    <contour>
      <point x="908" y="247" type="line"/>
      <point x="853" y="214"/>
      <point x="658" y="170"/>
      <point x="555" y="170" type="qcurve" smooth="yes"/>
      <point x="349" y="170"/>
      <point x="120" y="368"/>
      <point x="121" y="525" type="qcurve" smooth="yes"/>
      <point x="121" y="666"/>
      <point x="363" y="849"/>
      <point x="557" y="849" type="qcurve" smooth="yes"/>
      <point x="665" y="849" type="line"/>
      <point x="678" y="680" type="line"/>
      <point x="575" y="680" type="line"/>
      <point x="454" y="680"/>
      <point x="343" y="589"/>
      <point x="343" y="513" type="qcurve" smooth="yes"/>
      <point x="343" y="436"/>
      <point x="464" y="344"/>
      <point x="565" y="344" type="qcurve" smooth="yes"/>
      <point x="668" y="343"/>
      <point x="850" y="413"/>
      <point x="912" y="470" type="qcurve"/>
    </contour>
    <contour>
      <point x="888" y="1290" type="move" name="top"/>
    </contour>
  </outline>
</glyph>
<glyph name="chadeva" format="1">
  <advance width="1459"/>
  <unicode hex="091B"/>
  <outline>
    <contour>
      <point x="1489" y="1119" type="line"/>
      <point x="-30" y="1119" type="line"/>
      <point x="-30" y="1283" type="line"/>
      <point x="1489" y="1283" type="line"/>
    </contour>
    <contour>
      <point x="601" y="655" type="line"/>
      <point x="509" y="655" type="line"/>
      <point x="357" y="655"/>
      <point x="140" y="840"/>
      <point x="140" y="983" type="qcurve" smooth="yes"/>
      <point x="140" y="1114"/>
      <point x="322" y="1279"/>
      <point x="483" y="1279" type="qcurve" smooth="yes"/>
      <point x="601" y="1279" type="line"/>
      <point x="601" y="1119" type="line"/>
      <point x="527" y="1119" type="line"/>
      <point x="444" y="1119"/>
      <point x="361" y="1036"/>
      <point x="361" y="965" type="qcurve" smooth="yes"/>
      <point x="361" y="892"/>
      <point x="454" y="796"/>
      <point x="528" y="796" type="qcurve" smooth="yes"/>
      <point x="601" y="796" type="line"/>
    </contour>
    <contour>
      <point x="1332" y="575" type="qcurve" smooth="yes"/>
      <point x="1332" y="349"/>
      <point x="989" y="33"/>
      <point x="705" y="32" type="qcurve" smooth="yes"/>
      <point x="458" y="30"/>
      <point x="156" y="262"/>
      <point x="156" y="451" type="qcurve" smooth="yes"/>
      <point x="156" y="607"/>
      <point x="391" y="797"/>
      <point x="574" y="797" type="qcurve" smooth="yes"/>
      <point x="663" y="797" type="line"/>
      <point x="677" y="628" type="line"/>
      <point x="588" y="628" type="line"/>
      <point x="487" y="628"/>
      <point x="380" y="527"/>
      <point x="380" y="438" type="qcurve" smooth="yes"/>
      <point x="380" y="335"/>
      <point x="551" y="203"/>
      <point x="698" y="204" type="qcurve" smooth="yes"/>
      <point x="880" y="205"/>
      <point x="1125" y="414"/>
      <point x="1125" y="586" type="qcurve" smooth="yes"/>
      <point x="1125" y="679"/>
      <point x="1049" y="772"/>
      <point x="1000" y="772" type="qcurve" smooth="yes"/>
      <point x="960" y="772"/>
      <point x="887" y="749"/>
      <point x="848" y="724" type="qcurve"/>
      <point x="802" y="882" type="line"/>
      <point x="850" y="909"/>
      <point x="952" y="943"/>
      <point x="1018" y="943" type="qcurve" smooth="yes"/>
      <point x="1160" y="943"/>
      <point x="1333" y="743"/>
    </contour>
    <contour>
      <point x="1034" y="1189" type="line"/>
      <point x="1249" y="1189" type="line"/>
      <point x="1249" y="803" type="line"/>
      <point x="1034" y="803" type="line"/>
    </contour>
    <contour>
      <point x="612" y="42" type="move" name="btm"/>
    </contour>
    <contour>
      <point x="967" y="1290" type="move" name="top"/>
    </contour>
  </outline>
</glyph>
<glyph name="jhadeva" format="1">
  <advance width="1624"/>
  <unicode hex="091D"/>
  <outline>
    <contour>
      <point x="849" y="493" type="line"/>
      <point x="1308" y="493" type="line"/>
      <point x="1308" y="324" type="line"/>
      <point x="848" y="324" type="line"/>
    </contour>
    <component base="ideva"/>
    <component base="aavowelsigndeva" xOffset="1045"/>
    <contour>
      <point x="1222" y="1290" type="move" name="top"/>
    </contour>
  </outline>
</glyph>
<glyph name="ttadeva" format="1">
  <advance width="1055"/>
  <unicode hex="091F"/>
  <outline>
    <contour>
      <point x="1085" y="1119" type="line"/>
      <point x="-30" y="1119" type="line"/>
      <point x="-30" y="1283" type="line"/>
      <point x="1085" y="1283" type="line"/>
    </contour>
    <contour>
      <point x="77" y="498" type="qcurve" smooth="yes"/>
      <point x="78" y="679"/>
      <point x="327" y="899"/>
      <point x="550" y="899" type="qcurve" smooth="yes"/>
      <point x="679" y="899" type="line"/>
      <point x="630" y="846" type="line"/>
      <point x="630" y="1173" type="line"/>
      <point x="845" y="1173" type="line"/>
      <point x="845" y="729" type="line"/>
      <point x="593" y="729" type="line"/>
      <point x="448" y="729"/>
      <point x="296" y="597"/>
      <point x="296" y="489" type="qcurve" smooth="yes"/>
      <point x="296" y="380"/>
      <point x="472" y="257"/>
      <point x="614" y="257" type="qcurve" smooth="yes"/>
      <point x="699" y="256"/>
      <point x="810" y="277"/>
      <point x="881" y="300" type="qcurve"/>
      <point x="901" y="119" type="line"/>
      <point x="832" y="96"/>
      <point x="710" y="74"/>
      <point x="621" y="74" type="qcurve" smooth="yes"/>
      <point x="372" y="74"/>
      <point x="76" y="307"/>
    </contour>
    <contour>
      <point x="492" y="14" type="move" name="btm"/>
    </contour>
    <contour>
      <point x="632" y="1290" type="move" name="top"/>
    </contour>
  </outline>
</glyph>
<glyph name="tthadeva" format="1">
  <advance width="1207"/>
  <unicode hex="0920"/>
  <outline>
    <contour>
      <point x="1237" y="1119" type="line"/>
      <point x="-30" y="1119" type="line"/>
      <point x="-30" y="1283" type="line"/>
      <point x="1237" y="1283" type="line"/>
    </contour>
    <contour>
      <point x="895" y="725" type="line"/>
      <point x="608" y="725" type="line"/>
      <point x="446" y="725"/>
      <point x="282" y="593"/>
      <point x="282" y="484" type="qcurve" smooth="yes"/>
      <point x="282" y="365"/>
      <point x="453" y="232"/>
      <point x="579" y="232" type="qcurve" smooth="yes"/>
      <point x="718" y="232"/>
      <point x="882" y="370"/>
      <point x="882" y="484" type="qcurve" smooth="yes"/>
      <point x="882" y="571"/>
      <point x="815" y="700"/>
      <point x="742" y="742" type="qcurve"/>
      <point x="912" y="858" type="line"/>
      <point x="993" y="800"/>
      <point x="1089" y="608"/>
      <point x="1090" y="477" type="qcurve" smooth="yes"/>
      <point x="1091" y="297"/>
      <point x="829" y="56"/>
      <point x="597" y="56" type="qcurve" smooth="yes"/>
      <point x="354" y="55"/>
      <point x="67" y="302"/>
      <point x="67" y="498" type="qcurve" smooth="yes"/>
      <point x="67" y="676"/>
      <point x="345" y="894"/>
      <point x="560" y="894" type="qcurve" smooth="yes"/>
      <point x="836" y="894" type="line"/>
      <point x="783" y="836" type="line"/>
      <point x="783" y="1174" type="line"/>
      <point x="998" y="1174" type="line"/>
      <point x="998" y="725" type="line"/>
    </contour>
    <contour>
      <point x="514" y="14" type="move" name="btm"/>
    </contour>
    <contour>
      <point x="748" y="1290" type="move" name="top"/>
    </contour>
  </outline>
</glyph>
<glyph name="ddhadeva" format="1">
  <advance width="1100"/>
  <unicode hex="0922"/>
  <outline>
    <contour>
      <point x="1130" y="1119" type="line"/>
      <point x="-30" y="1119" type="line"/>
      <point x="-30" y="1283" type="line"/>
      <point x="1130" y="1283" type="line"/>
    </contour>
    <contour>
      <point x="674" y="1166" type="line"/>
      <point x="890" y="1166" type="line"/>
      <point x="890" y="733" type="line"/>
      <point x="577" y="733" type="line"/>
      <point x="436" y="733"/>
      <point x="282" y="597"/>
      <point x="282" y="483" type="qcurve" smooth="yes"/>
      <point x="282" y="340"/>
      <point x="477" y="194"/>
      <point x="624" y="194" type="qcurve" smooth="yes"/>
      <point x="724" y="194"/>
      <point x="828" y="272"/>
      <point x="828" y="328" type="qcurve" smooth="yes"/>
      <point x="828" y="372"/>
      <point x="766" y="424"/>
      <point x="700" y="424" type="qcurve" smooth="yes"/>
      <point x="651" y="424"/>
      <point x="554" y="379"/>
      <point x="499" y="336" type="qcurve"/>
      <point x="424" y="478" type="line"/>
      <point x="479" y="528"/>
      <point x="625" y="589"/>
      <point x="711" y="589" type="qcurve" smooth="yes"/>
      <point x="860" y="589"/>
      <point x="1024" y="438"/>
      <point x="1024" y="327" type="qcurve" smooth="yes"/>
      <point x="1024" y="204"/>
      <point x="829" y="32"/>
      <point x="629" y="32" type="qcurve" smooth="yes"/>
      <point x="380" y="32"/>
      <point x="70" y="288"/>
      <point x="70" y="502" type="qcurve" smooth="yes"/>
      <point x="70" y="680"/>
      <point x="322" y="901"/>
      <point x="551" y="901" type="qcurve" smooth="yes"/>
      <point x="733" y="901" type="line"/>
      <point x="674" y="848" type="line"/>
    </contour>
    <contour>
      <point x="514" y="15" type="move" name="btm"/>
    </contour>
    <contour>
      <point x="674" y="1290" type="move" name="top"/>
    </contour>
  </outline>
</glyph>
<glyph name="nnadeva" format="1">
  <advance width="1512"/>
  <unicode hex="0923"/>
  <outline>
    <contour>
      <point x="622" y="1173" type="line"/>
      <point x="837" y="1173" type="line"/>
      <point x="837" y="745" type="line"/>
      <point x="837" y="568"/>
      <point x="653" y="370"/>
      <point x="485" y="370" type="qcurve" smooth="yes"/>
      <point x="325" y="370"/>
      <point x="122" y="567"/>
      <point x="122" y="748" type="qcurve" smooth="yes"/>
      <point x="122" y="1173" type="line"/>
      <point x="338" y="1173" type="line"/>
      <point x="338" y="739" type="line"/>
      <point x="338" y="646"/>
      <point x="411" y="545"/>
      <point x="477" y="545" type="qcurve" smooth="yes"/>
      <point x="547" y="545"/>
      <point x="622" y="643"/>
      <point x="622" y="739" type="qcurve" smooth="yes"/>
    </contour>
    <contour>
      <point x="-30" y="1283" type="line"/>
      <point x="1542" y="1283" type="line"/>
      <point x="1542" y="1119" type="line"/>
      <point x="-30" y="1119" type="line"/>
    </contour>
    <contour>
      <point x="1088" y="1170" type="line"/>
      <point x="1303" y="1170" type="line"/>
      <point x="1303" y="0" type="line"/>
      <point x="1088" y="0" type="line"/>
    </contour>
    <contour>
      <point x="874" y="1290" type="move" name="top"/>
    </contour>
  </outline>
</glyph>
<glyph name="tadeva" format="1">
  <advance width="1157"/>
  <unicode hex="0924"/>
  <outline>
    <contour>
      <point x="812" y="880" type="line"/>
      <point x="812" y="706" type="line"/>
      <point x="567" y="706" type="line"/>
      <point x="435" y="706"/>
      <point x="302" y="570"/>
      <point x="302" y="466" type="qcurve" smooth="yes"/>
      <point x="302" y="372"/>
      <point x="381" y="176"/>
      <point x="473" y="63" type="qcurve"/>
      <point x="297" y="-6" type="line"/>
      <point x="197" y="111"/>
      <point x="88" y="376"/>
      <point x="89" y="503" type="qcurve" smooth="yes"/>
      <point x="90" y="670"/>
      <point x="309" y="880"/>
      <point x="516" y="880" type="qcurve" smooth="yes"/>
    </contour>
    <contour>
      <point x="-30" y="1283" type="line"/>
      <point x="1187" y="1283" type="line"/>
      <point x="1187" y="1119" type="line"/>
      <point x="-30" y="1119" type="line"/>
    </contour>
    <contour>
      <point x="732" y="1170" type="line"/>
      <point x="947" y="1170" type="line"/>
      <point x="947" y="0" type="line"/>
      <point x="732" y="0" type="line"/>
    </contour>
    <contour>
      <point x="750" y="1290" type="move" name="top"/>
    </contour>
  </outline>
</glyph>
<glyph name="thadeva" format="1">
  <advance width="1294"/>
  <unicode hex="0925"/>
  <outline>
    <contour>
      <point x="276" y="908" type="qcurve"/>
      <point x="114" y="888" type="line"/>
      <point x="98" y="926"/>
      <point x="87" y="996"/>
      <point x="88" y="1033" type="qcurve" smooth="yes"/>
      <point x="90" y="1133"/>
      <point x="241" y="1271"/>
      <point x="372" y="1271" type="qcurve" smooth="yes"/>
      <point x="519" y="1271"/>
      <point x="689" y="1096"/>
      <point x="689" y="966" type="qcurve" smooth="yes"/>
      <point x="689" y="785"/>
      <point x="428" y="581"/>
      <point x="247" y="580" type="qcurve"/>
      <point x="274" y="678" type="line"/>
      <point x="301" y="536"/>
      <point x="498" y="384"/>
      <point x="620" y="384" type="qcurve" smooth="yes"/>
      <point x="715" y="384"/>
      <point x="878" y="460"/>
      <point x="918" y="514" type="qcurve"/>
      <point x="918" y="286" type="line"/>
      <point x="877" y="258"/>
      <point x="726" y="212"/>
      <point x="628" y="212" type="qcurve" smooth="yes"/>
      <point x="432" y="212"/>
      <point x="128" y="439"/>
      <point x="56" y="680" type="qcurve"/>
      <point x="61" y="716" type="line"/>
      <point x="313" y="727"/>
      <point x="506" y="865"/>
      <point x="506" y="967" type="qcurve" smooth="yes"/>
      <point x="506" y="1036"/>
      <point x="432" y="1109"/>
      <point x="377" y="1109" type="qcurve" smooth="yes"/>
      <point x="324" y="1109"/>
      <point x="263" y="1040"/>
      <point x="263" y="988" type="qcurve" smooth="yes"/>
      <point x="263" y="968"/>
      <point x="270" y="931"/>
    </contour>
    <contour>
      <point x="869" y="1170" type="line"/>
      <point x="1084" y="1170" type="line"/>
      <point x="1084" y="0" type="line"/>
      <point x="869" y="0" type="line"/>
    </contour>
    <contour>
      <point x="1324" y="1119" type="line"/>
      <point x="784" y="1119" type="line"/>
      <point x="784" y="1283" type="line"/>
      <point x="1324" y="1283" type="line"/>
    </contour>
    <contour>
      <point x="888" y="1290" type="move" name="top"/>
    </contour>
  </outline>
</glyph>
<glyph name="dadeva" format="1">
  <advance width="1067"/>
  <unicode hex="0926"/>
  <outline>
    <contour>
      <point x="1097" y="1119" type="line"/>
      <point x="-30" y="1119" type="line"/>
      <point x="-30" y="1283" type="line"/>
      <point x="1097" y="1283" type="line"/>
    </contour>
    <contour>
      <point x="608" y="207" type="line"/>
      <point x="782" y="267" type="line"/>
      <point x="947" y="-137" type="line"/>
      <point x="751" y="-176" type="line"/>
    </contour>
    <contour>
      <point x="81" y="538" type="qcurve" smooth="yes"/>
      <point x="81" y="702"/>
      <point x="323" y="898"/>
      <point x="538" y="898" type="qcurve" smooth="yes"/>
      <point x="703" y="898" type="line"/>
      <point x="642" y="834" type="line"/>
      <point x="642" y="1176" type="line"/>
      <point x="857" y="1176" type="line"/>
      <point x="857" y="729" type="line"/>
      <point x="578" y="729" type="line"/>
      <point x="429" y="729"/>
      <point x="294" y="610"/>
      <point x="294" y="517" type="qcurve" smooth="yes"/>
      <point x="294" y="418"/>
      <point x="447" y="296"/>
      <point x="561" y="296" type="qcurve" smooth="yes"/>
      <point x="577" y="296"/>
      <point x="643" y="303"/>
      <point x="686" y="311" type="qcurve"/>
      <point x="594" y="229" type="line"/>
      <point x="583" y="258"/>
      <point x="563" y="308"/>
      <point x="564" y="345" type="qcurve" smooth="yes"/>
      <point x="564" y="396"/>
      <point x="646" y="474"/>
      <point x="735" y="474" type="qcurve" smooth="yes"/>
      <point x="830" y="474"/>
      <point x="949" y="368"/>
      <point x="949" y="306" type="qcurve" smooth="yes"/>
      <point x="949" y="226"/>
      <point x="774" y="125"/>
      <point x="598" y="125" type="qcurve" smooth="yes"/>
      <point x="377" y="125"/>
      <point x="81" y="350"/>
    </contour>
    <contour>
      <point x="740" y="-115" type="move" name="btm"/>
    </contour>
    <contour>
      <point x="634" y="1290" type="move" name="top"/>
    </contour>
  </outline>
</glyph>
<glyph name="padeva" format="1">
  <advance width="1112"/>
  <unicode hex="092A"/>
  <outline>
    <contour>
      <point x="1142" y="1119" type="line"/>
      <point x="-30" y="1119" type="line"/>
      <point x="-30" y="1283" type="line"/>
      <point x="1142" y="1283" type="line"/>
    </contour>
    <contour>
      <point x="331" y="1177" type="line"/>
      <point x="331" y="774" type="line"/>
      <point x="331" y="663"/>
      <point x="421" y="564"/>
      <point x="496" y="564" type="qcurve" smooth="yes"/>
      <point x="568" y="564"/>
      <point x="690" y="624"/>
      <point x="738" y="703" type="qcurve"/>
      <point x="738" y="470" type="line"/>
      <point x="691" y="431"/>
      <point x="578" y="394"/>
      <point x="500" y="394" type="qcurve" smooth="yes"/>
      <point x="331" y="394"/>
      <point x="116" y="607"/>
      <point x="116" y="825" type="qcurve" smooth="yes"/>
      <point x="116" y="1177" type="line"/>
    </contour>
    <contour>
      <point x="687" y="1170" type="line"/>
      <point x="902" y="1170" type="line"/>
      <point x="902" y="0" type="line"/>
      <point x="687" y="0" type="line"/>
    </contour>
    <contour>
      <point x="706" y="1290" type="move" name="top"/>
    </contour>
  </outline>
</glyph>
<glyph name="phadeva" format="1">
  <advance width="1579"/>
  <unicode hex="092B"/>
  <outline>
    <contour>
      <point x="996" y="1283" type="line"/>
      <point x="1609" y="1283" type="line"/>
      <point x="1609" y="1119" type="line"/>
      <point x="996" y="1119" type="line"/>
    </contour>
    <contour>
      <point x="846" y="812" type="line"/>
      <point x="884" y="834"/>
      <point x="1014" y="873"/>
      <point x="1103" y="873" type="qcurve" smooth="yes"/>
      <point x="1269" y="873"/>
      <point x="1484" y="670"/>
      <point x="1484" y="509" type="qcurve" smooth="yes"/>
      <point x="1484" y="418"/>
      <point x="1417" y="239"/>
      <point x="1356" y="163" type="qcurve"/>
      <point x="1153" y="201" type="line"/>
      <point x="1211" y="282"/>
      <point x="1268" y="430"/>
      <point x="1268" y="509" type="qcurve" smooth="yes"/>
      <point x="1268" y="594"/>
      <point x="1168" y="700"/>
      <point x="1085" y="700" type="qcurve" smooth="yes"/>
      <point x="1022" y="700"/>
      <point x="898" y="641"/>
      <point x="846" y="590" type="qcurve"/>
    </contour>
    <component base="padeva"/>
    <contour>
      <point x="715" y="7" type="move" name="btm"/>
    </contour>
    <contour>
      <point x="709" y="1290" type="move" name="top"/>
    </contour>
  </outline>
</glyph>
<glyph name="bhadeva" format="1">
  <advance width="1174"/>
  <unicode hex="092D"/>
  <outline>
    <contour>
      <point x="749" y="1170" type="line"/>
      <point x="964" y="1170" type="line"/>
      <point x="964" y="0" type="line"/>
      <point x="749" y="0" type="line"/>
    </contour>
    <contour>
      <point x="301" y="697" type="line"/>
      <point x="876" y="697" type="line"/>
      <point x="876" y="521" type="line"/>
      <point x="301" y="521" type="line"/>
    </contour>
    <contour>
      <point x="1204" y="1119" type="line"/>
      <point x="662" y="1119" type="line"/>
      <point x="662" y="1283" type="line"/>
      <point x="1204" y="1283" type="line"/>
    </contour>
    <contour>
      <point x="446" y="961" type="qcurve" smooth="yes"/>
      <point x="446" y="464" type="line"/>
      <point x="446" y="405"/>
      <point x="392" y="341"/>
      <point x="336" y="341" type="qcurve" smooth="yes"/>
      <point x="241" y="341"/>
      <point x="67" y="499"/>
      <point x="67" y="590" type="qcurve" smooth="yes"/>
      <point x="67" y="638"/>
      <point x="138" y="697"/>
      <point x="198" y="697" type="qcurve" smooth="yes"/>
      <point x="260" y="697" type="line"/>
      <point x="231" y="602" type="line"/>
      <point x="231" y="959" type="line"/>
      <point x="231" y="1047"/>
      <point x="170" y="1124"/>
      <point x="124" y="1123" type="qcurve" smooth="yes"/>
      <point x="88" y="1123"/>
      <point x="41" y="1106"/>
      <point x="3" y="1083" type="qcurve"/>
      <point x="-23" y="1242" type="line"/>
      <point x="7" y="1265"/>
      <point x="100" y="1296"/>
      <point x="163" y="1296" type="qcurve" smooth="yes"/>
      <point x="291" y="1296"/>
      <point x="446" y="1127"/>
    </contour>
    <contour>
      <point x="770" y="1290" type="move" name="top"/>
    </contour>
  </outline>
</glyph>
<glyph name="madeva" format="1">
  <advance width="1207"/>
  <unicode hex="092E"/>
  <outline>
    <contour>
      <point x="782" y="1170" type="line"/>
      <point x="997" y="1170" type="line"/>
      <point x="997" y="0" type="line"/>
      <point x="782" y="0" type="line"/>
    </contour>
    <contour>
      <point x="1237" y="1119" type="line"/>
      <point x="-30" y="1119" type="line"/>
      <point x="-30" y="1283" type="line"/>
      <point x="1237" y="1283" type="line"/>
    </contour>
    <contour>
      <point x="320" y="697" type="line"/>
      <point x="909" y="697" type="line"/>
      <point x="909" y="521" type="line"/>
      <point x="320" y="521" type="line"/>
    </contour>
    <contour>
      <point x="449" y="1147" type="line"/>
      <point x="449" y="464" type="line"/>
      <point x="449" y="405"/>
      <point x="392" y="341"/>
      <point x="337" y="341" type="qcurve" smooth="yes"/>
      <point x="239" y="341"/>
      <point x="70" y="495"/>
      <point x="70" y="590" type="qcurve" smooth="yes"/>
      <point x="70" y="638"/>
      <point x="141" y="697"/>
      <point x="201" y="697" type="qcurve" smooth="yes"/>
      <point x="263" y="697" type="line"/>
      <point x="234" y="602" type="line"/>
      <point x="234" y="1147" type="line"/>
    </contour>
    <contour>
      <point x="801" y="1290" type="move" name="top"/>
    </contour>
  </outline>
</glyph>
<glyph name="yadeva" format="1">
  <advance width="1212"/>
  <unicode hex="092F"/>
  <outline>
    <contour>
      <point x="-30" y="1283" type="line"/>
      <point x="1242" y="1283" type="line"/>
      <point x="1242" y="1119" type="line"/>
      <point x="-30" y="1119" type="line"/>
    </contour>
    <contour>
      <point x="160" y="1158" type="qcurve"/>
      <point x="412" y="1158" type="line"/>
      <point x="467" y="1118"/>
      <point x="539" y="977"/>
      <point x="539" y="903" type="qcurve" smooth="yes"/>
      <point x="539" y="781"/>
      <point x="371" y="615"/>
      <point x="251" y="608" type="qcurve"/>
      <point x="274" y="682" type="line"/>
      <point x="315" y="561"/>
      <point x="479" y="443"/>
      <point x="577" y="443" type="qcurve" smooth="yes"/>
      <point x="658" y="443"/>
      <point x="770" y="490"/>
      <point x="819" y="542" type="qcurve"/>
      <point x="819" y="317" type="line"/>
      <point x="780" y="297"/>
      <point x="666" y="268"/>
      <point x="586" y="267" type="qcurve" smooth="yes"/>
      <point x="412" y="267"/>
      <point x="122" y="477"/>
      <point x="50" y="690" type="qcurve"/>
      <point x="55" y="722" type="line"/>
      <point x="198" y="739"/>
      <point x="333" y="841"/>
      <point x="333" y="924" type="qcurve" smooth="yes"/>
      <point x="333" y="991"/>
      <point x="255" y="1106"/>
    </contour>
    <contour>
      <point x="787" y="1170" type="line"/>
      <point x="1002" y="1170" type="line"/>
      <point x="1002" y="0" type="line"/>
      <point x="787" y="0" type="line"/>
    </contour>
    <contour>
      <point x="806" y="1290" type="move" name="top"/>
    </contour>
  </outline>
</glyph>
<glyph name="radeva" format="1">
  <advance width="865"/>
  <unicode hex="0930"/>
  <outline>
    <contour>
      <point x="769" y="89" type="line"/>
      <point x="613" y="-23" type="line"/>
      <point x="-6" y="719" type="line"/>
      <point x="143" y="835" type="line"/>
      <point x="328" y="658" type="line"/>
      <point x="328" y="612" type="line"/>
    </contour>
    <contour>
      <point x="280" y="673" type="line"/>
      <point x="370" y="673"/>
      <point x="454" y="769"/>
      <point x="454" y="880" type="qcurve" smooth="yes"/>
      <point x="454" y="1180" type="line"/>
      <point x="669" y="1180" type="line"/>
      <point x="669" y="865" type="line"/>
      <point x="669" y="674"/>
      <point x="485" y="464"/>
      <point x="280" y="464" type="qcurve"/>
    </contour>
    <contour>
      <point x="-30" y="1119" type="line"/>
      <point x="-30" y="1283" type="line"/>
      <point x="895" y="1283" type="line"/>
      <point x="895" y="1119" type="line"/>
    </contour>
    <contour>
      <point x="314" y="22" type="move" name="btm"/>
    </contour>
    <contour>
      <point x="486" y="1291" type="move" name="top"/>
    </contour>
  </outline>
</glyph>
<glyph name="lladeva" format="1">
  <advance width="1595"/>
  <unicode hex="0933"/>
  <outline>
    <contour>
      <point x="1625" y="1119" type="line"/>
      <point x="-30" y="1119" type="line"/>
      <point x="-30" y="1283" type="line"/>
      <point x="1625" y="1283" type="line"/>
    </contour>
    <contour>
      <point x="1385" y="784" type="line"/>
      <point x="1169" y="786" type="line"/>
      <point x="1169" y="1173" type="line"/>
      <point x="1385" y="1173" type="line"/>
    </contour>
    <contour>
      <point x="661" y="486" type="qcurve" smooth="yes"/>
      <point x="661" y="622"/>
      <point x="554" y="741"/>
      <point x="458" y="741" type="qcurve" smooth="yes"/>
      <point x="377" y="741"/>
      <point x="270" y="615"/>
      <point x="270" y="483" type="qcurve" smooth="yes"/>
      <point x="270" y="355"/>
      <point x="383" y="229"/>
      <point x="464" y="229" type="qcurve" smooth="yes"/>
      <point x="552" y="229"/>
      <point x="661" y="355"/>
    </contour>
    <contour>
      <point x="852" y="604" type="qcurve"/>
      <point x="729" y="593" type="line"/>
      <point x="758" y="741"/>
      <point x="972" y="906"/>
      <point x="1102" y="906" type="qcurve" smooth="yes"/>
      <point x="1304" y="906"/>
      <point x="1498" y="659"/>
      <point x="1498" y="489" type="qcurve" smooth="yes"/>
      <point x="1498" y="299"/>
      <point x="1295" y="65"/>
      <point x="1122" y="65" type="qcurve" smooth="yes"/>
      <point x="998" y="65"/>
      <point x="787" y="197"/>
      <point x="742" y="322" type="qcurve"/>
      <point x="837" y="333" type="line"/>
      <point x="819" y="219"/>
      <point x="630" y="70"/>
      <point x="470" y="67" type="qcurve" smooth="yes"/>
      <point x="295" y="64"/>
      <point x="74" y="301"/>
      <point x="74" y="490" type="qcurve" smooth="yes"/>
      <point x="74" y="681"/>
      <point x="278" y="905"/>
      <point x="456" y="905" type="qcurve" smooth="yes"/>
      <point x="615" y="905"/>
      <point x="828" y="725"/>
    </contour>
    <contour>
      <point x="926" y="496" type="qcurve" smooth="yes"/>
      <point x="926" y="359"/>
      <point x="1035" y="235"/>
      <point x="1118" y="235" type="qcurve" smooth="yes"/>
      <point x="1199" y="235"/>
      <point x="1301" y="367"/>
      <point x="1301" y="494" type="qcurve" smooth="yes"/>
      <point x="1301" y="617"/>
      <point x="1196" y="742"/>
      <point x="1112" y="742" type="qcurve" smooth="yes"/>
      <point x="1034" y="742"/>
      <point x="926" y="619"/>
    </contour>
    <contour>
      <point x="1059" y="8" type="move" name="btm"/>
    </contour>
    <contour>
      <point x="1226" y="1290" type="move" name="top"/>
    </contour>
  </outline>
</glyph>
<glyph name="llladeva" format="1">
  <advance width="1595"/>
  <unicode hex="0934"/>
  <outline>
    <component base="lladeva"/>
    <component base="nuktadeva" xOffset="1102" yOffset="-109"/>
    <contour>
      <point x="987" y="25" type="move" name="btm"/>
    </contour>
    <contour>
      <point x="1073" y="1279" type="move" name="top"/>
    </contour>
  </outline>
</glyph>
<glyph name="sadeva" format="1">
  <advance width="1377"/>
  <unicode hex="0938"/>
  <outline>
    <contour>
      <point x="-30" y="1119" type="line"/>
      <point x="-30" y="1283" type="line"/>
      <point x="1407" y="1283" type="line"/>
      <point x="1407" y="1119" type="line"/>
    </contour>
    <contour>
      <point x="459" y="683" type="line"/>
      <point x="1007" y="683" type="line"/>
      <point x="1007" y="511" type="line"/>
      <point x="389" y="511" type="line"/>
    </contour>
    <contour>
      <point x="953" y="1170" type="line"/>
      <point x="1168" y="1170" type="line"/>
      <point x="1168" y="0" type="line"/>
      <point x="953" y="0" type="line"/>
    </contour>
    <contour>
      <point x="699" y="79" type="line"/>
      <point x="532" y="-15" type="line"/>
      <point x="-3" y="738" type="line"/>
      <point x="145" y="844" type="line"/>
      <point x="305" y="673" type="line"/>
      <point x="305" y="638" type="line"/>
    </contour>
    <contour>
      <point x="243" y="668" type="line"/>
      <point x="334" y="668"/>
      <point x="417" y="769"/>
      <point x="417" y="880" type="qcurve" smooth="yes"/>
      <point x="417" y="1180" type="line"/>
      <point x="632" y="1180" type="line"/>
      <point x="632" y="856" type="line"/>
      <point x="632" y="665"/>
      <point x="449" y="464"/>
      <point x="243" y="464" type="qcurve"/>
    </contour>
    <contour>
      <point x="973" y="1290" type="move" name="top"/>
    </contour>
  </outline>
</glyph>
<glyph name="hadeva" format="1">
  <advance width="1096"/>
  <unicode hex="0939"/>
  <outline>
    <contour>
      <point x="425" y="941" type="qcurve" smooth="yes"/>
      <point x="711" y="941" type="line"/>
      <point x="671" y="894" type="line"/>
      <point x="671" y="1172" type="line"/>
      <point x="886" y="1172" type="line"/>
      <point x="886" y="772" type="line"/>
      <point x="458" y="772" type="line"/>
      <point x="384" y="772"/>
      <point x="311" y="712"/>
      <point x="311" y="662" type="qcurve" smooth="yes"/>
      <point x="311" y="607"/>
      <point x="389" y="536"/>
      <point x="464" y="514" type="qcurve"/>
      <point x="348" y="380" type="line"/>
      <point x="236" y="428"/>
      <point x="97" y="588"/>
      <point x="97" y="691" type="qcurve" smooth="yes"/>
      <point x="97" y="803"/>
      <point x="271" y="941"/>
    </contour>
    <contour>
      <point x="965" y="250" type="qcurve" smooth="yes"/>
      <point x="965" y="206"/>
      <point x="953" y="144"/>
      <point x="938" y="96" type="qcurve"/>
      <point x="738" y="115" type="line"/>
      <point x="748" y="154"/>
      <point x="755" y="195"/>
      <point x="755" y="233" type="qcurve" smooth="yes"/>
      <point x="755" y="302"/>
      <point x="658" y="398"/>
      <point x="569" y="398" type="qcurve" smooth="yes"/>
      <point x="469" y="397"/>
      <point x="354" y="276"/>
      <point x="354" y="187" type="qcurve" smooth="yes"/>
      <point x="354" y="59"/>
      <point x="579" y="-92"/>
      <point x="856" y="-93" type="qcurve"/>
      <point x="832" y="-261" type="line"/>
      <point x="483" y="-261"/>
      <point x="139" y="-2"/>
      <point x="139" y="206" type="qcurve" smooth="yes"/>
      <point x="139" y="350"/>
      <point x="364" y="571"/>
      <point x="560" y="571" type="qcurve" smooth="yes"/>
      <point x="744" y="571"/>
      <point x="965" y="376"/>
    </contour>
    <contour>
      <point x="1126" y="1119" type="line"/>
      <point x="-30" y="1119" type="line"/>
      <point x="-30" y="1283" type="line"/>
      <point x="1126" y="1283" type="line"/>
    </contour>
    <contour>
      <point x="687" y="1290" type="move" name="top"/>
    </contour>
  </outline>
</glyph>
<glyph name="oevowelsigndevaKSH" format="1">
  <unicode hex="093A"/>
  <outline>
    <contour>
      <point x="-208" y="1471" type="line"/>
      <point x="-208" y="1175" type="line"/>
      <point x="-422" y="1175" type="line"/>
      <point x="-422" y="1471" type="line"/>
    </contour>
    <contour>
      <point x="-371" y="1278" type="move" name="_top"/>
    </contour>
  </outline>
</glyph>
<glyph name="avagrahadeva" format="1">
  <advance width="1025"/>
  <unicode hex="093D"/>
  <outline>
    <contour>
      <point x="499" y="76" type="qcurve" smooth="yes"/>
      <point x="397" y="76"/>
      <point x="222" y="119"/>
      <point x="110" y="179" type="qcurve"/>
      <point x="152" y="360" type="line"/>
      <point x="256" y="303"/>
      <point x="413" y="262"/>
      <point x="481" y="262" type="qcurve" smooth="yes"/>
      <point x="571" y="262"/>
      <point x="668" y="343"/>
      <point x="668" y="419" type="qcurve" smooth="yes"/>
      <point x="668" y="484"/>
      <point x="561" y="600"/>
      <point x="431" y="657" type="qcurve" smooth="yes"/>
      <point x="271" y="728"/>
      <point x="119" y="900"/>
      <point x="119" y="1010" type="qcurve" smooth="yes"/>
      <point x="119" y="1130"/>
      <point x="288" y="1283"/>
      <point x="457" y="1283" type="qcurve" smooth="yes"/>
      <point x="834" y="1283" type="line"/>
      <point x="834" y="1119" type="line"/>
      <point x="476" y="1119" type="line"/>
      <point x="404" y="1119"/>
      <point x="335" y="1050"/>
      <point x="335" y="999" type="qcurve" smooth="yes"/>
      <point x="335" y="948"/>
      <point x="418" y="870"/>
      <point x="543" y="817" type="qcurve" smooth="yes"/>
      <point x="709" y="743"/>
      <point x="884" y="547"/>
      <point x="884" y="411" type="qcurve" smooth="yes"/>
      <point x="884" y="262"/>
      <point x="677" y="76"/>
    </contour>
  </outline>
</glyph>
<glyph name="aavowelsigndeva" format="1">
  <advance width="580"/>
  <unicode hex="093E"/>
  <outline>
    <contour>
      <point x="155" y="1170" type="line"/>
      <point x="370" y="1170" type="line"/>
      <point x="370" y="0" type="line"/>
      <point x="155" y="0" type="line"/>
    </contour>
    <contour>
      <point x="610" y="1119" type="line"/>
      <point x="-30" y="1119" type="line"/>
      <point x="-30" y="1283" type="line"/>
      <point x="610" y="1283" type="line"/>
    </contour>
  </outline>
</glyph>
<glyph name="iivowelsigndeva" format="1">
  <advance width="580"/>
  <unicode hex="0940"/>
  <outline>
    <contour>
      <point x="155" y="1226" type="line"/>
      <point x="92" y="1385"/>
      <point x="-78" y="1564"/>
      <point x="-168" y="1564" type="qcurve" smooth="yes"/>
      <point x="-224" y="1564"/>
      <point x="-282" y="1503"/>
      <point x="-282" y="1448" type="qcurve" smooth="yes"/>
      <point x="-282" y="1395"/>
      <point x="-238" y="1289"/>
      <point x="-201" y="1243" type="qcurve"/>
      <point x="-421" y="1243" type="line"/>
      <point x="-446" y="1280"/>
      <point x="-489" y="1407"/>
      <point x="-489" y="1480" type="qcurve" smooth="yes"/>
      <point x="-489" y="1594"/>
      <point x="-336" y="1737"/>
      <point x="-197" y="1737" type="qcurve" smooth="yes"/>
      <point x="-14" y="1737"/>
      <point x="267" y="1488"/>
      <point x="368" y="1226" type="qcurve"/>
    </contour>
    <component base="aavowelsigndeva"/>
  </outline>
</glyph>
<glyph name="uuvowelsigndeva" format="1">
  <unicode hex="0942"/>
  <outline>
    <contour>
      <point x="-142" y="-522" type="line"/>
      <point x="-176" y="-533"/>
      <point x="-258" y="-541"/>
      <point x="-302" y="-541" type="qcurve" smooth="yes"/>
      <point x="-458" y="-541"/>
      <point x="-665" y="-377"/>
      <point x="-665" y="-243" type="qcurve" smooth="yes"/>
      <point x="-665" y="-124"/>
      <point x="-488" y="32"/>
      <point x="-326" y="32" type="qcurve" smooth="yes"/>
      <point x="-180" y="32"/>
      <point x="106" y="-151"/>
      <point x="234" y="-356" type="qcurve"/>
      <point x="120" y="-474" type="line"/>
      <point x="-8" y="-277"/>
      <point x="-222" y="-138"/>
      <point x="-316" y="-138" type="qcurve" smooth="yes"/>
      <point x="-394" y="-138"/>
      <point x="-472" y="-209"/>
      <point x="-472" y="-259" type="qcurve" smooth="yes"/>
      <point x="-472" y="-323"/>
      <point x="-375" y="-386"/>
      <point x="-304" y="-386" type="qcurve" smooth="yes"/>
      <point x="-261" y="-386"/>
      <point x="-201" y="-379"/>
      <point x="-162" y="-370" type="qcurve"/>
    </contour>
    <contour>
      <point x="-402" y="7" type="move" name="_btm"/>
    </contour>
  </outline>
</glyph>
<glyph name="ecandravowelsigndeva" format="1">
  <unicode hex="0945"/>
  <outline>
    <contour>
      <point x="-582" y="1560" type="qcurve" smooth="yes"/>
      <point x="-492" y="1560"/>
      <point x="-322" y="1617"/>
      <point x="-252" y="1683" type="qcurve"/>
      <point x="-219" y="1530" type="line"/>
      <point x="-272" y="1470"/>
      <point x="-454" y="1390"/>
      <point x="-580" y="1390" type="qcurve" smooth="yes"/>
      <point x="-690" y="1390"/>
      <point x="-893" y="1473"/>
      <point x="-963" y="1536" type="qcurve"/>
      <point x="-931" y="1693" type="line"/>
      <point x="-856" y="1627"/>
      <point x="-674" y="1560"/>
    </contour>
    <contour>
      <point x="-371" y="1291" type="move" name="_top"/>
    </contour>
  </outline>
</glyph>
<glyph name="eshortvowelsigndeva" format="1">
  <unicode hex="0946"/>
  <outline>
    <contour>
      <point x="-418" y="1221" type="line"/>
      <point x="-418" y="1326" type="line"/>
      <point x="-418" y="1385"/>
      <point x="-467" y="1442"/>
      <point x="-514" y="1442" type="qcurve" smooth="yes"/>
      <point x="-549" y="1442"/>
      <point x="-675" y="1413"/>
      <point x="-738" y="1413" type="qcurve" smooth="yes"/>
      <point x="-798" y="1413"/>
      <point x="-923" y="1463"/>
      <point x="-981" y="1513" type="qcurve"/>
      <point x="-923" y="1649" type="line"/>
      <point x="-883" y="1618"/>
      <point x="-783" y="1578"/>
      <point x="-731" y="1578" type="qcurve" smooth="yes"/>
      <point x="-678" y="1578"/>
      <point x="-515" y="1625"/>
      <point x="-451" y="1625" type="qcurve" smooth="yes"/>
      <point x="-341" y="1625"/>
      <point x="-211" y="1479"/>
      <point x="-211" y="1343" type="qcurve" smooth="yes"/>
      <point x="-211" y="1221" type="line"/>
    </contour>
    <contour>
      <point x="-371" y="1291" type="move" name="_top"/>
    </contour>
  </outline>
</glyph>
<glyph name="aivowelsigndeva" format="1">
  <unicode hex="0948"/>
  <outline>
    <contour>
      <point x="-522" y="1232" type="line"/>
      <point x="-1017" y="1566" type="line"/>
      <point x="-893" y="1707" type="line"/>
      <point x="-249" y="1232" type="line"/>
    </contour>
    <contour>
      <point x="-381" y="1232" type="line"/>
      <point x="-636" y="1796" type="line"/>
      <point x="-459" y="1849" type="line"/>
      <point x="-208" y="1232" type="line"/>
    </contour>
    <contour>
      <point x="-402" y="1290" type="move" name="_top"/>
    </contour>
  </outline>
</glyph>
<glyph name="viramadeva" format="1">
  <unicode hex="094D"/>
  <outline>
    <contour>
      <point x="-424" y="-91" type="line"/>
      <point x="71" y="-339" type="line"/>
      <point x="-9" y="-485" type="line"/>
      <point x="-504" y="-240" type="line"/>
    </contour>
    <contour>
      <point x="-370" y="12" type="move" name="_btm"/>
    </contour>
  </outline>
</glyph>
<glyph name="prishthaevowelsign" format="1">
  <advance width="574"/>
  <unicode hex="094E"/>
  <outline>
    <contour>
      <point x="154" y="1170" type="line"/>
      <point x="368" y="1170" type="line"/>
      <point x="368" y="0" type="line"/>
      <point x="154" y="0" type="line"/>
    </contour>
    <contour>
      <point x="603" y="1119" type="line"/>
      <point x="154" y="1119" type="line"/>
      <point x="154" y="1283" type="line"/>
      <point x="603" y="1283" type="line"/>
    </contour>
  </outline>
</glyph>
<glyph name="awvowelsigndevaKSH" format="1">
  <advance width="580"/>
  <unicode hex="094F"/>
  <outline>
    <contour>
      <point x="199" y="1213" type="line"/>
      <point x="199" y="1492" type="line"/>
      <point x="199" y="1538"/>
      <point x="154" y="1588"/>
      <point x="118" y="1588" type="qcurve" smooth="yes"/>
      <point x="80" y="1588"/>
      <point x="-16" y="1562"/>
      <point x="-67" y="1562" type="qcurve" smooth="yes"/>
      <point x="-133" y="1562"/>
      <point x="-247" y="1610"/>
      <point x="-301" y="1660" type="qcurve"/>
      <point x="-248" y="1783" type="line"/>
      <point x="-192" y="1738"/>
      <point x="-106" y="1710"/>
      <point x="-68" y="1710" type="qcurve" smooth="yes"/>
      <point x="-15" y="1710"/>
      <point x="114" y="1750"/>
      <point x="168" y="1750" type="qcurve" smooth="yes"/>
      <point x="255" y="1750"/>
      <point x="370" y="1631"/>
      <point x="370" y="1511" type="qcurve" smooth="yes"/>
      <point x="370" y="1213" type="line"/>
    </contour>
    <contour>
      <point x="140" y="1186" type="line"/>
      <point x="74" y="1290" type="line"/>
      <point x="48" y="1332"/>
      <point x="-9" y="1367"/>
      <point x="-47" y="1367" type="qcurve" smooth="yes"/>
      <point x="-89" y="1367"/>
      <point x="-193" y="1339"/>
      <point x="-244" y="1339" type="qcurve" smooth="yes"/>
      <point x="-303" y="1339"/>
      <point x="-416" y="1384"/>
      <point x="-462" y="1418" type="qcurve"/>
      <point x="-417" y="1544" type="line"/>
      <point x="-377" y="1514"/>
      <point x="-295" y="1484"/>
      <point x="-251" y="1484" type="qcurve" smooth="yes"/>
      <point x="-208" y="1484"/>
      <point x="-72" y="1524"/>
      <point x="-20" y="1524" type="qcurve" smooth="yes"/>
      <point x="58" y="1524"/>
      <point x="183" y="1435"/>
      <point x="235" y="1340" type="qcurve" smooth="yes"/>
      <point x="320" y="1186" type="line"/>
    </contour>
    <component base="aavowelsigndeva" yOffset="1"/>
  </outline>
</glyph>
<glyph name="omdeva" format="1">
  <advance width="1860"/>
  <unicode hex="0950"/>
  <outline>
    <contour>
      <point x="1246" y="260" type="qcurve"/>
      <point x="1268" y="410" type="line"/>
      <point x="1299" y="402"/>
      <point x="1355" y="393"/>
      <point x="1388" y="393" type="qcurve" smooth="yes"/>
      <point x="1452" y="393"/>
      <point x="1538" y="497"/>
      <point x="1538" y="610" type="qcurve" smooth="yes"/>
      <point x="1538" y="723"/>
      <point x="1462" y="821"/>
      <point x="1407" y="821" type="qcurve" smooth="yes"/>
      <point x="1349" y="821"/>
      <point x="1263" y="712"/>
      <point x="1242" y="600" type="qcurve" smooth="yes"/>
      <point x="1210" y="433"/>
      <point x="1048" y="286"/>
      <point x="909" y="286" type="qcurve" smooth="yes"/>
      <point x="850" y="286"/>
      <point x="782" y="302"/>
      <point x="750" y="310" type="qcurve"/>
      <point x="750" y="480" type="line"/>
      <point x="790" y="465"/>
      <point x="837" y="451"/>
      <point x="889" y="451" type="qcurve" smooth="yes"/>
      <point x="945" y="451"/>
      <point x="1023" y="528"/>
      <point x="1044" y="626" type="qcurve" smooth="yes"/>
      <point x="1086" y="815"/>
      <point x="1262" y="986"/>
      <point x="1395" y="986" type="qcurve" smooth="yes"/>
      <point x="1547" y="986"/>
      <point x="1735" y="770"/>
      <point x="1735" y="604" type="qcurve" smooth="yes"/>
      <point x="1735" y="441"/>
      <point x="1557" y="234"/>
      <point x="1403" y="234" type="qcurve" smooth="yes"/>
      <point x="1356" y="234"/>
      <point x="1290" y="247"/>
    </contour>
    <contour>
      <point x="277" y="614" type="qcurve"/>
      <point x="277" y="783" type="line"/>
      <point x="453" y="783"/>
      <point x="591" y="900"/>
      <point x="591" y="977" type="qcurve" smooth="yes"/>
      <point x="591" y="1039"/>
      <point x="507" y="1123"/>
      <point x="427" y="1123" type="qcurve" smooth="yes"/>
      <point x="379" y="1123"/>
      <point x="295" y="1097"/>
      <point x="229" y="1067" type="qcurve"/>
      <point x="201" y="1231" type="line"/>
      <point x="258" y="1261"/>
      <point x="377" y="1291"/>
      <point x="445" y="1291" type="qcurve" smooth="yes"/>
      <point x="608" y="1291"/>
      <point x="807" y="1126"/>
      <point x="807" y="981" type="qcurve" smooth="yes"/>
      <point x="807" y="816"/>
      <point x="526" y="614"/>
    </contour>
    <contour>
      <point x="441" y="783" type="line"/>
      <point x="591" y="783"/>
      <point x="835" y="595"/>
      <point x="835" y="432" type="qcurve" smooth="yes"/>
      <point x="835" y="267"/>
      <point x="631" y="80"/>
      <point x="468" y="80" type="qcurve" smooth="yes"/>
      <point x="383" y="80"/>
      <point x="236" y="112"/>
      <point x="141" y="152" type="qcurve"/>
      <point x="171" y="321" type="line"/>
      <point x="254" y="287"/>
      <point x="366" y="254"/>
      <point x="430" y="254" type="qcurve" smooth="yes"/>
      <point x="519" y="254"/>
      <point x="620" y="358"/>
      <point x="620" y="442" type="qcurve" smooth="yes"/>
      <point x="620" y="518"/>
      <point x="516" y="631"/>
      <point x="412" y="633" type="qcurve"/>
    </contour>
    <component base="candrabindudeva" xOffset="1742" yOffset="-315"/>
  </outline>
</glyph>
<glyph name="uevowelsigndevaKSH" format="1">
  <unicode hex="0956"/>
  <outline>
    <contour>
      <point x="103" y="-193" type="line"/>
      <point x="25" y="-261"/>
      <point x="-168" y="-329"/>
      <point x="-294" y="-329" type="qcurve" smooth="yes"/>
      <point x="-410" y="-329"/>
      <point x="-618" y="-265"/>
      <point x="-711" y="-199" type="qcurve"/>
      <point x="-663" y="-57" type="line"/>
      <point x="-577" y="-118"/>
      <point x="-383" y="-171"/>
      <point x="-296" y="-171" type="qcurve" smooth="yes"/>
      <point x="-196" y="-171"/>
      <point x="-18" y="-108"/>
      <point x="48" y="-53" type="qcurve"/>
    </contour>
    <contour>
      <point x="-370" y="12" type="move" name="_btm"/>
    </contour>
  </outline>
</glyph>
<glyph name="dddhadeva" format="1">
  <advance width="1098"/>
  <unicode hex="095C"/>
  <outline>
    <component base="ddadeva"/>
    <component base="nuktadeva" xOffset="1344" yOffset="-171"/>
    <contour>
      <point x="510" y="-413" type="move" name="btm"/>
    </contour>
    <contour>
      <point x="721" y="1278" type="move" name="top"/>
    </contour>
  </outline>
</glyph>
